<?xml version="1.0" encoding="UTF-8" standalone="no"?><svg xmlns="http://www.w3.org/2000/svg" xmlns:xlink="http://www.w3.org/1999/xlink" contentScriptType="application/ecmascript" contentStyleType="text/css" height="437px" preserveAspectRatio="none" style="width:943px;height:437px;background:#FFFFFF;" version="1.1" viewBox="0 0 943 437" width="943px" zoomAndPan="magnify"><defs><filter height="300%" id="f1uc5zjb4c9mdx" width="300%" x="-1" y="-1"><feGaussianBlur result="blurOut" stdDeviation="2.0"/><feColorMatrix in="blurOut" result="blurOut2" type="matrix" values="0 0 0 0 0 0 0 0 0 0 0 0 0 0 0 0 0 0 .4 0"/><feOffset dx="4.0" dy="4.0" in="blurOut2" result="blurOut3"/><feBlend in="SourceGraphic" in2="blurOut3" mode="normal"/></filter></defs><g><!--MD5=[b6100adaa7f22219254d04d731adf080]
class Actuacion--><rect codeLine="3" fill="#90EE90" filter="url(#f1uc5zjb4c9mdx)" height="291.2891" id="Actuacion" style="stroke:#008000;stroke-width:1.5;" width="175" x="300.5" y="7"/><ellipse cx="352.75" cy="23" fill="#ADD1B2" rx="11" ry="11" style="stroke:#008000;stroke-width:1.0;"/><path d="M355.7188,28.6406 Q355.1406,28.9375 354.5,29.0781 Q353.8594,29.2344 353.1563,29.2344 Q350.6563,29.2344 349.3281,27.5938 Q348.0156,25.9375 348.0156,22.8125 Q348.0156,19.6875 349.3281,18.0313 Q350.6563,16.375 353.1563,16.375 Q353.8594,16.375 354.5,16.5313 Q355.1563,16.6875 355.7188,16.9844 L355.7188,19.7031 Q355.0938,19.125 354.5,18.8594 Q353.9063,18.5781 353.2813,18.5781 Q351.9375,18.5781 351.25,19.6563 Q350.5625,20.7188 350.5625,22.8125 Q350.5625,24.9063 351.25,25.9844 Q351.9375,27.0469 353.2813,27.0469 Q353.9063,27.0469 354.5,26.7813 Q355.0938,26.5 355.7188,25.9219 L355.7188,28.6406 Z " fill="#000000"/><text fill="#000000" font-family="sans-serif" font-size="12" lengthAdjust="spacing" textLength="62" x="373.25" y="27.1543">Actuacion</text><line style="stroke:#008000;stroke-width:1.5;" x1="301.5" x2="474.5" y1="39" y2="39"/><text fill="#000000" font-family="sans-serif" font-size="11" lengthAdjust="spacing" textLength="113" x="306.5" y="53.2104">data_creacion: Date</text><text fill="#000000" font-family="sans-serif" font-size="11" lengthAdjust="spacing" textLength="78" x="306.5" y="66.0151">data_ini: Date</text><text fill="#000000" font-family="sans-serif" font-size="11" lengthAdjust="spacing" textLength="79" x="306.5" y="78.8198">data_fin: Date</text><text fill="#000000" font-family="sans-serif" font-size="11" lengthAdjust="spacing" textLength="130" x="306.5" y="91.6245">data_ini_prevista: Date</text><text fill="#000000" font-family="sans-serif" font-size="11" lengthAdjust="spacing" textLength="131" x="306.5" y="104.4292">data_fin_prevista: Date</text><text fill="#000000" font-family="sans-serif" font-size="11" lengthAdjust="spacing" textLength="0" x="310.5" y="117.2339"/><text fill="#000000" font-family="sans-serif" font-size="11" lengthAdjust="spacing" textLength="73" x="306.5" y="130.0386">nome: string</text><text fill="#000000" font-family="sans-serif" font-size="11" lengthAdjust="spacing" textLength="99" x="306.5" y="142.8433">descricion: string</text><text fill="#000000" font-family="sans-serif" font-size="11" lengthAdjust="spacing" textLength="0" x="310.5" y="155.6479"/><text fill="#000000" font-family="sans-serif" font-size="11" lengthAdjust="spacing" textLength="151" x="306.5" y="168.4526">horas_estimadas: number</text><text fill="#000000" font-family="sans-serif" font-size="11" lengthAdjust="spacing" textLength="160" x="306.5" y="181.2573">horas_consumidas: number</text><text fill="#000000" font-family="sans-serif" font-size="11" lengthAdjust="spacing" textLength="151" x="306.5" y="194.062">euros_estimados: number</text><text fill="#000000" font-family="sans-serif" font-size="11" lengthAdjust="spacing" textLength="160" x="306.5" y="206.8667">euros_consumidos: number</text><line style="stroke:#008000;stroke-width:1.5;" x1="301.5" x2="474.5" y1="213.4609" y2="213.4609"/><text fill="#000000" font-family="sans-serif" font-size="11" lengthAdjust="spacing" textLength="44" x="306.5" y="227.6714">create()</text><text fill="#000000" font-family="sans-serif" font-size="11" lengthAdjust="spacing" textLength="47" x="306.5" y="240.4761">update()</text><text fill="#000000" font-family="sans-serif" font-size="11" lengthAdjust="spacing" textLength="43" x="306.5" y="253.2808">delete()</text><text fill="#000000" font-family="sans-serif" font-size="11" lengthAdjust="spacing" textLength="0" x="310.5" y="266.0854"/><text fill="#000000" font-family="sans-serif" font-size="11" lengthAdjust="spacing" textLength="152" x="306.5" y="278.8901">calcularCustesEstimados()</text><text fill="#000000" font-family="sans-serif" font-size="11" lengthAdjust="spacing" textLength="163" x="306.5" y="291.6948">calcularCustesConsumidos()</text><!--MD5=[35a64b983c79880384a2fd9b61f0c24b]
class Usuario--><rect fill="#FEFECE" filter="url(#f1uc5zjb4c9mdx)" height="48" id="Usuario" style="stroke:#A80036;stroke-width:1.5;" width="80" x="7" y="375"/><ellipse cx="22" cy="391" fill="#ADD1B2" rx="11" ry="11" style="stroke:#A80036;stroke-width:1.0;"/><path d="M24.9688,396.6406 Q24.3906,396.9375 23.75,397.0781 Q23.1094,397.2344 22.4063,397.2344 Q19.9063,397.2344 18.5781,395.5938 Q17.2656,393.9375 17.2656,390.8125 Q17.2656,387.6875 18.5781,386.0313 Q19.9063,384.375 22.4063,384.375 Q23.1094,384.375 23.75,384.5313 Q24.4063,384.6875 24.9688,384.9844 L24.9688,387.7031 Q24.3438,387.125 23.75,386.8594 Q23.1563,386.5781 22.5313,386.5781 Q21.1875,386.5781 20.5,387.6563 Q19.8125,388.7188 19.8125,390.8125 Q19.8125,392.9063 20.5,393.9844 Q21.1875,395.0469 22.5313,395.0469 Q23.1563,395.0469 23.75,394.7813 Q24.3438,394.5 24.9688,393.9219 L24.9688,396.6406 Z " fill="#000000"/><text fill="#000000" font-family="sans-serif" font-size="12" lengthAdjust="spacing" textLength="48" x="36" y="395.1543">Usuario</text><line style="stroke:#A80036;stroke-width:1.5;" x1="8" x2="86" y1="407" y2="407"/><line style="stroke:#A80036;stroke-width:1.5;" x1="8" x2="86" y1="415" y2="415"/><!--MD5=[d8933eb2ae217ae3c21bf6e2973c277f]
class Estado--><rect fill="#FEFECE" filter="url(#f1uc5zjb4c9mdx)" height="48" id="Estado" style="stroke:#A80036;stroke-width:1.5;" width="76" x="122" y="375"/><ellipse cx="137" cy="391" fill="#ADD1B2" rx="11" ry="11" style="stroke:#A80036;stroke-width:1.0;"/><path d="M139.9688,396.6406 Q139.3906,396.9375 138.75,397.0781 Q138.1094,397.2344 137.4063,397.2344 Q134.9063,397.2344 133.5781,395.5938 Q132.2656,393.9375 132.2656,390.8125 Q132.2656,387.6875 133.5781,386.0313 Q134.9063,384.375 137.4063,384.375 Q138.1094,384.375 138.75,384.5313 Q139.4063,384.6875 139.9688,384.9844 L139.9688,387.7031 Q139.3438,387.125 138.75,386.8594 Q138.1563,386.5781 137.5313,386.5781 Q136.1875,386.5781 135.5,387.6563 Q134.8125,388.7188 134.8125,390.8125 Q134.8125,392.9063 135.5,393.9844 Q136.1875,395.0469 137.5313,395.0469 Q138.1563,395.0469 138.75,394.7813 Q139.3438,394.5 139.9688,393.9219 L139.9688,396.6406 Z " fill="#000000"/><text fill="#000000" font-family="sans-serif" font-size="12" lengthAdjust="spacing" textLength="44" x="151" y="395.1543">Estado</text><line style="stroke:#A80036;stroke-width:1.5;" x1="123" x2="197" y1="407" y2="407"/><line style="stroke:#A80036;stroke-width:1.5;" x1="123" x2="197" y1="415" y2="415"/><!--MD5=[e015f67e4c3d46a0dbe4d49a17d1fc77]
class EstimacionTempo--><rect fill="#FEFECE" filter="url(#f1uc5zjb4c9mdx)" height="48" id="EstimacionTempo" style="stroke:#A80036;stroke-width:1.5;" width="142" x="233" y="375"/><ellipse cx="248" cy="391" fill="#ADD1B2" rx="11" ry="11" style="stroke:#A80036;stroke-width:1.0;"/><path d="M250.9688,396.6406 Q250.3906,396.9375 249.75,397.0781 Q249.1094,397.2344 248.4063,397.2344 Q245.9063,397.2344 244.5781,395.5938 Q243.2656,393.9375 243.2656,390.8125 Q243.2656,387.6875 244.5781,386.0313 Q245.9063,384.375 248.4063,384.375 Q249.1094,384.375 249.75,384.5313 Q250.4063,384.6875 250.9688,384.9844 L250.9688,387.7031 Q250.3438,387.125 249.75,386.8594 Q249.1563,386.5781 248.5313,386.5781 Q247.1875,386.5781 246.5,387.6563 Q245.8125,388.7188 245.8125,390.8125 Q245.8125,392.9063 246.5,393.9844 Q247.1875,395.0469 248.5313,395.0469 Q249.1563,395.0469 249.75,394.7813 Q250.3438,394.5 250.9688,393.9219 L250.9688,396.6406 Z " fill="#000000"/><text fill="#000000" font-family="sans-serif" font-size="12" lengthAdjust="spacing" textLength="110" x="262" y="395.1543">EstimacionTempo</text><line style="stroke:#A80036;stroke-width:1.5;" x1="234" x2="374" y1="407" y2="407"/><line style="stroke:#A80036;stroke-width:1.5;" x1="234" x2="374" y1="415" y2="415"/><!--MD5=[707f6e11070e923409c8fe8b66df636b]
class Prioridade--><rect fill="#FEFECE" filter="url(#f1uc5zjb4c9mdx)" height="48" id="Prioridade" style="stroke:#A80036;stroke-width:1.5;" width="96" x="410" y="375"/><ellipse cx="425" cy="391" fill="#ADD1B2" rx="11" ry="11" style="stroke:#A80036;stroke-width:1.0;"/><path d="M427.9688,396.6406 Q427.3906,396.9375 426.75,397.0781 Q426.1094,397.2344 425.4063,397.2344 Q422.9063,397.2344 421.5781,395.5938 Q420.2656,393.9375 420.2656,390.8125 Q420.2656,387.6875 421.5781,386.0313 Q422.9063,384.375 425.4063,384.375 Q426.1094,384.375 426.75,384.5313 Q427.4063,384.6875 427.9688,384.9844 L427.9688,387.7031 Q427.3438,387.125 426.75,386.8594 Q426.1563,386.5781 425.5313,386.5781 Q424.1875,386.5781 423.5,387.6563 Q422.8125,388.7188 422.8125,390.8125 Q422.8125,392.9063 423.5,393.9844 Q424.1875,395.0469 425.5313,395.0469 Q426.1563,395.0469 426.75,394.7813 Q427.3438,394.5 427.9688,393.9219 L427.9688,396.6406 Z " fill="#000000"/><text fill="#000000" font-family="sans-serif" font-size="12" lengthAdjust="spacing" textLength="64" x="439" y="395.1543">Prioridade</text><line style="stroke:#A80036;stroke-width:1.5;" x1="411" x2="505" y1="407" y2="407"/><line style="stroke:#A80036;stroke-width:1.5;" x1="411" x2="505" y1="415" y2="415"/><!--MD5=[eb4e2a40f0d210208f14ea4a2d93f8ee]
class Tipo--><rect fill="#FEFECE" filter="url(#f1uc5zjb4c9mdx)" height="48" id="Tipo" style="stroke:#A80036;stroke-width:1.5;" width="58" x="541" y="375"/><ellipse cx="556" cy="391" fill="#ADD1B2" rx="11" ry="11" style="stroke:#A80036;stroke-width:1.0;"/><path d="M558.9688,396.6406 Q558.3906,396.9375 557.75,397.0781 Q557.1094,397.2344 556.4063,397.2344 Q553.9063,397.2344 552.5781,395.5938 Q551.2656,393.9375 551.2656,390.8125 Q551.2656,387.6875 552.5781,386.0313 Q553.9063,384.375 556.4063,384.375 Q557.1094,384.375 557.75,384.5313 Q558.4063,384.6875 558.9688,384.9844 L558.9688,387.7031 Q558.3438,387.125 557.75,386.8594 Q557.1563,386.5781 556.5313,386.5781 Q555.1875,386.5781 554.5,387.6563 Q553.8125,388.7188 553.8125,390.8125 Q553.8125,392.9063 554.5,393.9844 Q555.1875,395.0469 556.5313,395.0469 Q557.1563,395.0469 557.75,394.7813 Q558.3438,394.5 558.9688,393.9219 L558.9688,396.6406 Z " fill="#000000"/><text fill="#000000" font-family="sans-serif" font-size="12" lengthAdjust="spacing" textLength="26" x="570" y="395.1543">Tipo</text><line style="stroke:#A80036;stroke-width:1.5;" x1="542" x2="598" y1="407" y2="407"/><line style="stroke:#A80036;stroke-width:1.5;" x1="542" x2="598" y1="415" y2="415"/><!--MD5=[54736e807c59b9b647b6e830d606a429]
class Rol--><rect fill="#FEFECE" filter="url(#f1uc5zjb4c9mdx)" height="48" id="Rol" style="stroke:#A80036;stroke-width:1.5;" width="51" x="634.5" y="375"/><ellipse cx="649.5" cy="391" fill="#ADD1B2" rx="11" ry="11" style="stroke:#A80036;stroke-width:1.0;"/><path d="M652.4688,396.6406 Q651.8906,396.9375 651.25,397.0781 Q650.6094,397.2344 649.9063,397.2344 Q647.4063,397.2344 646.0781,395.5938 Q644.7656,393.9375 644.7656,390.8125 Q644.7656,387.6875 646.0781,386.0313 Q647.4063,384.375 649.9063,384.375 Q650.6094,384.375 651.25,384.5313 Q651.9063,384.6875 652.4688,384.9844 L652.4688,387.7031 Q651.8438,387.125 651.25,386.8594 Q650.6563,386.5781 650.0313,386.5781 Q648.6875,386.5781 648,387.6563 Q647.3125,388.7188 647.3125,390.8125 Q647.3125,392.9063 648,393.9844 Q648.6875,395.0469 650.0313,395.0469 Q650.6563,395.0469 651.25,394.7813 Q651.8438,394.5 652.4688,393.9219 L652.4688,396.6406 Z " fill="#000000"/><text fill="#000000" font-family="sans-serif" font-size="12" lengthAdjust="spacing" textLength="19" x="663.5" y="395.1543">Rol</text><line style="stroke:#A80036;stroke-width:1.5;" x1="635.5" x2="684.5" y1="407" y2="407"/><line style="stroke:#A80036;stroke-width:1.5;" x1="635.5" x2="684.5" y1="415" y2="415"/><!--MD5=[92bd6e401080a2853674e2906bfd22c8]
class Comentario--><rect fill="#FEFECE" filter="url(#f1uc5zjb4c9mdx)" height="48" id="Comentario" style="stroke:#A80036;stroke-width:1.5;" width="104" x="721" y="375"/><ellipse cx="736" cy="391" fill="#ADD1B2" rx="11" ry="11" style="stroke:#A80036;stroke-width:1.0;"/><path d="M738.9688,396.6406 Q738.3906,396.9375 737.75,397.0781 Q737.1094,397.2344 736.4063,397.2344 Q733.9063,397.2344 732.5781,395.5938 Q731.2656,393.9375 731.2656,390.8125 Q731.2656,387.6875 732.5781,386.0313 Q733.9063,384.375 736.4063,384.375 Q737.1094,384.375 737.75,384.5313 Q738.4063,384.6875 738.9688,384.9844 L738.9688,387.7031 Q738.3438,387.125 737.75,386.8594 Q737.1563,386.5781 736.5313,386.5781 Q735.1875,386.5781 734.5,387.6563 Q733.8125,388.7188 733.8125,390.8125 Q733.8125,392.9063 734.5,393.9844 Q735.1875,395.0469 736.5313,395.0469 Q737.1563,395.0469 737.75,394.7813 Q738.3438,394.5 738.9688,393.9219 L738.9688,396.6406 Z " fill="#000000"/><text fill="#000000" font-family="sans-serif" font-size="12" lengthAdjust="spacing" textLength="72" x="750" y="395.1543">Comentario</text><line style="stroke:#A80036;stroke-width:1.5;" x1="722" x2="824" y1="407" y2="407"/><line style="stroke:#A80036;stroke-width:1.5;" x1="722" x2="824" y1="415" y2="415"/><!--MD5=[9eed6f30420dc69e0ac6fbeeb75e52ff]
class Etapa--><rect fill="#FEFECE" filter="url(#f1uc5zjb4c9mdx)" height="48" id="Etapa" style="stroke:#A80036;stroke-width:1.5;" width="69" x="860.5" y="375"/><ellipse cx="875.5" cy="391" fill="#ADD1B2" rx="11" ry="11" style="stroke:#A80036;stroke-width:1.0;"/><path d="M878.4688,396.6406 Q877.8906,396.9375 877.25,397.0781 Q876.6094,397.2344 875.9063,397.2344 Q873.4063,397.2344 872.0781,395.5938 Q870.7656,393.9375 870.7656,390.8125 Q870.7656,387.6875 872.0781,386.0313 Q873.4063,384.375 875.9063,384.375 Q876.6094,384.375 877.25,384.5313 Q877.9063,384.6875 878.4688,384.9844 L878.4688,387.7031 Q877.8438,387.125 877.25,386.8594 Q876.6563,386.5781 876.0313,386.5781 Q874.6875,386.5781 874,387.6563 Q873.3125,388.7188 873.3125,390.8125 Q873.3125,392.9063 874,393.9844 Q874.6875,395.0469 876.0313,395.0469 Q876.6563,395.0469 877.25,394.7813 Q877.8438,394.5 878.4688,393.9219 L878.4688,396.6406 Z " fill="#000000"/><text fill="#000000" font-family="sans-serif" font-size="12" lengthAdjust="spacing" textLength="37" x="889.5" y="395.1543">Etapa</text><line style="stroke:#A80036;stroke-width:1.5;" x1="861.5" x2="928.5" y1="407" y2="407"/><line style="stroke:#A80036;stroke-width:1.5;" x1="861.5" x2="928.5" y1="415" y2="415"/><path d="M510.5,112 L510.5,143.2656 L457.5,190.2539 L510.5,151.2656 L510.5,182.5313 A0,0 0 0 0 510.5,182.5313 L747.5,182.5313 A0,0 0 0 0 747.5,182.5313 L747.5,122 L737.5,112 L510.5,112 A0,0 0 0 0 510.5,112 " fill="#FBFB77" filter="url(#f1uc5zjb4c9mdx)" style="stroke:#A80036;stroke-width:1.0;"/><path d="M737.5,112 L737.5,122 L747.5,122 L737.5,112 " fill="#FBFB77" style="stroke:#A80036;stroke-width:1.0;"/><text fill="#000000" font-family="sans-serif" font-size="13" lengthAdjust="spacing" textLength="193" x="516.5" y="129.0669">A modo de histórico os custes</text><text fill="#000000" font-family="sans-serif" font-size="13" lengthAdjust="spacing" textLength="207" x="516.5" y="144.1997">económicos ademais deactivate</text><text fill="#000000" font-family="sans-serif" font-size="13" lengthAdjust="spacing" textLength="216" x="516.5" y="159.3325">ser calculados farase persistencia</text><text fill="#000000" font-family="sans-serif" font-size="13" lengthAdjust="spacing" textLength="170" x="516.5" y="174.4653">na BD a modo de histórico</text><!--MD5=[66f5c0e5cc609500d983b8021561fcb9]
link Actuacion to Usuario--><path codeLine="28" d="M300.27,168.95 C214.6,189.2 88.82,233.9 30,328 C21.18,342.1 26.12,360.45 32.89,374.82 " fill="none" id="Actuacion-Usuario" style="stroke:#0000FF;stroke-width:1.0;"/><text fill="#000000" font-family="sans-serif" font-size="13" lengthAdjust="spacing" textLength="49" x="31" y="341.0669">creador</text><!--MD5=[66f5c0e5cc609500d983b8021561fcb9]
link Actuacion to Usuario--><path codeLine="33" d="M300.24,209.07 C249.26,242.22 184.37,285.93 129,328 C109.48,342.83 88.46,360.82 72.59,374.84 " fill="none" id="Actuacion-Usuario-1" style="stroke:#0000FF;stroke-width:1.0;"/><text fill="#000000" font-family="sans-serif" font-size="13" lengthAdjust="spacing" textLength="23" x="269.6404" y="209.8878">1..*</text><!--MD5=[66f5c0e5cc609500d983b8021561fcb9]
link Actuacion to Usuario--><path codeLine="34" d="M300.41,218.88 C249.8,256.31 184.72,303.87 126,345 C111.8,354.95 95.95,365.65 82.21,374.82 " fill="none" id="Actuacion-Usuario-2" style="stroke:#0000FF;stroke-width:1.0;"/><polygon fill="#000000" points="157.0679,333.6592,148.0002,336.5273,151.4178,341.3095,157.0679,333.6592" style="stroke:#000000;stroke-width:1.0;"/><text fill="#000000" font-family="sans-serif" font-size="13" lengthAdjust="spacing" textLength="75" x="162" y="341.0669">Validadores</text><text fill="#000000" font-family="sans-serif" font-size="13" lengthAdjust="spacing" textLength="23" x="269.5138" y="236.828">0..*</text><!--MD5=[0f960be683a03e1fb00140f99b144a8f]
link Actuacion to Estado--><path codeLine="29" d="M300.17,297.17 C286.53,314.32 271.71,330.77 256,345 C239.07,360.33 216.91,372.94 198.16,382 " fill="none" id="Actuacion-Estado" style="stroke:#006400;stroke-width:1.0;"/><!--MD5=[01f4fe12a2b98032181428bf7f636953]
link Actuacion to EstimacionTempo--><path codeLine="30" d="M338.29,298.2 C328.01,328.1 318.38,356.15 311.95,374.85 " fill="none" id="Actuacion-EstimacionTempo" style="stroke:#DAA520;stroke-width:1.0;"/><!--MD5=[0352f9323cdb11bb9ffc08873fcece02]
link Actuacion to Prioridade--><path codeLine="31" d="M429.43,298.2 C437.99,328.1 446.02,356.15 451.37,374.85 " fill="none" id="Actuacion-Prioridade" style="stroke:#FF1493;stroke-width:1.0;"/><!--MD5=[30a3441782fc45b8a75106ef2f608a24]
link Actuacion to Tipo--><path codeLine="32" d="M475.7,274.71 C481.53,282.61 487.33,290.43 493,298 C512.82,324.49 536.05,354.52 551.77,374.7 " fill="none" id="Actuacion-Tipo" style="stroke:#BC8F8F;stroke-width:1.0;"/><!--MD5=[fbe1da29953c5aac50eace502c0bf469]
link Actuacion to Rol--><path codeLine="35" d="M475.59,281.34 C481.23,287.21 487.04,292.8 493,298 C514.28,316.56 524.6,313.79 549,328 C578.73,345.31 612.01,366.55 634.3,381.07 " fill="none" id="Actuacion-Rol" style="stroke:#00008B;stroke-width:1.0;"/><polygon fill="#000000" points="577.7664,333.9061,583.8613,341.207,586.9887,336.2302,577.7664,333.9061" style="stroke:#000000;stroke-width:1.0;"/><text fill="#000000" font-family="sans-serif" font-size="13" lengthAdjust="spacing" textLength="66" x="591" y="341.0669">Asignados</text><text fill="#000000" font-family="sans-serif" font-size="13" lengthAdjust="spacing" textLength="23" x="483.4862" y="288.07">1..*</text><!--MD5=[59e86a1a91dc189ff3830fa45d3b5a03]
link Actuacion to Comentario--><path codeLine="36" d="M475.56,285.34 C481.13,289.97 486.95,294.23 493,298 C559.24,339.26 593.4,299.38 666,328 C694.91,339.4 724.2,359.26 744.81,374.93 " fill="none" id="Actuacion-Comentario" style="stroke:#000000;stroke-width:1.0;"/><text fill="#000000" font-family="sans-serif" font-size="13" lengthAdjust="spacing" textLength="23" x="483.4538" y="308.584">0..*</text><!--MD5=[43d03f249f64fcbe967096c7a2a31c6f]
link Actuacion to Etapa--><path codeLine="37" d="M475.78,285.89 C481.28,290.33 487.02,294.41 493,298 C575.73,347.65 614.24,305.25 708,328 C769.33,342.88 783.24,351.98 842,375 C847.98,377.34 854.28,379.95 860.37,382.55 " fill="none" id="Actuacion-Etapa" style="stroke:#008000;stroke-width:1.0;"/><text fill="#000000" font-family="sans-serif" font-size="13" lengthAdjust="spacing" textLength="23" x="483.3811" y="292.5894">0..*</text><!--MD5=[4be3675a810303966b9398fdace70471]
link Actuacion to Actuacion$$$RIGHT--><!--MD5=[b9e23cac82877c6f7335f243db926e4c]
@startuml Actuacion

!startsub PARCIAL
    class Actuacion  #LightGreen ##Green {
        ' Propiedades
        {field} data_creacion: Date
        {field} data_ini: Date
        {field} data_fin: Date
        {field} data_ini_prevista: Date
        {field} data_fin_prevista: Date

        {field} nome: string
        {field} descricion: string

        {field} horas_estimadas: number
        {field} horas_consumidas: number
        {field} euros_estimados: number
        {field} euros_consumidos: number

        ' Métodos
        {method} create()
        {method} update()
        {method} delete()

        {method} calcularCustesEstimados()
        {method} calcularCustesConsumidos()
    }

    Actuacion - - Usuario #Blue : creador
    Actuacion - - Estado #DarkGreen
    Actuacion - - EstimacionTempo #GoldenRod
    Actuacion - - Prioridade #DeepPink
    Actuacion - - Tipo #RosyBrown
    Actuacion "1..*" - - Usuario #Blue
    Actuacion "0..*" - - Usuario  #Blue: Validadores <
    Actuacion "1..*" - - Rol #DarkBlue : Asignados <
    Actuacion "0..*" - - Comentario #Black
    Actuacion "0..*" - - Etapa #Green
!endsub

!startsub NOTAS
    note right of Actuacion::euros_estimados
        A modo de histórico os custes
        económicos ademais deactivate
        ser calculados farase persistencia
        na BD a modo de histórico
    end note
!endsub


@enduml

@startuml Actuacion

    class Actuacion  #LightGreen ##Green {
        {field} data_creacion: Date
        {field} data_ini: Date
        {field} data_fin: Date
        {field} data_ini_prevista: Date
        {field} data_fin_prevista: Date

        {field} nome: string
        {field} descricion: string

        {field} horas_estimadas: number
        {field} horas_consumidas: number
        {field} euros_estimados: number
        {field} euros_consumidos: number

        {method} create()
        {method} update()
        {method} delete()

        {method} calcularCustesEstimados()
        {method} calcularCustesConsumidos()
    }

    Actuacion - - Usuario #Blue : creador
    Actuacion - - Estado #DarkGreen
    Actuacion - - EstimacionTempo #GoldenRod
    Actuacion - - Prioridade #DeepPink
    Actuacion - - Tipo #RosyBrown
    Actuacion "1..*" - - Usuario #Blue
    Actuacion "0..*" - - Usuario  #Blue: Validadores <
    Actuacion "1..*" - - Rol #DarkBlue : Asignados <
    Actuacion "0..*" - - Comentario #Black
    Actuacion "0..*" - - Etapa #Green

    note right of Actuacion::euros_estimados
        A modo de histórico os custes
        económicos ademais deactivate
        ser calculados farase persistencia
        na BD a modo de histórico
    end note


@enduml

PlantUML version 1.2021.7(Sun May 23 14:40:07 CEST 2021)
(GPL source distribution)
Java Runtime: OpenJDK Runtime Environment
JVM: OpenJDK 64-Bit Server VM
Default Encoding: UTF-8
Language: gl
Country: ES
--></g></svg>