<?xml version="1.0" encoding="UTF-8" standalone="no"?><svg xmlns="http://www.w3.org/2000/svg" xmlns:xlink="http://www.w3.org/1999/xlink" contentScriptType="application/ecmascript" contentStyleType="text/css" height="158px" preserveAspectRatio="none" style="width:295px;height:158px;background:#FFFFFF;" version="1.1" viewBox="0 0 295 158" width="295px" zoomAndPan="magnify"><defs><filter height="300%" id="fbj6p2m0nwhkp" width="300%" x="-1" y="-1"><feGaussianBlur result="blurOut" stdDeviation="2.0"/><feColorMatrix in="blurOut" result="blurOut2" type="matrix" values="0 0 0 0 0 0 0 0 0 0 0 0 0 0 0 0 0 0 .4 0"/><feOffset dx="4.0" dy="4.0" in="blurOut2" result="blurOut3"/><feBlend in="SourceGraphic" in2="blurOut3" mode="normal"/></filter></defs><g><!--MD5=[e015f67e4c3d46a0dbe4d49a17d1fc77]
class EstimacionTempo--><rect codeLine="3" fill="#FFD700" filter="url(#fbj6p2m0nwhkp)" height="137.6328" id="EstimacionTempo" style="stroke:#DAA520;stroke-width:1.5;" width="142" x="7" y="7"/><ellipse cx="22" cy="23" fill="#ADD1B2" rx="11" ry="11" style="stroke:#DAA520;stroke-width:1.0;"/><path d="M24.9688,28.6406 Q24.3906,28.9375 23.75,29.0781 Q23.1094,29.2344 22.4063,29.2344 Q19.9063,29.2344 18.5781,27.5938 Q17.2656,25.9375 17.2656,22.8125 Q17.2656,19.6875 18.5781,18.0313 Q19.9063,16.375 22.4063,16.375 Q23.1094,16.375 23.75,16.5313 Q24.4063,16.6875 24.9688,16.9844 L24.9688,19.7031 Q24.3438,19.125 23.75,18.8594 Q23.1563,18.5781 22.5313,18.5781 Q21.1875,18.5781 20.5,19.6563 Q19.8125,20.7188 19.8125,22.8125 Q19.8125,24.9063 20.5,25.9844 Q21.1875,27.0469 22.5313,27.0469 Q23.1563,27.0469 23.75,26.7813 Q24.3438,26.5 24.9688,25.9219 L24.9688,28.6406 Z " fill="#000000"/><text fill="#000000" font-family="sans-serif" font-size="12" lengthAdjust="spacing" textLength="110" x="36" y="27.1543">EstimacionTempo</text><line style="stroke:#DAA520;stroke-width:1.5;" x1="8" x2="148" y1="39" y2="39"/><text fill="#000000" font-family="sans-serif" font-size="11" lengthAdjust="spacing" textLength="73" x="13" y="53.2104">nome: string</text><text fill="#000000" font-family="sans-serif" font-size="11" lengthAdjust="spacing" textLength="99" x="13" y="66.0151">descricion: string</text><text fill="#000000" font-family="sans-serif" font-size="11" lengthAdjust="spacing" textLength="77" x="13" y="78.8198">escala: enum</text><text fill="#000000" font-family="sans-serif" font-size="11" lengthAdjust="spacing" textLength="101" x="13" y="91.6245">duracion: number</text><line style="stroke:#DAA520;stroke-width:1.5;" x1="8" x2="148" y1="98.2188" y2="98.2188"/><text fill="#000000" font-family="sans-serif" font-size="11" lengthAdjust="spacing" textLength="44" x="13" y="112.4292">create()</text><text fill="#000000" font-family="sans-serif" font-size="11" lengthAdjust="spacing" textLength="47" x="13" y="125.2339">update()</text><text fill="#000000" font-family="sans-serif" font-size="11" lengthAdjust="spacing" textLength="43" x="13" y="138.0386">delete()</text><path d="M184,35.5 L184,66.7656 L90,75.0117 L184,74.7656 L184,106.0313 A0,0 0 0 0 184,106.0313 L286,106.0313 A0,0 0 0 0 286,106.0313 L286,45.5 L276,35.5 L184,35.5 A0,0 0 0 0 184,35.5 " fill="#FBFB77" filter="url(#fbj6p2m0nwhkp)" style="stroke:#A80036;stroke-width:1.0;"/><path d="M276,35.5 L276,45.5 L286,45.5 L276,35.5 " fill="#FBFB77" style="stroke:#A80036;stroke-width:1.0;"/><text fill="#000000" font-family="sans-serif" font-size="13" lengthAdjust="spacing" textLength="41" x="190" y="52.5669">emun:</text><text fill="#000000" font-family="sans-serif" font-size="13" lengthAdjust="spacing" textLength="50" x="206" y="67.6997">HORAS,</text><text fill="#000000" font-family="sans-serif" font-size="13" lengthAdjust="spacing" textLength="35" x="206" y="82.8325">DIAS,</text><text fill="#000000" font-family="sans-serif" font-size="13" lengthAdjust="spacing" textLength="65" x="206" y="97.9653">SEMANAS</text><!--MD5=[c4acc8f5bfd0612f8b6a124a295b6ab9]
link EstimacionTempo to EstimacionTempo$$$RIGHT--><!--MD5=[c8feec8ee5a5c14a6840c337625302dd]
@startuml EstimacionTempo

!startsub PARCIAL
    class EstimacionTempo #Gold ##GoldenRod{
        ' Propiedades
        {field} nome: string
        {field} descricion: string
        {field} escala: enum
        {field} duracion: number

        ' Métodos
        {method} create()
        {method} update()
        {method} delete()
    }
!endsub

!startsub NOTAS
    note right of EstimacionTempo::escala
        emun:
            HORAS,
            DIAS,
            SEMANAS
    end note
!endsub

@enduml

@startuml EstimacionTempo

    class EstimacionTempo #Gold ##GoldenRod{
        {field} nome: string
        {field} descricion: string
        {field} escala: enum
        {field} duracion: number

        {method} create()
        {method} update()
        {method} delete()
    }

    note right of EstimacionTempo::escala
        emun:
            HORAS,
            DIAS,
            SEMANAS
    end note

@enduml

PlantUML version 1.2021.7(Sun May 23 14:40:07 CEST 2021)
(GPL source distribution)
Java Runtime: OpenJDK Runtime Environment
JVM: OpenJDK 64-Bit Server VM
Default Encoding: UTF-8
Language: gl
Country: ES
--></g></svg>