<?xml version="1.0" encoding="UTF-8" standalone="no"?><svg xmlns="http://www.w3.org/2000/svg" xmlns:xlink="http://www.w3.org/1999/xlink" contentScriptType="application/ecmascript" contentStyleType="text/css" height="322px" preserveAspectRatio="none" style="width:467px;height:322px;background:#FFFFFF;" version="1.1" viewBox="0 0 467 322" width="467px" zoomAndPan="magnify"><defs><filter height="300%" id="f1q4831blrte2b" width="300%" x="-1" y="-1"><feGaussianBlur result="blurOut" stdDeviation="2.0"/><feColorMatrix in="blurOut" result="blurOut2" type="matrix" values="0 0 0 0 0 0 0 0 0 0 0 0 0 0 0 0 0 0 .4 0"/><feOffset dx="4.0" dy="4.0" in="blurOut2" result="blurOut3"/><feBlend in="SourceGraphic" in2="blurOut3" mode="normal"/></filter></defs><g><!--MD5=[9eed6f30420dc69e0ac6fbeeb75e52ff]
class Etapa--><rect codeLine="3" fill="#E0FFFF" filter="url(#f1q4831blrte2b)" height="176.0469" id="Etapa" style="stroke:#00FFFF;stroke-width:1.5;" width="143" x="86.5" y="7"/><ellipse cx="135.25" cy="23" fill="#ADD1B2" rx="11" ry="11" style="stroke:#00FFFF;stroke-width:1.0;"/><path d="M138.2188,28.6406 Q137.6406,28.9375 137,29.0781 Q136.3594,29.2344 135.6563,29.2344 Q133.1563,29.2344 131.8281,27.5938 Q130.5156,25.9375 130.5156,22.8125 Q130.5156,19.6875 131.8281,18.0313 Q133.1563,16.375 135.6563,16.375 Q136.3594,16.375 137,16.5313 Q137.6563,16.6875 138.2188,16.9844 L138.2188,19.7031 Q137.5938,19.125 137,18.8594 Q136.4063,18.5781 135.7813,18.5781 Q134.4375,18.5781 133.75,19.6563 Q133.0625,20.7188 133.0625,22.8125 Q133.0625,24.9063 133.75,25.9844 Q134.4375,27.0469 135.7813,27.0469 Q136.4063,27.0469 137,26.7813 Q137.5938,26.5 138.2188,25.9219 L138.2188,28.6406 Z " fill="#000000"/><text fill="#000000" font-family="sans-serif" font-size="12" lengthAdjust="spacing" textLength="37" x="155.75" y="27.1543">Etapa</text><line style="stroke:#00FFFF;stroke-width:1.5;" x1="87.5" x2="228.5" y1="39" y2="39"/><text fill="#000000" font-family="sans-serif" font-size="11" lengthAdjust="spacing" textLength="78" x="92.5" y="53.2104">data_ini: Date</text><text fill="#000000" font-family="sans-serif" font-size="11" lengthAdjust="spacing" textLength="79" x="92.5" y="66.0151">data_fin: Date</text><text fill="#000000" font-family="sans-serif" font-size="11" lengthAdjust="spacing" textLength="130" x="92.5" y="78.8198">data_ini_prevista: Date</text><text fill="#000000" font-family="sans-serif" font-size="11" lengthAdjust="spacing" textLength="131" x="92.5" y="91.6245">data_fin_prevista: Date</text><text fill="#000000" font-family="sans-serif" font-size="11" lengthAdjust="spacing" textLength="0" x="96.5" y="104.4292"/><text fill="#000000" font-family="sans-serif" font-size="11" lengthAdjust="spacing" textLength="73" x="92.5" y="117.2339">nome: string</text><text fill="#000000" font-family="sans-serif" font-size="11" lengthAdjust="spacing" textLength="99" x="92.5" y="130.0386">descricion: string</text><line style="stroke:#00FFFF;stroke-width:1.5;" x1="87.5" x2="228.5" y1="136.6328" y2="136.6328"/><text fill="#000000" font-family="sans-serif" font-size="11" lengthAdjust="spacing" textLength="44" x="92.5" y="150.8433">create()</text><text fill="#000000" font-family="sans-serif" font-size="11" lengthAdjust="spacing" textLength="47" x="92.5" y="163.6479">update()</text><text fill="#000000" font-family="sans-serif" font-size="11" lengthAdjust="spacing" textLength="43" x="92.5" y="176.4526">delete()</text><!--MD5=[d8933eb2ae217ae3c21bf6e2973c277f]
class Estado--><rect fill="#FEFECE" filter="url(#f1q4831blrte2b)" height="48" id="Estado" style="stroke:#A80036;stroke-width:1.5;" width="76" x="7" y="260"/><ellipse cx="22" cy="276" fill="#ADD1B2" rx="11" ry="11" style="stroke:#A80036;stroke-width:1.0;"/><path d="M24.9688,281.6406 Q24.3906,281.9375 23.75,282.0781 Q23.1094,282.2344 22.4063,282.2344 Q19.9063,282.2344 18.5781,280.5938 Q17.2656,278.9375 17.2656,275.8125 Q17.2656,272.6875 18.5781,271.0313 Q19.9063,269.375 22.4063,269.375 Q23.1094,269.375 23.75,269.5313 Q24.4063,269.6875 24.9688,269.9844 L24.9688,272.7031 Q24.3438,272.125 23.75,271.8594 Q23.1563,271.5781 22.5313,271.5781 Q21.1875,271.5781 20.5,272.6563 Q19.8125,273.7188 19.8125,275.8125 Q19.8125,277.9063 20.5,278.9844 Q21.1875,280.0469 22.5313,280.0469 Q23.1563,280.0469 23.75,279.7813 Q24.3438,279.5 24.9688,278.9219 L24.9688,281.6406 Z " fill="#000000"/><text fill="#000000" font-family="sans-serif" font-size="12" lengthAdjust="spacing" textLength="44" x="36" y="280.1543">Estado</text><line style="stroke:#A80036;stroke-width:1.5;" x1="8" x2="82" y1="292" y2="292"/><line style="stroke:#A80036;stroke-width:1.5;" x1="8" x2="82" y1="300" y2="300"/><!--MD5=[35a64b983c79880384a2fd9b61f0c24b]
class Usuario--><rect fill="#FEFECE" filter="url(#f1q4831blrte2b)" height="48" id="Usuario" style="stroke:#A80036;stroke-width:1.5;" width="80" x="118" y="260"/><ellipse cx="133" cy="276" fill="#ADD1B2" rx="11" ry="11" style="stroke:#A80036;stroke-width:1.0;"/><path d="M135.9688,281.6406 Q135.3906,281.9375 134.75,282.0781 Q134.1094,282.2344 133.4063,282.2344 Q130.9063,282.2344 129.5781,280.5938 Q128.2656,278.9375 128.2656,275.8125 Q128.2656,272.6875 129.5781,271.0313 Q130.9063,269.375 133.4063,269.375 Q134.1094,269.375 134.75,269.5313 Q135.4063,269.6875 135.9688,269.9844 L135.9688,272.7031 Q135.3438,272.125 134.75,271.8594 Q134.1563,271.5781 133.5313,271.5781 Q132.1875,271.5781 131.5,272.6563 Q130.8125,273.7188 130.8125,275.8125 Q130.8125,277.9063 131.5,278.9844 Q132.1875,280.0469 133.5313,280.0469 Q134.1563,280.0469 134.75,279.7813 Q135.3438,279.5 135.9688,278.9219 L135.9688,281.6406 Z " fill="#000000"/><text fill="#000000" font-family="sans-serif" font-size="12" lengthAdjust="spacing" textLength="48" x="147" y="280.1543">Usuario</text><line style="stroke:#A80036;stroke-width:1.5;" x1="119" x2="197" y1="292" y2="292"/><line style="stroke:#A80036;stroke-width:1.5;" x1="119" x2="197" y1="300" y2="300"/><!--MD5=[54736e807c59b9b647b6e830d606a429]
class Rol--><rect fill="#FEFECE" filter="url(#f1q4831blrte2b)" height="48" id="Rol" style="stroke:#A80036;stroke-width:1.5;" width="51" x="262.5" y="260"/><ellipse cx="277.5" cy="276" fill="#ADD1B2" rx="11" ry="11" style="stroke:#A80036;stroke-width:1.0;"/><path d="M280.4688,281.6406 Q279.8906,281.9375 279.25,282.0781 Q278.6094,282.2344 277.9063,282.2344 Q275.4063,282.2344 274.0781,280.5938 Q272.7656,278.9375 272.7656,275.8125 Q272.7656,272.6875 274.0781,271.0313 Q275.4063,269.375 277.9063,269.375 Q278.6094,269.375 279.25,269.5313 Q279.9063,269.6875 280.4688,269.9844 L280.4688,272.7031 Q279.8438,272.125 279.25,271.8594 Q278.6563,271.5781 278.0313,271.5781 Q276.6875,271.5781 276,272.6563 Q275.3125,273.7188 275.3125,275.8125 Q275.3125,277.9063 276,278.9844 Q276.6875,280.0469 278.0313,280.0469 Q278.6563,280.0469 279.25,279.7813 Q279.8438,279.5 280.4688,278.9219 L280.4688,281.6406 Z " fill="#000000"/><text fill="#000000" font-family="sans-serif" font-size="12" lengthAdjust="spacing" textLength="19" x="291.5" y="280.1543">Rol</text><line style="stroke:#A80036;stroke-width:1.5;" x1="263.5" x2="312.5" y1="292" y2="292"/><line style="stroke:#A80036;stroke-width:1.5;" x1="263.5" x2="312.5" y1="300" y2="300"/><!--MD5=[92bd6e401080a2853674e2906bfd22c8]
class Comentario--><rect fill="#FEFECE" filter="url(#f1q4831blrte2b)" height="48" id="Comentario" style="stroke:#A80036;stroke-width:1.5;" width="104" x="349" y="260"/><ellipse cx="364" cy="276" fill="#ADD1B2" rx="11" ry="11" style="stroke:#A80036;stroke-width:1.0;"/><path d="M366.9688,281.6406 Q366.3906,281.9375 365.75,282.0781 Q365.1094,282.2344 364.4063,282.2344 Q361.9063,282.2344 360.5781,280.5938 Q359.2656,278.9375 359.2656,275.8125 Q359.2656,272.6875 360.5781,271.0313 Q361.9063,269.375 364.4063,269.375 Q365.1094,269.375 365.75,269.5313 Q366.4063,269.6875 366.9688,269.9844 L366.9688,272.7031 Q366.3438,272.125 365.75,271.8594 Q365.1563,271.5781 364.5313,271.5781 Q363.1875,271.5781 362.5,272.6563 Q361.8125,273.7188 361.8125,275.8125 Q361.8125,277.9063 362.5,278.9844 Q363.1875,280.0469 364.5313,280.0469 Q365.1563,280.0469 365.75,279.7813 Q366.3438,279.5 366.9688,278.9219 L366.9688,281.6406 Z " fill="#000000"/><text fill="#000000" font-family="sans-serif" font-size="12" lengthAdjust="spacing" textLength="72" x="378" y="280.1543">Comentario</text><line style="stroke:#A80036;stroke-width:1.5;" x1="350" x2="452" y1="292" y2="292"/><line style="stroke:#A80036;stroke-width:1.5;" x1="350" x2="452" y1="300" y2="300"/><!--MD5=[7cbc234c1cff33596c5d0317d753a01e]
link Etapa to Estado--><path codeLine="19" d="M105.3,183.2 C88.27,211.39 70.78,240.34 59.05,259.75 " fill="none" id="Etapa-Estado" style="stroke:#006400;stroke-width:1.0;"/><!--MD5=[88b7e56a5d43dab875591fd5403f1cc1]
link Etapa to Usuario--><path codeLine="20" d="M120.16,183.12 C117.45,198.78 117.36,214.92 122,230 C125.27,240.63 131.48,251.04 137.83,259.79 " fill="none" id="Etapa-Usuario" style="stroke:#0000FF;stroke-width:1.0;"/><text fill="#000000" font-family="sans-serif" font-size="13" lengthAdjust="spacing" textLength="23" x="93.074" y="203.109">1..*</text><!--MD5=[88b7e56a5d43dab875591fd5403f1cc1]
link Etapa to Usuario--><path codeLine="21" d="M154.77,183.22 C154.56,198.8 154.57,214.88 155,230 C155.28,239.77 155.84,250.53 156.4,259.79 " fill="none" id="Etapa-Usuario-1" style="stroke:#0000FF;stroke-width:1.0;"/><polygon fill="#000000" points="159.8936,216.5675,157.1478,225.6731,163.0244,225.548,159.8936,216.5675" style="stroke:#000000;stroke-width:1.0;"/><text fill="#000000" font-family="sans-serif" font-size="13" lengthAdjust="spacing" textLength="75" x="169" y="226.0669">Validadores</text><text fill="#000000" font-family="sans-serif" font-size="13" lengthAdjust="spacing" textLength="23" x="130.5502" y="203.2173">0..*</text><!--MD5=[cbdbd39cd9dda492192af3cfe111be69]
link Etapa to Rol--><path codeLine="22" d="M228.05,183.1 C235.34,193.03 242.47,203.13 249,213 C258.98,228.08 268.88,245.9 276.21,259.78 " fill="none" id="Etapa-Rol" style="stroke:#00008B;stroke-width:1.0;"/><polygon fill="#000000" points="262.3407,217.3323,264.6627,226.555,269.6402,223.4288,262.3407,217.3323" style="stroke:#000000;stroke-width:1.0;"/><text fill="#000000" font-family="sans-serif" font-size="13" lengthAdjust="spacing" textLength="66" x="274" y="226.0669">Asignados</text><text fill="#000000" font-family="sans-serif" font-size="13" lengthAdjust="spacing" textLength="23" x="209.8987" y="203.0873">1..*</text><!--MD5=[2e4b8cb3123939586a65ed436cc77611]
link Etapa to Comentario--><path codeLine="23" d="M229.59,131.29 C267.49,151.99 313.42,180.46 349,213 C363.97,226.69 377.52,245.23 387.03,259.79 " fill="none" id="Etapa-Comentario" style="stroke:#000000;stroke-width:1.0;"/><text fill="#000000" font-family="sans-serif" font-size="13" lengthAdjust="spacing" textLength="23" x="237.5095" y="131.105">0..*</text><!--MD5=[df7d598bc0e592ad43473d4f40c932a2]
@startuml Etapa

!startsub PARCIAL
    class Etapa #LightCyan ##Cyan {
        ' Propiedades
        {field} data_ini: Date
        {field} data_fin: Date
        {field} data_ini_prevista: Date
        {field} data_fin_prevista: Date

        {field} nome: string
        {field} descricion: string

        ' Métodos
        {method} create()
        {method} update()
        {method} delete()
    }

    Etapa - - Estado #DarkGreen
    Etapa "1..*" - - Usuario #Blue
    Etapa "0..*" - - Usuario #Blue : Validadores <
    Etapa "1..*" - - Rol #DarkBlue : Asignados <
    Etapa "0..*" - - Comentario #Black
!endsub

@enduml

@startuml Etapa

    class Etapa #LightCyan ##Cyan {
        {field} data_ini: Date
        {field} data_fin: Date
        {field} data_ini_prevista: Date
        {field} data_fin_prevista: Date

        {field} nome: string
        {field} descricion: string

        {method} create()
        {method} update()
        {method} delete()
    }

    Etapa - - Estado #DarkGreen
    Etapa "1..*" - - Usuario #Blue
    Etapa "0..*" - - Usuario #Blue : Validadores <
    Etapa "1..*" - - Rol #DarkBlue : Asignados <
    Etapa "0..*" - - Comentario #Black

@enduml

PlantUML version 1.2021.7(Sun May 23 14:40:07 CEST 2021)
(GPL source distribution)
Java Runtime: OpenJDK Runtime Environment
JVM: OpenJDK 64-Bit Server VM
Default Encoding: UTF-8
Language: gl
Country: ES
--></g></svg>