<?xml version="1.0" encoding="UTF-8" standalone="no"?><svg xmlns="http://www.w3.org/2000/svg" xmlns:xlink="http://www.w3.org/1999/xlink" contentScriptType="application/ecmascript" contentStyleType="text/css" height="335px" preserveAspectRatio="none" style="width:1172px;height:335px;background:#FFFFFF;" version="1.1" viewBox="0 0 1172 335" width="1172px" zoomAndPan="magnify"><defs><filter height="300%" id="fterpuo9swsj9" width="300%" x="-1" y="-1"><feGaussianBlur result="blurOut" stdDeviation="2.0"/><feColorMatrix in="blurOut" result="blurOut2" type="matrix" values="0 0 0 0 0 0 0 0 0 0 0 0 0 0 0 0 0 0 .4 0"/><feOffset dx="4.0" dy="4.0" in="blurOut2" result="blurOut3"/><feBlend in="SourceGraphic" in2="blurOut3" mode="normal"/></filter></defs><g><!--MD5=[b1768058180f0e775b56ef5284ab8237]
class HistoriaProduto--><rect codeLine="3" fill="#F0E68C" filter="url(#fterpuo9swsj9)" height="188.8516" id="HistoriaProduto" style="stroke:#BDB76B;stroke-width:1.5;" width="143" x="442.5" y="7"/><ellipse cx="463.35" cy="23" fill="#ADD1B2" rx="11" ry="11" style="stroke:#BDB76B;stroke-width:1.0;"/><path d="M466.3188,28.6406 Q465.7406,28.9375 465.1,29.0781 Q464.4594,29.2344 463.7563,29.2344 Q461.2563,29.2344 459.9281,27.5938 Q458.6156,25.9375 458.6156,22.8125 Q458.6156,19.6875 459.9281,18.0313 Q461.2563,16.375 463.7563,16.375 Q464.4594,16.375 465.1,16.5313 Q465.7563,16.6875 466.3188,16.9844 L466.3188,19.7031 Q465.6938,19.125 465.1,18.8594 Q464.5063,18.5781 463.8813,18.5781 Q462.5375,18.5781 461.85,19.6563 Q461.1625,20.7188 461.1625,22.8125 Q461.1625,24.9063 461.85,25.9844 Q462.5375,27.0469 463.8813,27.0469 Q464.5063,27.0469 465.1,26.7813 Q465.6938,26.5 466.3188,25.9219 L466.3188,28.6406 Z " fill="#000000"/><text fill="#000000" font-family="sans-serif" font-size="12" lengthAdjust="spacing" textLength="98" x="478.65" y="27.1543">HistoriaProduto</text><line style="stroke:#BDB76B;stroke-width:1.5;" x1="443.5" x2="584.5" y1="39" y2="39"/><text fill="#000000" font-family="sans-serif" font-size="11" lengthAdjust="spacing" textLength="113" x="448.5" y="53.2104">data_creacion: Date</text><text fill="#000000" font-family="sans-serif" font-size="11" lengthAdjust="spacing" textLength="78" x="448.5" y="66.0151">data_ini: Date</text><text fill="#000000" font-family="sans-serif" font-size="11" lengthAdjust="spacing" textLength="79" x="448.5" y="78.8198">data_fin: Date</text><text fill="#000000" font-family="sans-serif" font-size="11" lengthAdjust="spacing" textLength="130" x="448.5" y="91.6245">data_ini_prevista: Date</text><text fill="#000000" font-family="sans-serif" font-size="11" lengthAdjust="spacing" textLength="131" x="448.5" y="104.4292">data_fin_prevista: Date</text><text fill="#000000" font-family="sans-serif" font-size="11" lengthAdjust="spacing" textLength="0" x="452.5" y="117.2339"/><text fill="#000000" font-family="sans-serif" font-size="11" lengthAdjust="spacing" textLength="73" x="448.5" y="130.0386">nome: string</text><text fill="#000000" font-family="sans-serif" font-size="11" lengthAdjust="spacing" textLength="99" x="448.5" y="142.8433">descricion: string</text><line style="stroke:#BDB76B;stroke-width:1.5;" x1="443.5" x2="584.5" y1="149.4375" y2="149.4375"/><text fill="#000000" font-family="sans-serif" font-size="11" lengthAdjust="spacing" textLength="44" x="448.5" y="163.6479">create()</text><text fill="#000000" font-family="sans-serif" font-size="11" lengthAdjust="spacing" textLength="47" x="448.5" y="176.4526">update()</text><text fill="#000000" font-family="sans-serif" font-size="11" lengthAdjust="spacing" textLength="43" x="448.5" y="189.2573">delete()</text><!--MD5=[35a64b983c79880384a2fd9b61f0c24b]
class Usuario--><rect fill="#FEFECE" filter="url(#fterpuo9swsj9)" height="48" id="Usuario" style="stroke:#A80036;stroke-width:1.5;" width="80" x="7" y="273"/><ellipse cx="22" cy="289" fill="#ADD1B2" rx="11" ry="11" style="stroke:#A80036;stroke-width:1.0;"/><path d="M24.9688,294.6406 Q24.3906,294.9375 23.75,295.0781 Q23.1094,295.2344 22.4063,295.2344 Q19.9063,295.2344 18.5781,293.5938 Q17.2656,291.9375 17.2656,288.8125 Q17.2656,285.6875 18.5781,284.0313 Q19.9063,282.375 22.4063,282.375 Q23.1094,282.375 23.75,282.5313 Q24.4063,282.6875 24.9688,282.9844 L24.9688,285.7031 Q24.3438,285.125 23.75,284.8594 Q23.1563,284.5781 22.5313,284.5781 Q21.1875,284.5781 20.5,285.6563 Q19.8125,286.7188 19.8125,288.8125 Q19.8125,290.9063 20.5,291.9844 Q21.1875,293.0469 22.5313,293.0469 Q23.1563,293.0469 23.75,292.7813 Q24.3438,292.5 24.9688,291.9219 L24.9688,294.6406 Z " fill="#000000"/><text fill="#000000" font-family="sans-serif" font-size="12" lengthAdjust="spacing" textLength="48" x="36" y="293.1543">Usuario</text><line style="stroke:#A80036;stroke-width:1.5;" x1="8" x2="86" y1="305" y2="305"/><line style="stroke:#A80036;stroke-width:1.5;" x1="8" x2="86" y1="313" y2="313"/><!--MD5=[d8933eb2ae217ae3c21bf6e2973c277f]
class Estado--><rect fill="#FEFECE" filter="url(#fterpuo9swsj9)" height="48" id="Estado" style="stroke:#A80036;stroke-width:1.5;" width="76" x="122" y="273"/><ellipse cx="137" cy="289" fill="#ADD1B2" rx="11" ry="11" style="stroke:#A80036;stroke-width:1.0;"/><path d="M139.9688,294.6406 Q139.3906,294.9375 138.75,295.0781 Q138.1094,295.2344 137.4063,295.2344 Q134.9063,295.2344 133.5781,293.5938 Q132.2656,291.9375 132.2656,288.8125 Q132.2656,285.6875 133.5781,284.0313 Q134.9063,282.375 137.4063,282.375 Q138.1094,282.375 138.75,282.5313 Q139.4063,282.6875 139.9688,282.9844 L139.9688,285.7031 Q139.3438,285.125 138.75,284.8594 Q138.1563,284.5781 137.5313,284.5781 Q136.1875,284.5781 135.5,285.6563 Q134.8125,286.7188 134.8125,288.8125 Q134.8125,290.9063 135.5,291.9844 Q136.1875,293.0469 137.5313,293.0469 Q138.1563,293.0469 138.75,292.7813 Q139.3438,292.5 139.9688,291.9219 L139.9688,294.6406 Z " fill="#000000"/><text fill="#000000" font-family="sans-serif" font-size="12" lengthAdjust="spacing" textLength="44" x="151" y="293.1543">Estado</text><line style="stroke:#A80036;stroke-width:1.5;" x1="123" x2="197" y1="305" y2="305"/><line style="stroke:#A80036;stroke-width:1.5;" x1="123" x2="197" y1="313" y2="313"/><!--MD5=[e015f67e4c3d46a0dbe4d49a17d1fc77]
class EstimacionTempo--><rect fill="#FEFECE" filter="url(#fterpuo9swsj9)" height="48" id="EstimacionTempo" style="stroke:#A80036;stroke-width:1.5;" width="142" x="233" y="273"/><ellipse cx="248" cy="289" fill="#ADD1B2" rx="11" ry="11" style="stroke:#A80036;stroke-width:1.0;"/><path d="M250.9688,294.6406 Q250.3906,294.9375 249.75,295.0781 Q249.1094,295.2344 248.4063,295.2344 Q245.9063,295.2344 244.5781,293.5938 Q243.2656,291.9375 243.2656,288.8125 Q243.2656,285.6875 244.5781,284.0313 Q245.9063,282.375 248.4063,282.375 Q249.1094,282.375 249.75,282.5313 Q250.4063,282.6875 250.9688,282.9844 L250.9688,285.7031 Q250.3438,285.125 249.75,284.8594 Q249.1563,284.5781 248.5313,284.5781 Q247.1875,284.5781 246.5,285.6563 Q245.8125,286.7188 245.8125,288.8125 Q245.8125,290.9063 246.5,291.9844 Q247.1875,293.0469 248.5313,293.0469 Q249.1563,293.0469 249.75,292.7813 Q250.3438,292.5 250.9688,291.9219 L250.9688,294.6406 Z " fill="#000000"/><text fill="#000000" font-family="sans-serif" font-size="12" lengthAdjust="spacing" textLength="110" x="262" y="293.1543">EstimacionTempo</text><line style="stroke:#A80036;stroke-width:1.5;" x1="234" x2="374" y1="305" y2="305"/><line style="stroke:#A80036;stroke-width:1.5;" x1="234" x2="374" y1="313" y2="313"/><!--MD5=[707f6e11070e923409c8fe8b66df636b]
class Prioridade--><rect fill="#FEFECE" filter="url(#fterpuo9swsj9)" height="48" id="Prioridade" style="stroke:#A80036;stroke-width:1.5;" width="96" x="410" y="273"/><ellipse cx="425" cy="289" fill="#ADD1B2" rx="11" ry="11" style="stroke:#A80036;stroke-width:1.0;"/><path d="M427.9688,294.6406 Q427.3906,294.9375 426.75,295.0781 Q426.1094,295.2344 425.4063,295.2344 Q422.9063,295.2344 421.5781,293.5938 Q420.2656,291.9375 420.2656,288.8125 Q420.2656,285.6875 421.5781,284.0313 Q422.9063,282.375 425.4063,282.375 Q426.1094,282.375 426.75,282.5313 Q427.4063,282.6875 427.9688,282.9844 L427.9688,285.7031 Q427.3438,285.125 426.75,284.8594 Q426.1563,284.5781 425.5313,284.5781 Q424.1875,284.5781 423.5,285.6563 Q422.8125,286.7188 422.8125,288.8125 Q422.8125,290.9063 423.5,291.9844 Q424.1875,293.0469 425.5313,293.0469 Q426.1563,293.0469 426.75,292.7813 Q427.3438,292.5 427.9688,291.9219 L427.9688,294.6406 Z " fill="#000000"/><text fill="#000000" font-family="sans-serif" font-size="12" lengthAdjust="spacing" textLength="64" x="439" y="293.1543">Prioridade</text><line style="stroke:#A80036;stroke-width:1.5;" x1="411" x2="505" y1="305" y2="305"/><line style="stroke:#A80036;stroke-width:1.5;" x1="411" x2="505" y1="313" y2="313"/><!--MD5=[eb4e2a40f0d210208f14ea4a2d93f8ee]
class Tipo--><rect fill="#FEFECE" filter="url(#fterpuo9swsj9)" height="48" id="Tipo" style="stroke:#A80036;stroke-width:1.5;" width="58" x="541" y="273"/><ellipse cx="556" cy="289" fill="#ADD1B2" rx="11" ry="11" style="stroke:#A80036;stroke-width:1.0;"/><path d="M558.9688,294.6406 Q558.3906,294.9375 557.75,295.0781 Q557.1094,295.2344 556.4063,295.2344 Q553.9063,295.2344 552.5781,293.5938 Q551.2656,291.9375 551.2656,288.8125 Q551.2656,285.6875 552.5781,284.0313 Q553.9063,282.375 556.4063,282.375 Q557.1094,282.375 557.75,282.5313 Q558.4063,282.6875 558.9688,282.9844 L558.9688,285.7031 Q558.3438,285.125 557.75,284.8594 Q557.1563,284.5781 556.5313,284.5781 Q555.1875,284.5781 554.5,285.6563 Q553.8125,286.7188 553.8125,288.8125 Q553.8125,290.9063 554.5,291.9844 Q555.1875,293.0469 556.5313,293.0469 Q557.1563,293.0469 557.75,292.7813 Q558.3438,292.5 558.9688,291.9219 L558.9688,294.6406 Z " fill="#000000"/><text fill="#000000" font-family="sans-serif" font-size="12" lengthAdjust="spacing" textLength="26" x="570" y="293.1543">Tipo</text><line style="stroke:#A80036;stroke-width:1.5;" x1="542" x2="598" y1="305" y2="305"/><line style="stroke:#A80036;stroke-width:1.5;" x1="542" x2="598" y1="313" y2="313"/><!--MD5=[ee36d1ab244ec54fecbc07cfa322cb30]
class Repo--><rect fill="#FEFECE" filter="url(#fterpuo9swsj9)" height="48" id="Repo" style="stroke:#A80036;stroke-width:1.5;" width="64" x="634" y="273"/><ellipse cx="649" cy="289" fill="#ADD1B2" rx="11" ry="11" style="stroke:#A80036;stroke-width:1.0;"/><path d="M651.9688,294.6406 Q651.3906,294.9375 650.75,295.0781 Q650.1094,295.2344 649.4063,295.2344 Q646.9063,295.2344 645.5781,293.5938 Q644.2656,291.9375 644.2656,288.8125 Q644.2656,285.6875 645.5781,284.0313 Q646.9063,282.375 649.4063,282.375 Q650.1094,282.375 650.75,282.5313 Q651.4063,282.6875 651.9688,282.9844 L651.9688,285.7031 Q651.3438,285.125 650.75,284.8594 Q650.1563,284.5781 649.5313,284.5781 Q648.1875,284.5781 647.5,285.6563 Q646.8125,286.7188 646.8125,288.8125 Q646.8125,290.9063 647.5,291.9844 Q648.1875,293.0469 649.5313,293.0469 Q650.1563,293.0469 650.75,292.7813 Q651.3438,292.5 651.9688,291.9219 L651.9688,294.6406 Z " fill="#000000"/><text fill="#000000" font-family="sans-serif" font-size="12" lengthAdjust="spacing" textLength="32" x="663" y="293.1543">Repo</text><line style="stroke:#A80036;stroke-width:1.5;" x1="635" x2="697" y1="305" y2="305"/><line style="stroke:#A80036;stroke-width:1.5;" x1="635" x2="697" y1="313" y2="313"/><!--MD5=[54736e807c59b9b647b6e830d606a429]
class Rol--><rect fill="#FEFECE" filter="url(#fterpuo9swsj9)" height="48" id="Rol" style="stroke:#A80036;stroke-width:1.5;" width="51" x="733.5" y="273"/><ellipse cx="748.5" cy="289" fill="#ADD1B2" rx="11" ry="11" style="stroke:#A80036;stroke-width:1.0;"/><path d="M751.4688,294.6406 Q750.8906,294.9375 750.25,295.0781 Q749.6094,295.2344 748.9063,295.2344 Q746.4063,295.2344 745.0781,293.5938 Q743.7656,291.9375 743.7656,288.8125 Q743.7656,285.6875 745.0781,284.0313 Q746.4063,282.375 748.9063,282.375 Q749.6094,282.375 750.25,282.5313 Q750.9063,282.6875 751.4688,282.9844 L751.4688,285.7031 Q750.8438,285.125 750.25,284.8594 Q749.6563,284.5781 749.0313,284.5781 Q747.6875,284.5781 747,285.6563 Q746.3125,286.7188 746.3125,288.8125 Q746.3125,290.9063 747,291.9844 Q747.6875,293.0469 749.0313,293.0469 Q749.6563,293.0469 750.25,292.7813 Q750.8438,292.5 751.4688,291.9219 L751.4688,294.6406 Z " fill="#000000"/><text fill="#000000" font-family="sans-serif" font-size="12" lengthAdjust="spacing" textLength="19" x="762.5" y="293.1543">Rol</text><line style="stroke:#A80036;stroke-width:1.5;" x1="734.5" x2="783.5" y1="305" y2="305"/><line style="stroke:#A80036;stroke-width:1.5;" x1="734.5" x2="783.5" y1="313" y2="313"/><!--MD5=[92bd6e401080a2853674e2906bfd22c8]
class Comentario--><rect fill="#FEFECE" filter="url(#fterpuo9swsj9)" height="48" id="Comentario" style="stroke:#A80036;stroke-width:1.5;" width="104" x="820" y="273"/><ellipse cx="835" cy="289" fill="#ADD1B2" rx="11" ry="11" style="stroke:#A80036;stroke-width:1.0;"/><path d="M837.9688,294.6406 Q837.3906,294.9375 836.75,295.0781 Q836.1094,295.2344 835.4063,295.2344 Q832.9063,295.2344 831.5781,293.5938 Q830.2656,291.9375 830.2656,288.8125 Q830.2656,285.6875 831.5781,284.0313 Q832.9063,282.375 835.4063,282.375 Q836.1094,282.375 836.75,282.5313 Q837.4063,282.6875 837.9688,282.9844 L837.9688,285.7031 Q837.3438,285.125 836.75,284.8594 Q836.1563,284.5781 835.5313,284.5781 Q834.1875,284.5781 833.5,285.6563 Q832.8125,286.7188 832.8125,288.8125 Q832.8125,290.9063 833.5,291.9844 Q834.1875,293.0469 835.5313,293.0469 Q836.1563,293.0469 836.75,292.7813 Q837.3438,292.5 837.9688,291.9219 L837.9688,294.6406 Z " fill="#000000"/><text fill="#000000" font-family="sans-serif" font-size="12" lengthAdjust="spacing" textLength="72" x="849" y="293.1543">Comentario</text><line style="stroke:#A80036;stroke-width:1.5;" x1="821" x2="923" y1="305" y2="305"/><line style="stroke:#A80036;stroke-width:1.5;" x1="821" x2="923" y1="313" y2="313"/><!--MD5=[9eed6f30420dc69e0ac6fbeeb75e52ff]
class Etapa--><rect fill="#FEFECE" filter="url(#fterpuo9swsj9)" height="48" id="Etapa" style="stroke:#A80036;stroke-width:1.5;" width="69" x="959.5" y="273"/><ellipse cx="974.5" cy="289" fill="#ADD1B2" rx="11" ry="11" style="stroke:#A80036;stroke-width:1.0;"/><path d="M977.4688,294.6406 Q976.8906,294.9375 976.25,295.0781 Q975.6094,295.2344 974.9063,295.2344 Q972.4063,295.2344 971.0781,293.5938 Q969.7656,291.9375 969.7656,288.8125 Q969.7656,285.6875 971.0781,284.0313 Q972.4063,282.375 974.9063,282.375 Q975.6094,282.375 976.25,282.5313 Q976.9063,282.6875 977.4688,282.9844 L977.4688,285.7031 Q976.8438,285.125 976.25,284.8594 Q975.6563,284.5781 975.0313,284.5781 Q973.6875,284.5781 973,285.6563 Q972.3125,286.7188 972.3125,288.8125 Q972.3125,290.9063 973,291.9844 Q973.6875,293.0469 975.0313,293.0469 Q975.6563,293.0469 976.25,292.7813 Q976.8438,292.5 977.4688,291.9219 L977.4688,294.6406 Z " fill="#000000"/><text fill="#000000" font-family="sans-serif" font-size="12" lengthAdjust="spacing" textLength="37" x="988.5" y="293.1543">Etapa</text><line style="stroke:#A80036;stroke-width:1.5;" x1="960.5" x2="1027.5" y1="305" y2="305"/><line style="stroke:#A80036;stroke-width:1.5;" x1="960.5" x2="1027.5" y1="313" y2="313"/><!--MD5=[b6100adaa7f22219254d04d731adf080]
class Actuacion--><rect fill="#FEFECE" filter="url(#fterpuo9swsj9)" height="48" id="Actuacion" style="stroke:#A80036;stroke-width:1.5;" width="94" x="1064" y="273"/><ellipse cx="1079" cy="289" fill="#ADD1B2" rx="11" ry="11" style="stroke:#A80036;stroke-width:1.0;"/><path d="M1081.9688,294.6406 Q1081.3906,294.9375 1080.75,295.0781 Q1080.1094,295.2344 1079.4063,295.2344 Q1076.9063,295.2344 1075.5781,293.5938 Q1074.2656,291.9375 1074.2656,288.8125 Q1074.2656,285.6875 1075.5781,284.0313 Q1076.9063,282.375 1079.4063,282.375 Q1080.1094,282.375 1080.75,282.5313 Q1081.4063,282.6875 1081.9688,282.9844 L1081.9688,285.7031 Q1081.3438,285.125 1080.75,284.8594 Q1080.1563,284.5781 1079.5313,284.5781 Q1078.1875,284.5781 1077.5,285.6563 Q1076.8125,286.7188 1076.8125,288.8125 Q1076.8125,290.9063 1077.5,291.9844 Q1078.1875,293.0469 1079.5313,293.0469 Q1080.1563,293.0469 1080.75,292.7813 Q1081.3438,292.5 1081.9688,291.9219 L1081.9688,294.6406 Z " fill="#000000"/><text fill="#000000" font-family="sans-serif" font-size="12" lengthAdjust="spacing" textLength="62" x="1093" y="293.1543">Actuacion</text><line style="stroke:#A80036;stroke-width:1.5;" x1="1065" x2="1157" y1="305" y2="305"/><line style="stroke:#A80036;stroke-width:1.5;" x1="1065" x2="1157" y1="313" y2="313"/><!--MD5=[fe2e10d154eef5a9541206aecc976473]
link HistoriaProduto to Usuario--><path codeLine="20" d="M442.23,110.15 C320.13,124.81 80.28,161.28 30,226 C19.64,239.33 24.94,258.07 32.25,272.8 " fill="none" id="HistoriaProduto-Usuario" style="stroke:#0000FF;stroke-width:1.0;"/><text fill="#000000" font-family="sans-serif" font-size="13" lengthAdjust="spacing" textLength="49" x="31" y="239.0669">creador</text><!--MD5=[fe2e10d154eef5a9541206aecc976473]
link HistoriaProduto to Usuario--><path codeLine="26" d="M442.44,116.52 C362.45,134.18 230.78,169.27 129,226 C106.6,238.49 84.69,257.65 69.16,272.78 " fill="none" id="HistoriaProduto-Usuario-1" style="stroke:#0000FF;stroke-width:1.0;"/><text fill="#000000" font-family="sans-serif" font-size="13" lengthAdjust="spacing" textLength="23" x="411.5233" y="114.317">1..*</text><!--MD5=[fe2e10d154eef5a9541206aecc976473]
link HistoriaProduto to Usuario--><path codeLine="27" d="M442.35,123.7 C371.08,145.77 259.35,183.09 167,226 C137.58,239.67 105.95,258.3 82.55,272.9 " fill="none" id="HistoriaProduto-Usuario-2" style="stroke:#0000FF;stroke-width:1.0;"/><polygon fill="#000000" points="176.6186,232.6512,167.1377,233.4011,169.3892,238.8306,176.6186,232.6512" style="stroke:#000000;stroke-width:1.0;"/><text fill="#000000" font-family="sans-serif" font-size="13" lengthAdjust="spacing" textLength="75" x="181" y="239.0669">Validadores</text><text fill="#000000" font-family="sans-serif" font-size="13" lengthAdjust="spacing" textLength="23" x="411.4248" y="138.6111">0..*</text><!--MD5=[60982ea627039092374493f7c348053e]
link HistoriaProduto to Estado--><path codeLine="21" d="M442.36,141.66 C368.62,181.97 256.52,243.24 198.23,275.11 " fill="none" id="HistoriaProduto-Estado" style="stroke:#006400;stroke-width:1.0;"/><!--MD5=[45a3e8b2c13130d2d9df871469c2a85c]
link HistoriaProduto to EstimacionTempo--><path codeLine="22" d="M442.32,168.55 C403.11,204.68 356.98,247.18 329.14,272.83 " fill="none" id="HistoriaProduto-EstimacionTempo" style="stroke:#DAA520;stroke-width:1.0;"/><!--MD5=[5b37373ccb89c10f7883be2137c40973]
link HistoriaProduto to Prioridade--><path codeLine="23" d="M486.9,196.13 C478.64,224.69 470.27,253.6 464.68,272.92 " fill="none" id="HistoriaProduto-Prioridade" style="stroke:#FF1493;stroke-width:1.0;"/><!--MD5=[48c9004c5815747422d4ed3141db38f5]
link HistoriaProduto to Tipo--><path codeLine="24" d="M541.1,196.13 C549.36,224.69 557.73,253.6 563.32,272.92 " fill="none" id="HistoriaProduto-Tipo" style="stroke:#BC8F8F;stroke-width:1.0;"/><!--MD5=[9da3fd69078400a0a3b66155f4384041]
link HistoriaProduto to Repo--><path codeLine="25" d="M585.55,193.58 C608.65,222.99 632.3,253.1 647.92,272.99 " fill="none" id="HistoriaProduto-Repo" style="stroke:#FF4500;stroke-width:1.0;"/><text fill="#000000" font-family="sans-serif" font-size="13" lengthAdjust="spacing" textLength="23" x="593.4657" y="198.7218">0..*</text><!--MD5=[b83b8d04bb76402836ad8c061d08f410]
link HistoriaProduto to Rol--><path codeLine="28" d="M585.52,158.99 C635.24,198.25 698.59,248.29 733.33,275.73 " fill="none" id="HistoriaProduto-Rol" style="stroke:#00008B;stroke-width:1.0;"/><polygon fill="#000000" points="688.0762,231.4674,693.3529,239.3799,696.996,234.7672,688.0762,231.4674" style="stroke:#000000;stroke-width:1.0;"/><text fill="#000000" font-family="sans-serif" font-size="13" lengthAdjust="spacing" textLength="66" x="701" y="239.0669">Asignados</text><text fill="#000000" font-family="sans-serif" font-size="13" lengthAdjust="spacing" textLength="23" x="593.4328" y="160.835">1..*</text><!--MD5=[bcfb3d51766f4d97ff0b3145a81815d8]
link HistoriaProduto to Comentario--><path codeLine="29" d="M585.64,131.89 C639.38,154.96 714.04,189.26 776,226 C799.6,239.99 824.59,258.34 843.15,272.74 " fill="none" id="HistoriaProduto-Comentario" style="stroke:#000000;stroke-width:1.0;"/><text fill="#000000" font-family="sans-serif" font-size="13" lengthAdjust="spacing" textLength="23" x="593.5643" y="131.152">0..*</text><!--MD5=[d9e001aace0d987c93fe4a822f75b7e0]
link HistoriaProduto to Etapa--><path codeLine="30" d="M585.66,130.37 C670.7,163.61 816.65,221.21 941,273 C946.93,275.47 953.2,278.14 959.28,280.76 " fill="none" id="HistoriaProduto-Etapa" style="stroke:#A80036;stroke-width:1.0;"/><text fill="#000000" font-family="sans-serif" font-size="13" lengthAdjust="spacing" textLength="23" x="593.5862" y="145.9168">0..*</text><!--MD5=[4feb63834fecd81641939df06f746d12]
link HistoriaProduto to Actuacion--><path codeLine="31" d="M585.64,124.71 C688.02,156.62 881.95,217.7 1046,273 C1051.79,274.95 1057.84,277.04 1063.84,279.13 " fill="none" id="HistoriaProduto-Actuacion" style="stroke:#008000;stroke-width:1.0;"/><text fill="#000000" font-family="sans-serif" font-size="13" lengthAdjust="spacing" textLength="23" x="593.5643" y="123.2877">0..*</text><!--MD5=[6e18bc0cc4101996bb005c898c8ec5f0]
link HistoriaProduto to HistoriaProduto--><path codeLine="32" d="M585.68,76.9 C605.42,78.09 620.5,86.29 620.5,101.5 C620.5,116.71 605.42,124.91 585.68,126.1 " fill="none" id="HistoriaProduto-HistoriaProduto" style="stroke:#BDB76B;stroke-width:1.0;"/><text fill="#000000" font-family="sans-serif" font-size="13" lengthAdjust="spacing" textLength="91" x="626.5" y="106.0669">Dependencias</text><text fill="#000000" font-family="sans-serif" font-size="13" lengthAdjust="spacing" textLength="23" x="593.6081" y="70.9208">0..*</text><!--MD5=[7a80db87a2a759be7063609e8d70567a]
@startuml HistoriaProduto

!startsub PARCIAL
    class HistoriaProduto #Khaki ##DarkKhaki {
        ' Propiedades
        {field} data_creacion: Date
        {field} data_ini: Date
        {field} data_fin: Date
        {field} data_ini_prevista: Date
        {field} data_fin_prevista: Date

        {field} nome: string
        {field} descricion: string

        ' Métodos
        {method} create()
        {method} update()
        {method} delete()
    }

    HistoriaProduto - - Usuario #Blue : creador
    HistoriaProduto - - Estado #DarkGreen
    HistoriaProduto - - EstimacionTempo #GoldenRod
    HistoriaProduto - - Prioridade #DeepPink
    HistoriaProduto - - Tipo #RosyBrown
    HistoriaProduto "0..*" - - Repo #OrangeRed
    HistoriaProduto "1..*" - - Usuario #Blue
    HistoriaProduto "0..*" - - Usuario #Blue : Validadores <
    HistoriaProduto "1..*" - - Rol #DarkBlue : Asignados <
    HistoriaProduto "0..*" - - Comentario #Black
    HistoriaProduto "0..*" - - Etapa
    HistoriaProduto "0..*" - - Actuacion #Green
    HistoriaProduto "0..*" - - HistoriaProduto #DarkKhaki : Dependencias
!endsub

@enduml

@startuml HistoriaProduto

    class HistoriaProduto #Khaki ##DarkKhaki {
        {field} data_creacion: Date
        {field} data_ini: Date
        {field} data_fin: Date
        {field} data_ini_prevista: Date
        {field} data_fin_prevista: Date

        {field} nome: string
        {field} descricion: string

        {method} create()
        {method} update()
        {method} delete()
    }

    HistoriaProduto - - Usuario #Blue : creador
    HistoriaProduto - - Estado #DarkGreen
    HistoriaProduto - - EstimacionTempo #GoldenRod
    HistoriaProduto - - Prioridade #DeepPink
    HistoriaProduto - - Tipo #RosyBrown
    HistoriaProduto "0..*" - - Repo #OrangeRed
    HistoriaProduto "1..*" - - Usuario #Blue
    HistoriaProduto "0..*" - - Usuario #Blue : Validadores <
    HistoriaProduto "1..*" - - Rol #DarkBlue : Asignados <
    HistoriaProduto "0..*" - - Comentario #Black
    HistoriaProduto "0..*" - - Etapa
    HistoriaProduto "0..*" - - Actuacion #Green
    HistoriaProduto "0..*" - - HistoriaProduto #DarkKhaki : Dependencias

@enduml

PlantUML version 1.2021.7(Sun May 23 14:40:07 CEST 2021)
(GPL source distribution)
Java Runtime: OpenJDK Runtime Environment
JVM: OpenJDK 64-Bit Server VM
Default Encoding: UTF-8
Language: gl
Country: ES
--></g></svg>