<?xml version="1.0" encoding="UTF-8" standalone="no"?><svg xmlns="http://www.w3.org/2000/svg" xmlns:xlink="http://www.w3.org/1999/xlink" contentScriptType="application/ecmascript" contentStyleType="text/css" height="133px" preserveAspectRatio="none" style="width:132px;height:133px;background:#FFFFFF;" version="1.1" viewBox="0 0 132 133" width="132px" zoomAndPan="magnify"><defs><filter height="300%" id="fpvrmiltlwvbp" width="300%" x="-1" y="-1"><feGaussianBlur result="blurOut" stdDeviation="2.0"/><feColorMatrix in="blurOut" result="blurOut2" type="matrix" values="0 0 0 0 0 0 0 0 0 0 0 0 0 0 0 0 0 0 .4 0"/><feOffset dx="4.0" dy="4.0" in="blurOut2" result="blurOut3"/><feBlend in="SourceGraphic" in2="blurOut3" mode="normal"/></filter></defs><g><!--MD5=[707f6e11070e923409c8fe8b66df636b]
class Prioridade--><rect codeLine="3" fill="#FFB6C1" filter="url(#fpvrmiltlwvbp)" height="112.0234" id="Prioridade" style="stroke:#FF1493;stroke-width:1.5;" width="111" x="7" y="7"/><ellipse cx="28.75" cy="23" fill="#ADD1B2" rx="11" ry="11" style="stroke:#FF1493;stroke-width:1.0;"/><path d="M31.7188,28.6406 Q31.1406,28.9375 30.5,29.0781 Q29.8594,29.2344 29.1563,29.2344 Q26.6563,29.2344 25.3281,27.5938 Q24.0156,25.9375 24.0156,22.8125 Q24.0156,19.6875 25.3281,18.0313 Q26.6563,16.375 29.1563,16.375 Q29.8594,16.375 30.5,16.5313 Q31.1563,16.6875 31.7188,16.9844 L31.7188,19.7031 Q31.0938,19.125 30.5,18.8594 Q29.9063,18.5781 29.2813,18.5781 Q27.9375,18.5781 27.25,19.6563 Q26.5625,20.7188 26.5625,22.8125 Q26.5625,24.9063 27.25,25.9844 Q27.9375,27.0469 29.2813,27.0469 Q29.9063,27.0469 30.5,26.7813 Q31.0938,26.5 31.7188,25.9219 L31.7188,28.6406 Z " fill="#000000"/><text fill="#000000" font-family="sans-serif" font-size="12" lengthAdjust="spacing" textLength="64" x="44.25" y="27.1543">Prioridade</text><line style="stroke:#FF1493;stroke-width:1.5;" x1="8" x2="117" y1="39" y2="39"/><text fill="#000000" font-family="sans-serif" font-size="11" lengthAdjust="spacing" textLength="73" x="13" y="53.2104">nome: string</text><text fill="#000000" font-family="sans-serif" font-size="11" lengthAdjust="spacing" textLength="99" x="13" y="66.0151">descricion: string</text><line style="stroke:#FF1493;stroke-width:1.5;" x1="8" x2="117" y1="72.6094" y2="72.6094"/><text fill="#000000" font-family="sans-serif" font-size="11" lengthAdjust="spacing" textLength="44" x="13" y="86.8198">create()</text><text fill="#000000" font-family="sans-serif" font-size="11" lengthAdjust="spacing" textLength="47" x="13" y="99.6245">update()</text><text fill="#000000" font-family="sans-serif" font-size="11" lengthAdjust="spacing" textLength="43" x="13" y="112.4292">delete()</text><!--MD5=[54220e3acd5a8c2a510192b48ef65816]
@startuml Prioridade

!startsub PARCIAL
    class Prioridade #LightPink ##DeepPink {
        ' Propiedades
        {field} nome: string
        {field} descricion: string

        ' Métodos
        {method} create()
        {method} update()
        {method} delete()
    }
!endsub

@enduml

@startuml Prioridade

    class Prioridade #LightPink ##DeepPink {
        {field} nome: string
        {field} descricion: string

        {method} create()
        {method} update()
        {method} delete()
    }

@enduml

PlantUML version 1.2021.7(Sun May 23 14:40:07 CEST 2021)
(GPL source distribution)
Java Runtime: OpenJDK Runtime Environment
JVM: OpenJDK 64-Bit Server VM
Default Encoding: UTF-8
Language: gl
Country: ES
--></g></svg>