<?xml version="1.0" encoding="UTF-8" standalone="no"?><svg xmlns="http://www.w3.org/2000/svg" xmlns:xlink="http://www.w3.org/1999/xlink" contentScriptType="application/ecmascript" contentStyleType="text/css" height="322px" preserveAspectRatio="none" style="width:835px;height:322px;background:#FFFFFF;" version="1.1" viewBox="0 0 835 322" width="835px" zoomAndPan="magnify"><defs><filter height="300%" id="fcrno4se1olnj" width="300%" x="-1" y="-1"><feGaussianBlur result="blurOut" stdDeviation="2.0"/><feColorMatrix in="blurOut" result="blurOut2" type="matrix" values="0 0 0 0 0 0 0 0 0 0 0 0 0 0 0 0 0 0 .4 0"/><feOffset dx="4.0" dy="4.0" in="blurOut2" result="blurOut3"/><feBlend in="SourceGraphic" in2="blurOut3" mode="normal"/></filter></defs><g><!--MD5=[32345aa32b72ffe596bfcbe794055f65]
class Proxecto--><rect codeLine="3" fill="#B0C4DE" filter="url(#fcrno4se1olnj)" height="176.0469" id="Proxecto" style="stroke:#4682B4;stroke-width:1.5;" width="143" x="246.5" y="7"/><ellipse cx="286.7" cy="23" fill="#ADD1B2" rx="11" ry="11" style="stroke:#4682B4;stroke-width:1.0;"/><path d="M289.6688,28.6406 Q289.0906,28.9375 288.45,29.0781 Q287.8094,29.2344 287.1063,29.2344 Q284.6063,29.2344 283.2781,27.5938 Q281.9656,25.9375 281.9656,22.8125 Q281.9656,19.6875 283.2781,18.0313 Q284.6063,16.375 287.1063,16.375 Q287.8094,16.375 288.45,16.5313 Q289.1063,16.6875 289.6688,16.9844 L289.6688,19.7031 Q289.0438,19.125 288.45,18.8594 Q287.8563,18.5781 287.2313,18.5781 Q285.8875,18.5781 285.2,19.6563 Q284.5125,20.7188 284.5125,22.8125 Q284.5125,24.9063 285.2,25.9844 Q285.8875,27.0469 287.2313,27.0469 Q287.8563,27.0469 288.45,26.7813 Q289.0438,26.5 289.6688,25.9219 L289.6688,28.6406 Z " fill="#000000"/><text fill="#000000" font-family="sans-serif" font-size="12" lengthAdjust="spacing" textLength="55" x="306.3" y="27.1543">Proxecto</text><line style="stroke:#4682B4;stroke-width:1.5;" x1="247.5" x2="388.5" y1="39" y2="39"/><text fill="#000000" font-family="sans-serif" font-size="11" lengthAdjust="spacing" textLength="78" x="252.5" y="53.2104">data_ini: Date</text><text fill="#000000" font-family="sans-serif" font-size="11" lengthAdjust="spacing" textLength="79" x="252.5" y="66.0151">data_fin: Date</text><text fill="#000000" font-family="sans-serif" font-size="11" lengthAdjust="spacing" textLength="130" x="252.5" y="78.8198">data_ini_prevista: Date</text><text fill="#000000" font-family="sans-serif" font-size="11" lengthAdjust="spacing" textLength="131" x="252.5" y="91.6245">data_fin_prevista: Date</text><text fill="#000000" font-family="sans-serif" font-size="11" lengthAdjust="spacing" textLength="0" x="256.5" y="104.4292"/><text fill="#000000" font-family="sans-serif" font-size="11" lengthAdjust="spacing" textLength="73" x="252.5" y="117.2339">nome: string</text><text fill="#000000" font-family="sans-serif" font-size="11" lengthAdjust="spacing" textLength="99" x="252.5" y="130.0386">descricion: string</text><line style="stroke:#4682B4;stroke-width:1.5;" x1="247.5" x2="388.5" y1="136.6328" y2="136.6328"/><text fill="#000000" font-family="sans-serif" font-size="11" lengthAdjust="spacing" textLength="44" x="252.5" y="150.8433">create()</text><text fill="#000000" font-family="sans-serif" font-size="11" lengthAdjust="spacing" textLength="47" x="252.5" y="163.6479">update()</text><text fill="#000000" font-family="sans-serif" font-size="11" lengthAdjust="spacing" textLength="43" x="252.5" y="176.4526">delete()</text><!--MD5=[d8933eb2ae217ae3c21bf6e2973c277f]
class Estado--><rect fill="#FEFECE" filter="url(#fcrno4se1olnj)" height="48" id="Estado" style="stroke:#A80036;stroke-width:1.5;" width="76" x="7" y="260"/><ellipse cx="22" cy="276" fill="#ADD1B2" rx="11" ry="11" style="stroke:#A80036;stroke-width:1.0;"/><path d="M24.9688,281.6406 Q24.3906,281.9375 23.75,282.0781 Q23.1094,282.2344 22.4063,282.2344 Q19.9063,282.2344 18.5781,280.5938 Q17.2656,278.9375 17.2656,275.8125 Q17.2656,272.6875 18.5781,271.0313 Q19.9063,269.375 22.4063,269.375 Q23.1094,269.375 23.75,269.5313 Q24.4063,269.6875 24.9688,269.9844 L24.9688,272.7031 Q24.3438,272.125 23.75,271.8594 Q23.1563,271.5781 22.5313,271.5781 Q21.1875,271.5781 20.5,272.6563 Q19.8125,273.7188 19.8125,275.8125 Q19.8125,277.9063 20.5,278.9844 Q21.1875,280.0469 22.5313,280.0469 Q23.1563,280.0469 23.75,279.7813 Q24.3438,279.5 24.9688,278.9219 L24.9688,281.6406 Z " fill="#000000"/><text fill="#000000" font-family="sans-serif" font-size="12" lengthAdjust="spacing" textLength="44" x="36" y="280.1543">Estado</text><line style="stroke:#A80036;stroke-width:1.5;" x1="8" x2="82" y1="292" y2="292"/><line style="stroke:#A80036;stroke-width:1.5;" x1="8" x2="82" y1="300" y2="300"/><!--MD5=[ee36d1ab244ec54fecbc07cfa322cb30]
class Repo--><rect fill="#FEFECE" filter="url(#fcrno4se1olnj)" height="48" id="Repo" style="stroke:#A80036;stroke-width:1.5;" width="64" x="118" y="260"/><ellipse cx="133" cy="276" fill="#ADD1B2" rx="11" ry="11" style="stroke:#A80036;stroke-width:1.0;"/><path d="M135.9688,281.6406 Q135.3906,281.9375 134.75,282.0781 Q134.1094,282.2344 133.4063,282.2344 Q130.9063,282.2344 129.5781,280.5938 Q128.2656,278.9375 128.2656,275.8125 Q128.2656,272.6875 129.5781,271.0313 Q130.9063,269.375 133.4063,269.375 Q134.1094,269.375 134.75,269.5313 Q135.4063,269.6875 135.9688,269.9844 L135.9688,272.7031 Q135.3438,272.125 134.75,271.8594 Q134.1563,271.5781 133.5313,271.5781 Q132.1875,271.5781 131.5,272.6563 Q130.8125,273.7188 130.8125,275.8125 Q130.8125,277.9063 131.5,278.9844 Q132.1875,280.0469 133.5313,280.0469 Q134.1563,280.0469 134.75,279.7813 Q135.3438,279.5 135.9688,278.9219 L135.9688,281.6406 Z " fill="#000000"/><text fill="#000000" font-family="sans-serif" font-size="12" lengthAdjust="spacing" textLength="32" x="147" y="280.1543">Repo</text><line style="stroke:#A80036;stroke-width:1.5;" x1="119" x2="181" y1="292" y2="292"/><line style="stroke:#A80036;stroke-width:1.5;" x1="119" x2="181" y1="300" y2="300"/><!--MD5=[35a64b983c79880384a2fd9b61f0c24b]
class Usuario--><rect fill="#FEFECE" filter="url(#fcrno4se1olnj)" height="48" id="Usuario" style="stroke:#A80036;stroke-width:1.5;" width="80" x="217" y="260"/><ellipse cx="232" cy="276" fill="#ADD1B2" rx="11" ry="11" style="stroke:#A80036;stroke-width:1.0;"/><path d="M234.9688,281.6406 Q234.3906,281.9375 233.75,282.0781 Q233.1094,282.2344 232.4063,282.2344 Q229.9063,282.2344 228.5781,280.5938 Q227.2656,278.9375 227.2656,275.8125 Q227.2656,272.6875 228.5781,271.0313 Q229.9063,269.375 232.4063,269.375 Q233.1094,269.375 233.75,269.5313 Q234.4063,269.6875 234.9688,269.9844 L234.9688,272.7031 Q234.3438,272.125 233.75,271.8594 Q233.1563,271.5781 232.5313,271.5781 Q231.1875,271.5781 230.5,272.6563 Q229.8125,273.7188 229.8125,275.8125 Q229.8125,277.9063 230.5,278.9844 Q231.1875,280.0469 232.5313,280.0469 Q233.1563,280.0469 233.75,279.7813 Q234.3438,279.5 234.9688,278.9219 L234.9688,281.6406 Z " fill="#000000"/><text fill="#000000" font-family="sans-serif" font-size="12" lengthAdjust="spacing" textLength="48" x="246" y="280.1543">Usuario</text><line style="stroke:#A80036;stroke-width:1.5;" x1="218" x2="296" y1="292" y2="292"/><line style="stroke:#A80036;stroke-width:1.5;" x1="218" x2="296" y1="300" y2="300"/><!--MD5=[54736e807c59b9b647b6e830d606a429]
class Rol--><rect fill="#FEFECE" filter="url(#fcrno4se1olnj)" height="48" id="Rol" style="stroke:#A80036;stroke-width:1.5;" width="51" x="357.5" y="260"/><ellipse cx="372.5" cy="276" fill="#ADD1B2" rx="11" ry="11" style="stroke:#A80036;stroke-width:1.0;"/><path d="M375.4688,281.6406 Q374.8906,281.9375 374.25,282.0781 Q373.6094,282.2344 372.9063,282.2344 Q370.4063,282.2344 369.0781,280.5938 Q367.7656,278.9375 367.7656,275.8125 Q367.7656,272.6875 369.0781,271.0313 Q370.4063,269.375 372.9063,269.375 Q373.6094,269.375 374.25,269.5313 Q374.9063,269.6875 375.4688,269.9844 L375.4688,272.7031 Q374.8438,272.125 374.25,271.8594 Q373.6563,271.5781 373.0313,271.5781 Q371.6875,271.5781 371,272.6563 Q370.3125,273.7188 370.3125,275.8125 Q370.3125,277.9063 371,278.9844 Q371.6875,280.0469 373.0313,280.0469 Q373.6563,280.0469 374.25,279.7813 Q374.8438,279.5 375.4688,278.9219 L375.4688,281.6406 Z " fill="#000000"/><text fill="#000000" font-family="sans-serif" font-size="12" lengthAdjust="spacing" textLength="19" x="386.5" y="280.1543">Rol</text><line style="stroke:#A80036;stroke-width:1.5;" x1="358.5" x2="407.5" y1="292" y2="292"/><line style="stroke:#A80036;stroke-width:1.5;" x1="358.5" x2="407.5" y1="300" y2="300"/><!--MD5=[9eed6f30420dc69e0ac6fbeeb75e52ff]
class Etapa--><rect fill="#FEFECE" filter="url(#fcrno4se1olnj)" height="48" id="Etapa" style="stroke:#A80036;stroke-width:1.5;" width="69" x="447.5" y="260"/><ellipse cx="462.5" cy="276" fill="#ADD1B2" rx="11" ry="11" style="stroke:#A80036;stroke-width:1.0;"/><path d="M465.4688,281.6406 Q464.8906,281.9375 464.25,282.0781 Q463.6094,282.2344 462.9063,282.2344 Q460.4063,282.2344 459.0781,280.5938 Q457.7656,278.9375 457.7656,275.8125 Q457.7656,272.6875 459.0781,271.0313 Q460.4063,269.375 462.9063,269.375 Q463.6094,269.375 464.25,269.5313 Q464.9063,269.6875 465.4688,269.9844 L465.4688,272.7031 Q464.8438,272.125 464.25,271.8594 Q463.6563,271.5781 463.0313,271.5781 Q461.6875,271.5781 461,272.6563 Q460.3125,273.7188 460.3125,275.8125 Q460.3125,277.9063 461,278.9844 Q461.6875,280.0469 463.0313,280.0469 Q463.6563,280.0469 464.25,279.7813 Q464.8438,279.5 465.4688,278.9219 L465.4688,281.6406 Z " fill="#000000"/><text fill="#000000" font-family="sans-serif" font-size="12" lengthAdjust="spacing" textLength="37" x="476.5" y="280.1543">Etapa</text><line style="stroke:#A80036;stroke-width:1.5;" x1="448.5" x2="515.5" y1="292" y2="292"/><line style="stroke:#A80036;stroke-width:1.5;" x1="448.5" x2="515.5" y1="300" y2="300"/><!--MD5=[b1768058180f0e775b56ef5284ab8237]
class HistoriaProduto--><rect fill="#FEFECE" filter="url(#fcrno4se1olnj)" height="48" id="HistoriaProduto" style="stroke:#A80036;stroke-width:1.5;" width="130" x="552" y="260"/><ellipse cx="567" cy="276" fill="#ADD1B2" rx="11" ry="11" style="stroke:#A80036;stroke-width:1.0;"/><path d="M569.9688,281.6406 Q569.3906,281.9375 568.75,282.0781 Q568.1094,282.2344 567.4063,282.2344 Q564.9063,282.2344 563.5781,280.5938 Q562.2656,278.9375 562.2656,275.8125 Q562.2656,272.6875 563.5781,271.0313 Q564.9063,269.375 567.4063,269.375 Q568.1094,269.375 568.75,269.5313 Q569.4063,269.6875 569.9688,269.9844 L569.9688,272.7031 Q569.3438,272.125 568.75,271.8594 Q568.1563,271.5781 567.5313,271.5781 Q566.1875,271.5781 565.5,272.6563 Q564.8125,273.7188 564.8125,275.8125 Q564.8125,277.9063 565.5,278.9844 Q566.1875,280.0469 567.5313,280.0469 Q568.1563,280.0469 568.75,279.7813 Q569.3438,279.5 569.9688,278.9219 L569.9688,281.6406 Z " fill="#000000"/><text fill="#000000" font-family="sans-serif" font-size="12" lengthAdjust="spacing" textLength="98" x="581" y="280.1543">HistoriaProduto</text><line style="stroke:#A80036;stroke-width:1.5;" x1="553" x2="681" y1="292" y2="292"/><line style="stroke:#A80036;stroke-width:1.5;" x1="553" x2="681" y1="300" y2="300"/><!--MD5=[92bd6e401080a2853674e2906bfd22c8]
class Comentario--><rect fill="#FEFECE" filter="url(#fcrno4se1olnj)" height="48" id="Comentario" style="stroke:#A80036;stroke-width:1.5;" width="104" x="717" y="260"/><ellipse cx="732" cy="276" fill="#ADD1B2" rx="11" ry="11" style="stroke:#A80036;stroke-width:1.0;"/><path d="M734.9688,281.6406 Q734.3906,281.9375 733.75,282.0781 Q733.1094,282.2344 732.4063,282.2344 Q729.9063,282.2344 728.5781,280.5938 Q727.2656,278.9375 727.2656,275.8125 Q727.2656,272.6875 728.5781,271.0313 Q729.9063,269.375 732.4063,269.375 Q733.1094,269.375 733.75,269.5313 Q734.4063,269.6875 734.9688,269.9844 L734.9688,272.7031 Q734.3438,272.125 733.75,271.8594 Q733.1563,271.5781 732.5313,271.5781 Q731.1875,271.5781 730.5,272.6563 Q729.8125,273.7188 729.8125,275.8125 Q729.8125,277.9063 730.5,278.9844 Q731.1875,280.0469 732.5313,280.0469 Q733.1563,280.0469 733.75,279.7813 Q734.3438,279.5 734.9688,278.9219 L734.9688,281.6406 Z " fill="#000000"/><text fill="#000000" font-family="sans-serif" font-size="12" lengthAdjust="spacing" textLength="72" x="746" y="280.1543">Comentario</text><line style="stroke:#A80036;stroke-width:1.5;" x1="718" x2="820" y1="292" y2="292"/><line style="stroke:#A80036;stroke-width:1.5;" x1="718" x2="820" y1="300" y2="300"/><!--MD5=[90715a4b0974f685c2e6471e64b81cff]
link Proxecto to Estado--><path codeLine="19" d="M246.27,145.13 C192.09,182.25 120.17,231.51 78.6,259.99 " fill="none" id="Proxecto-Estado" style="stroke:#006400;stroke-width:1.0;"/><!--MD5=[26b3393355f19051817972c7139a50ae]
link Proxecto to Repo--><path codeLine="20" d="M246.29,170.88 C233.39,184.75 220.18,199.21 208,213 C194.42,228.38 179.68,246.19 168.45,260 " fill="none" id="Proxecto-Repo" style="stroke:#FF4500;stroke-width:1.0;"/><text fill="#000000" font-family="sans-serif" font-size="13" lengthAdjust="spacing" textLength="23" x="215.6191" y="174.2546">0..*</text><!--MD5=[23a6252ed1cbb1166166279ed66a1fca]
link Proxecto to Usuario--><path codeLine="21" d="M246.4,163.02 C234.37,178.19 223.64,195.14 217,213 C210.85,229.53 220.45,246.75 231.78,259.97 " fill="none" id="Proxecto-Usuario" style="stroke:#0000FF;stroke-width:1.0;"/><text fill="#000000" font-family="sans-serif" font-size="13" lengthAdjust="spacing" textLength="23" x="215.4795" y="182.289">1..*</text><!--MD5=[23a6252ed1cbb1166166279ed66a1fca]
link Proxecto to Usuario--><path codeLine="22" d="M260.87,183.28 C256.46,193.01 252.69,203.02 250,213 C245.87,228.33 247.74,246.14 250.58,259.96 " fill="none" id="Proxecto-Usuario-1" style="stroke:#0000FF;stroke-width:1.0;"/><polygon fill="#000000" points="255.665,216.6108,251.5492,225.1847,257.3748,225.9664,255.665,216.6108" style="stroke:#000000;stroke-width:1.0;"/><text fill="#000000" font-family="sans-serif" font-size="13" lengthAdjust="spacing" textLength="75" x="264" y="226.0669">Validadores</text><text fill="#000000" font-family="sans-serif" font-size="13" lengthAdjust="spacing" textLength="23" x="232.401" y="202.9828">0..*</text><!--MD5=[6c48be1bc26f1398cb1249c281996a6b]
link Proxecto to Rol--><path codeLine="23" d="M348.31,183.2 C358.11,211.39 368.17,240.34 374.92,259.75 " fill="none" id="Proxecto-Rol" style="stroke:#00008B;stroke-width:1.0;"/><polygon fill="#000000" points="367.3583,216.8436,367.5522,226.3522,373.1042,224.4222,367.3583,216.8436" style="stroke:#000000;stroke-width:1.0;"/><text fill="#000000" font-family="sans-serif" font-size="13" lengthAdjust="spacing" textLength="66" x="378" y="226.0669">Asignados</text><text fill="#000000" font-family="sans-serif" font-size="13" lengthAdjust="spacing" textLength="23" x="326.8677" y="203.1956">1..*</text><!--MD5=[3f0b466314f44e491df46bbbbb787331]
link Proxecto to Etapa--><path codeLine="24" d="M389.53,147.39 C412,166.12 435.49,188.72 453,213 C463.23,227.19 470.66,245.53 475.44,259.88 " fill="none" id="Proxecto-Etapa" style="stroke:#4682B4;stroke-width:1.0;"/><text fill="#000000" font-family="sans-serif" font-size="13" lengthAdjust="spacing" textLength="23" x="397.4438" y="165.1693">0..*</text><!--MD5=[261e4b108b6ec0884c760ebc94b97ca8]
link Proxecto to HistoriaProduto--><path codeLine="25" d="M389.62,140.79 C449.57,178.28 532.7,230.28 580.05,259.89 " fill="none" id="Proxecto-HistoriaProduto" style="stroke:#BDB76B;stroke-width:1.0;"/><text fill="#000000" font-family="sans-serif" font-size="13" lengthAdjust="spacing" textLength="23" x="397.5424" y="141.5105">0..*</text><!--MD5=[3bc0e7923aae9fd3e5dd34004d33b85e]
link Proxecto to Comentario--><path codeLine="26" d="M389.96,125.84 C481.23,163.68 636.41,228.02 716.98,261.43 " fill="none" id="Proxecto-Comentario" style="stroke:#000000;stroke-width:1.0;"/><text fill="#000000" font-family="sans-serif" font-size="13" lengthAdjust="spacing" textLength="23" x="397.3932" y="124.9894">0..*</text><!--MD5=[538485da3ef606611502609d33289b08]
@startuml Proxecto

!startsub PARCIAL
    class Proxecto #LightSteelBlue ##SteelBlue {
        ' Propiedades
        {field} data_ini: Date
        {field} data_fin: Date
        {field} data_ini_prevista: Date
        {field} data_fin_prevista: Date

        {field} nome: string
        {field} descricion: string

        ' Métodos
        {method} create()
        {method} update()
        {method} delete()
    }

    Proxecto - - Estado #DarkGreen
    Proxecto "0..*" - - Repo #OrangeRed
    Proxecto "1..*" - - Usuario #Blue
    Proxecto "0..*" - - Usuario #Blue : Validadores <
    Proxecto "1..*" - - Rol #DarkBlue : Asignados <
    Proxecto "0..*" - - Etapa #SteelBlue
    Proxecto "0..*" - - HistoriaProduto #DarkKhaki
    Proxecto "0..*" - - Comentario #Black
!endsub

@enduml

@startuml Proxecto

    class Proxecto #LightSteelBlue ##SteelBlue {
        {field} data_ini: Date
        {field} data_fin: Date
        {field} data_ini_prevista: Date
        {field} data_fin_prevista: Date

        {field} nome: string
        {field} descricion: string

        {method} create()
        {method} update()
        {method} delete()
    }

    Proxecto - - Estado #DarkGreen
    Proxecto "0..*" - - Repo #OrangeRed
    Proxecto "1..*" - - Usuario #Blue
    Proxecto "0..*" - - Usuario #Blue : Validadores <
    Proxecto "1..*" - - Rol #DarkBlue : Asignados <
    Proxecto "0..*" - - Etapa #SteelBlue
    Proxecto "0..*" - - HistoriaProduto #DarkKhaki
    Proxecto "0..*" - - Comentario #Black

@enduml

PlantUML version 1.2021.7(Sun May 23 14:40:07 CEST 2021)
(GPL source distribution)
Java Runtime: OpenJDK Runtime Environment
JVM: OpenJDK 64-Bit Server VM
Default Encoding: UTF-8
Language: gl
Country: ES
--></g></svg>