<?xml version="1.0" encoding="UTF-8" standalone="no"?><svg xmlns="http://www.w3.org/2000/svg" xmlns:xlink="http://www.w3.org/1999/xlink" contentScriptType="application/ecmascript" contentStyleType="text/css" height="309px" preserveAspectRatio="none" style="width:224px;height:309px;background:#FFFFFF;" version="1.1" viewBox="0 0 224 309" width="224px" zoomAndPan="magnify"><defs><filter height="300%" id="fejyuj7ey5qrw" width="300%" x="-1" y="-1"><feGaussianBlur result="blurOut" stdDeviation="2.0"/><feColorMatrix in="blurOut" result="blurOut2" type="matrix" values="0 0 0 0 0 0 0 0 0 0 0 0 0 0 0 0 0 0 .4 0"/><feOffset dx="4.0" dy="4.0" in="blurOut2" result="blurOut3"/><feBlend in="SourceGraphic" in2="blurOut3" mode="normal"/></filter></defs><g><!--MD5=[ee36d1ab244ec54fecbc07cfa322cb30]
class Repo--><rect codeLine="3" fill="#F8F8FF" filter="url(#fejyuj7ey5qrw)" height="163.2422" id="Repo" style="stroke:#FF4500;stroke-width:1.5;" width="141" x="26.5" y="7"/><ellipse cx="76.75" cy="23" fill="#ADD1B2" rx="11" ry="11" style="stroke:#FF4500;stroke-width:1.0;"/><path d="M79.7188,28.6406 Q79.1406,28.9375 78.5,29.0781 Q77.8594,29.2344 77.1563,29.2344 Q74.6563,29.2344 73.3281,27.5938 Q72.0156,25.9375 72.0156,22.8125 Q72.0156,19.6875 73.3281,18.0313 Q74.6563,16.375 77.1563,16.375 Q77.8594,16.375 78.5,16.5313 Q79.1563,16.6875 79.7188,16.9844 L79.7188,19.7031 Q79.0938,19.125 78.5,18.8594 Q77.9063,18.5781 77.2813,18.5781 Q75.9375,18.5781 75.25,19.6563 Q74.5625,20.7188 74.5625,22.8125 Q74.5625,24.9063 75.25,25.9844 Q75.9375,27.0469 77.2813,27.0469 Q77.9063,27.0469 78.5,26.7813 Q79.0938,26.5 79.7188,25.9219 L79.7188,28.6406 Z " fill="#000000"/><text fill="#000000" font-family="sans-serif" font-size="12" lengthAdjust="spacing" textLength="32" x="97.25" y="27.1543">Repo</text><line style="stroke:#FF4500;stroke-width:1.5;" x1="27.5" x2="166.5" y1="39" y2="39"/><text fill="#000000" font-family="sans-serif" font-size="11" lengthAdjust="spacing" textLength="113" x="32.5" y="53.2104">data_creacion: Date</text><text fill="#000000" font-family="sans-serif" font-size="11" lengthAdjust="spacing" textLength="129" x="32.5" y="66.0151">data_expiracion?: Date</text><text fill="#000000" font-family="sans-serif" font-size="11" lengthAdjust="spacing" textLength="0" x="36.5" y="78.8198"/><text fill="#000000" font-family="sans-serif" font-size="11" lengthAdjust="spacing" textLength="73" x="32.5" y="91.6245">nome: string</text><text fill="#000000" font-family="sans-serif" font-size="11" lengthAdjust="spacing" textLength="99" x="32.5" y="104.4292">descricion: string</text><text fill="#000000" font-family="sans-serif" font-size="11" lengthAdjust="spacing" textLength="56" x="32.5" y="117.2339">uri: string</text><line style="stroke:#FF4500;stroke-width:1.5;" x1="27.5" x2="166.5" y1="123.8281" y2="123.8281"/><text fill="#000000" font-family="sans-serif" font-size="11" lengthAdjust="spacing" textLength="44" x="32.5" y="138.0386">create()</text><text fill="#000000" font-family="sans-serif" font-size="11" lengthAdjust="spacing" textLength="47" x="32.5" y="150.8433">update()</text><text fill="#000000" font-family="sans-serif" font-size="11" lengthAdjust="spacing" textLength="43" x="32.5" y="163.6479">delete()</text><!--MD5=[35a64b983c79880384a2fd9b61f0c24b]
class Usuario--><rect fill="#FEFECE" filter="url(#fejyuj7ey5qrw)" height="48" id="Usuario" style="stroke:#A80036;stroke-width:1.5;" width="80" x="7" y="247"/><ellipse cx="22" cy="263" fill="#ADD1B2" rx="11" ry="11" style="stroke:#A80036;stroke-width:1.0;"/><path d="M24.9688,268.6406 Q24.3906,268.9375 23.75,269.0781 Q23.1094,269.2344 22.4063,269.2344 Q19.9063,269.2344 18.5781,267.5938 Q17.2656,265.9375 17.2656,262.8125 Q17.2656,259.6875 18.5781,258.0313 Q19.9063,256.375 22.4063,256.375 Q23.1094,256.375 23.75,256.5313 Q24.4063,256.6875 24.9688,256.9844 L24.9688,259.7031 Q24.3438,259.125 23.75,258.8594 Q23.1563,258.5781 22.5313,258.5781 Q21.1875,258.5781 20.5,259.6563 Q19.8125,260.7188 19.8125,262.8125 Q19.8125,264.9063 20.5,265.9844 Q21.1875,267.0469 22.5313,267.0469 Q23.1563,267.0469 23.75,266.7813 Q24.3438,266.5 24.9688,265.9219 L24.9688,268.6406 Z " fill="#000000"/><text fill="#000000" font-family="sans-serif" font-size="12" lengthAdjust="spacing" textLength="48" x="36" y="267.1543">Usuario</text><line style="stroke:#A80036;stroke-width:1.5;" x1="8" x2="86" y1="279" y2="279"/><line style="stroke:#A80036;stroke-width:1.5;" x1="8" x2="86" y1="287" y2="287"/><!--MD5=[54736e807c59b9b647b6e830d606a429]
class Rol--><rect fill="#FEFECE" filter="url(#fejyuj7ey5qrw)" height="48" id="Rol" style="stroke:#A80036;stroke-width:1.5;" width="51" x="122.5" y="247"/><ellipse cx="137.5" cy="263" fill="#ADD1B2" rx="11" ry="11" style="stroke:#A80036;stroke-width:1.0;"/><path d="M140.4688,268.6406 Q139.8906,268.9375 139.25,269.0781 Q138.6094,269.2344 137.9063,269.2344 Q135.4063,269.2344 134.0781,267.5938 Q132.7656,265.9375 132.7656,262.8125 Q132.7656,259.6875 134.0781,258.0313 Q135.4063,256.375 137.9063,256.375 Q138.6094,256.375 139.25,256.5313 Q139.9063,256.6875 140.4688,256.9844 L140.4688,259.7031 Q139.8438,259.125 139.25,258.8594 Q138.6563,258.5781 138.0313,258.5781 Q136.6875,258.5781 136,259.6563 Q135.3125,260.7188 135.3125,262.8125 Q135.3125,264.9063 136,265.9844 Q136.6875,267.0469 138.0313,267.0469 Q138.6563,267.0469 139.25,266.7813 Q139.8438,266.5 140.4688,265.9219 L140.4688,268.6406 Z " fill="#000000"/><text fill="#000000" font-family="sans-serif" font-size="12" lengthAdjust="spacing" textLength="19" x="151.5" y="267.1543">Rol</text><line style="stroke:#A80036;stroke-width:1.5;" x1="123.5" x2="172.5" y1="279" y2="279"/><line style="stroke:#A80036;stroke-width:1.5;" x1="123.5" x2="172.5" y1="287" y2="287"/><!--MD5=[21ed850161bc8495dd8a7300c3f2a0f1]
link Repo to Usuario--><path codeLine="18" d="M60.83,170.02 C57.38,179.97 54.3,190.12 52,200 C48.43,215.31 47.19,232.96 46.84,246.71 " fill="none" id="Repo-Usuario" style="stroke:#0000FF;stroke-width:1.0;"/><text fill="#000000" font-family="sans-serif" font-size="13" lengthAdjust="spacing" textLength="51" x="53" y="213.0669">Creador</text><!--MD5=[32b0d08014dd2f9c4f42556826d9ebfd]
link Repo to Rol--><path codeLine="19" d="M119.81,170.25 C127.72,198.22 135.97,227.42 141.49,246.95 " fill="none" id="Repo-Rol" style="stroke:#00008B;stroke-width:1.0;"/><polygon fill="#000000" points="135.64,203.7549,135.2722,213.2584,140.9284,211.6596,135.64,203.7549" style="stroke:#000000;stroke-width:1.0;"/><text fill="#000000" font-family="sans-serif" font-size="13" lengthAdjust="spacing" textLength="70" x="146" y="213.0669">Visivilidade</text><text fill="#000000" font-family="sans-serif" font-size="13" lengthAdjust="spacing" textLength="23" x="97.8173" y="190.2609">1..*</text><!--MD5=[015e8e28f47c3f2f581be496e5739900]
@startuml Repo

!startsub PARCIAL
    class Repo #GhostWhite ##OrangeRed {
        ' Propiedades
        {field} data_creacion: Date
        {field} data_expiracion?: Date

        {field} nome: string
        {field} descricion: string
        {field} uri: string

        ' Métodos
        {method} create()
        {method} update()
        {method} delete()
    }

    Repo - - Usuario #Blue : Creador
    Repo "1..*" - - Rol #DarkBlue : Visivilidade <
!endsub

@enduml

@startuml Repo

    class Repo #GhostWhite ##OrangeRed {
        {field} data_creacion: Date
        {field} data_expiracion?: Date

        {field} nome: string
        {field} descricion: string
        {field} uri: string

        {method} create()
        {method} update()
        {method} delete()
    }

    Repo - - Usuario #Blue : Creador
    Repo "1..*" - - Rol #DarkBlue : Visivilidade <

@enduml

PlantUML version 1.2021.7(Sun May 23 14:40:07 CEST 2021)
(GPL source distribution)
Java Runtime: OpenJDK Runtime Environment
JVM: OpenJDK 64-Bit Server VM
Default Encoding: UTF-8
Language: gl
Country: ES
--></g></svg>