<?xml version="1.0" encoding="UTF-8" standalone="no"?><svg xmlns="http://www.w3.org/2000/svg" xmlns:xlink="http://www.w3.org/1999/xlink" contentScriptType="application/ecmascript" contentStyleType="text/css" height="226px" preserveAspectRatio="none" style="width:291px;height:226px;background:#FFFFFF;" version="1.1" viewBox="0 0 291 226" width="291px" zoomAndPan="magnify"><defs><filter height="300%" id="f1bstjh1kom4fa" width="300%" x="-1" y="-1"><feGaussianBlur result="blurOut" stdDeviation="2.0"/><feColorMatrix in="blurOut" result="blurOut2" type="matrix" values="0 0 0 0 0 0 0 0 0 0 0 0 0 0 0 0 0 0 .4 0"/><feOffset dx="4.0" dy="4.0" in="blurOut2" result="blurOut3"/><feBlend in="SourceGraphic" in2="blurOut3" mode="normal"/></filter></defs><g><!--MD5=[54736e807c59b9b647b6e830d606a429]
class Rol--><rect codeLine="3" fill="#ADD8E6" filter="url(#f1bstjh1kom4fa)" height="137.6328" id="Rol" style="stroke:#00008B;stroke-width:1.5;" width="127" x="7" y="48"/><ellipse cx="56.75" cy="64" fill="#ADD1B2" rx="11" ry="11" style="stroke:#00008B;stroke-width:1.0;"/><path d="M59.7188,69.6406 Q59.1406,69.9375 58.5,70.0781 Q57.8594,70.2344 57.1563,70.2344 Q54.6563,70.2344 53.3281,68.5938 Q52.0156,66.9375 52.0156,63.8125 Q52.0156,60.6875 53.3281,59.0313 Q54.6563,57.375 57.1563,57.375 Q57.8594,57.375 58.5,57.5313 Q59.1563,57.6875 59.7188,57.9844 L59.7188,60.7031 Q59.0938,60.125 58.5,59.8594 Q57.9063,59.5781 57.2813,59.5781 Q55.9375,59.5781 55.25,60.6563 Q54.5625,61.7188 54.5625,63.8125 Q54.5625,65.9063 55.25,66.9844 Q55.9375,68.0469 57.2813,68.0469 Q57.9063,68.0469 58.5,67.7813 Q59.0938,67.5 59.7188,66.9219 L59.7188,69.6406 Z " fill="#000000"/><text fill="#000000" font-family="sans-serif" font-size="12" lengthAdjust="spacing" textLength="19" x="77.25" y="68.1543">Rol</text><line style="stroke:#00008B;stroke-width:1.5;" x1="8" x2="133" y1="80" y2="80"/><text fill="#000000" font-family="sans-serif" font-size="11" lengthAdjust="spacing" textLength="73" x="13" y="94.2104">nome: string</text><text fill="#000000" font-family="sans-serif" font-size="11" lengthAdjust="spacing" textLength="99" x="13" y="107.0151">descricion: string</text><text fill="#000000" font-family="sans-serif" font-size="11" lengthAdjust="spacing" textLength="83" x="13" y="119.8198">alcance: enum</text><text fill="#000000" font-family="sans-serif" font-size="11" lengthAdjust="spacing" textLength="115" x="13" y="132.6245">permisos: boolean[]</text><line style="stroke:#00008B;stroke-width:1.5;" x1="8" x2="133" y1="139.2188" y2="139.2188"/><text fill="#000000" font-family="sans-serif" font-size="11" lengthAdjust="spacing" textLength="44" x="13" y="153.4292">create()</text><text fill="#000000" font-family="sans-serif" font-size="11" lengthAdjust="spacing" textLength="47" x="13" y="166.2339">update()</text><text fill="#000000" font-family="sans-serif" font-size="11" lengthAdjust="spacing" textLength="43" x="13" y="179.0386">delete()</text><path d="M169,6 L169,52.3984 L96,116.0117 L169,60.3984 L169,106.7969 A0,0 0 0 0 169,106.7969 L282,106.7969 A0,0 0 0 0 282,106.7969 L282,16 L272,6 L169,6 A0,0 0 0 0 169,6 " fill="#FBFB77" filter="url(#f1bstjh1kom4fa)" style="stroke:#A80036;stroke-width:1.0;"/><path d="M272,6 L272,16 L282,16 L272,6 " fill="#FBFB77" style="stroke:#A80036;stroke-width:1.0;"/><text fill="#000000" font-family="sans-serif" font-size="13" lengthAdjust="spacing" textLength="41" x="175" y="23.0669">emun:</text><text fill="#000000" font-family="sans-serif" font-size="13" lengthAdjust="spacing" textLength="60" x="191" y="38.1997">SISTEMA,</text><text fill="#000000" font-family="sans-serif" font-size="13" lengthAdjust="spacing" textLength="72" x="191" y="53.3325">PROXECTO,</text><text fill="#000000" font-family="sans-serif" font-size="13" lengthAdjust="spacing" textLength="45" x="191" y="68.4653">ETAPA,</text><text fill="#000000" font-family="sans-serif" font-size="13" lengthAdjust="spacing" textLength="63" x="191" y="83.5981">HISTORIA,</text><text fill="#000000" font-family="sans-serif" font-size="13" lengthAdjust="spacing" textLength="76" x="191" y="98.731">ACTUACION</text><path d="M169,116.7969 L169,163.1953 L128,128.8164 L169,171.1953 L169,217.5938 A0,0 0 0 0 169,217.5938 L255,217.5938 A0,0 0 0 0 255,217.5938 L255,126.7969 L245,116.7969 L169,116.7969 A0,0 0 0 0 169,116.7969 " fill="#FBFB77" filter="url(#f1bstjh1kom4fa)" style="stroke:#A80036;stroke-width:1.0;"/><path d="M245,116.7969 L245,126.7969 L255,126.7969 L245,116.7969 " fill="#FBFB77" style="stroke:#A80036;stroke-width:1.0;"/><text fill="#000000" font-family="sans-serif" font-size="13" lengthAdjust="spacing" textLength="5" x="175" y="133.8638">[</text><text fill="#000000" font-family="sans-serif" font-size="13" lengthAdjust="spacing" textLength="33" x="191" y="148.9966">read,</text><text fill="#000000" font-family="sans-serif" font-size="13" lengthAdjust="spacing" textLength="45" x="191" y="164.1294">create,</text><text fill="#000000" font-family="sans-serif" font-size="13" lengthAdjust="spacing" textLength="49" x="191" y="179.2622">update,</text><text fill="#000000" font-family="sans-serif" font-size="13" lengthAdjust="spacing" textLength="40" x="191" y="194.395">delete</text><text fill="#000000" font-family="sans-serif" font-size="13" lengthAdjust="spacing" textLength="5" x="175" y="209.5278">]</text><!--MD5=[0353708a68935ef491f9e23e8b673f8f]
link Rol to Rol$$$RIGHT--><!--MD5=[8e33371e578e4e244561f11626e32d02]
@startuml Rol

!startsub PARCIAL
    class Rol #LightBlue ##DarkBlue {
        ' Propiedades
        {field} nome: string
        {field} descricion: string
        {field} alcance: enum
        {field} permisos: boolean[]

        ' Métodos
        {method} create()
        {method} update()
        {method} delete()
    }
!endsub

!startsub NOTAS
    note right of Rol::alcance
        emun:
            SISTEMA,
            PROXECTO,
            ETAPA,
            HISTORIA,
            ACTUACION
    end note

    note right of Rol::permisos
        [
            read,
            create,
            update,
            delete
        ]
    end note
!endsub

@enduml

@startuml Rol

    class Rol #LightBlue ##DarkBlue {
        {field} nome: string
        {field} descricion: string
        {field} alcance: enum
        {field} permisos: boolean[]

        {method} create()
        {method} update()
        {method} delete()
    }

    note right of Rol::alcance
        emun:
            SISTEMA,
            PROXECTO,
            ETAPA,
            HISTORIA,
            ACTUACION
    end note

    note right of Rol::permisos
        [
            read,
            create,
            update,
            delete
        ]
    end note

@enduml

PlantUML version 1.2021.7(Sun May 23 14:40:07 CEST 2021)
(GPL source distribution)
Java Runtime: OpenJDK Runtime Environment
JVM: OpenJDK 64-Bit Server VM
Default Encoding: UTF-8
Language: gl
Country: ES
--></g></svg>