<?xml version="1.0" encoding="UTF-8" standalone="no"?><svg xmlns="http://www.w3.org/2000/svg" xmlns:xlink="http://www.w3.org/1999/xlink" contentScriptType="application/ecmascript" contentStyleType="text/css" height="133px" preserveAspectRatio="none" style="width:132px;height:133px;background:#FFFFFF;" version="1.1" viewBox="0 0 132 133" width="132px" zoomAndPan="magnify"><defs><filter height="300%" id="f1y1jhh2yjoy6x" width="300%" x="-1" y="-1"><feGaussianBlur result="blurOut" stdDeviation="2.0"/><feColorMatrix in="blurOut" result="blurOut2" type="matrix" values="0 0 0 0 0 0 0 0 0 0 0 0 0 0 0 0 0 0 .4 0"/><feOffset dx="4.0" dy="4.0" in="blurOut2" result="blurOut3"/><feBlend in="SourceGraphic" in2="blurOut3" mode="normal"/></filter></defs><g><!--MD5=[eb4e2a40f0d210208f14ea4a2d93f8ee]
class Tipo--><rect codeLine="3" fill="#F5DEB3" filter="url(#f1y1jhh2yjoy6x)" height="112.0234" id="Tipo" style="stroke:#BC8F8F;stroke-width:1.5;" width="111" x="7" y="7"/><ellipse cx="45.85" cy="23" fill="#ADD1B2" rx="11" ry="11" style="stroke:#BC8F8F;stroke-width:1.0;"/><path d="M48.8188,28.6406 Q48.2406,28.9375 47.6,29.0781 Q46.9594,29.2344 46.2563,29.2344 Q43.7563,29.2344 42.4281,27.5938 Q41.1156,25.9375 41.1156,22.8125 Q41.1156,19.6875 42.4281,18.0313 Q43.7563,16.375 46.2563,16.375 Q46.9594,16.375 47.6,16.5313 Q48.2563,16.6875 48.8188,16.9844 L48.8188,19.7031 Q48.1938,19.125 47.6,18.8594 Q47.0063,18.5781 46.3813,18.5781 Q45.0375,18.5781 44.35,19.6563 Q43.6625,20.7188 43.6625,22.8125 Q43.6625,24.9063 44.35,25.9844 Q45.0375,27.0469 46.3813,27.0469 Q47.0063,27.0469 47.6,26.7813 Q48.1938,26.5 48.8188,25.9219 L48.8188,28.6406 Z " fill="#000000"/><text fill="#000000" font-family="sans-serif" font-size="12" lengthAdjust="spacing" textLength="26" x="65.15" y="27.1543">Tipo</text><line style="stroke:#BC8F8F;stroke-width:1.5;" x1="8" x2="117" y1="39" y2="39"/><text fill="#000000" font-family="sans-serif" font-size="11" lengthAdjust="spacing" textLength="73" x="13" y="53.2104">nome: string</text><text fill="#000000" font-family="sans-serif" font-size="11" lengthAdjust="spacing" textLength="99" x="13" y="66.0151">descricion: string</text><line style="stroke:#BC8F8F;stroke-width:1.5;" x1="8" x2="117" y1="72.6094" y2="72.6094"/><text fill="#000000" font-family="sans-serif" font-size="11" lengthAdjust="spacing" textLength="44" x="13" y="86.8198">create()</text><text fill="#000000" font-family="sans-serif" font-size="11" lengthAdjust="spacing" textLength="47" x="13" y="99.6245">update()</text><text fill="#000000" font-family="sans-serif" font-size="11" lengthAdjust="spacing" textLength="43" x="13" y="112.4292">delete()</text><!--MD5=[dddbe3f2735bf780d28d037735f714f8]
@startuml Tipo

!startsub PARCIAL
    class Tipo #Wheat ##RosyBrown {
        ' Propiedades
        {field} nome: string
        {field} descricion: string

        ' Métodos
        {method} create()
        {method} update()
        {method} delete()
    }
!endsub

@enduml

@startuml Tipo

    class Tipo #Wheat ##RosyBrown {
        {field} nome: string
        {field} descricion: string

        {method} create()
        {method} update()
        {method} delete()
    }

@enduml

PlantUML version 1.2021.7(Sun May 23 14:40:07 CEST 2021)
(GPL source distribution)
Java Runtime: OpenJDK Runtime Environment
JVM: OpenJDK 64-Bit Server VM
Default Encoding: UTF-8
Language: gl
Country: ES
--></g></svg>