<?xml version="1.0" encoding="UTF-8" standalone="no"?><svg xmlns="http://www.w3.org/2000/svg" xmlns:xlink="http://www.w3.org/1999/xlink" contentScriptType="application/ecmascript" contentStyleType="text/css" height="318px" preserveAspectRatio="none" style="width:316px;height:318px;background:#FFFFFF;" version="1.1" viewBox="0 0 316 318" width="316px" zoomAndPan="magnify"><defs><filter height="300%" id="f16fyaruhhagdz" width="300%" x="-1" y="-1"><feGaussianBlur result="blurOut" stdDeviation="2.0"/><feColorMatrix in="blurOut" result="blurOut2" type="matrix" values="0 0 0 0 0 0 0 0 0 0 0 0 0 0 0 0 0 0 .4 0"/><feOffset dx="4.0" dy="4.0" in="blurOut2" result="blurOut3"/><feBlend in="SourceGraphic" in2="blurOut3" mode="normal"/></filter></defs><g><!--MD5=[35a64b983c79880384a2fd9b61f0c24b]
class Usuario--><rect codeLine="3" fill="#C2F0FF" filter="url(#f16fyaruhhagdz)" height="137.6328" id="Usuario" style="stroke:#0000FF;stroke-width:1.5;" width="103" x="113.5" y="7"/><ellipse cx="138.85" cy="23" fill="#ADD1B2" rx="11" ry="11" style="stroke:#0000FF;stroke-width:1.0;"/><path d="M141.8188,28.6406 Q141.2406,28.9375 140.6,29.0781 Q139.9594,29.2344 139.2563,29.2344 Q136.7563,29.2344 135.4281,27.5938 Q134.1156,25.9375 134.1156,22.8125 Q134.1156,19.6875 135.4281,18.0313 Q136.7563,16.375 139.2563,16.375 Q139.9594,16.375 140.6,16.5313 Q141.2563,16.6875 141.8188,16.9844 L141.8188,19.7031 Q141.1938,19.125 140.6,18.8594 Q140.0063,18.5781 139.3813,18.5781 Q138.0375,18.5781 137.35,19.6563 Q136.6625,20.7188 136.6625,22.8125 Q136.6625,24.9063 137.35,25.9844 Q138.0375,27.0469 139.3813,27.0469 Q140.0063,27.0469 140.6,26.7813 Q141.1938,26.5 141.8188,25.9219 L141.8188,28.6406 Z " fill="#000000"/><text fill="#000000" font-family="sans-serif" font-size="12" lengthAdjust="spacing" textLength="48" x="155.15" y="27.1543">Usuario</text><line style="stroke:#0000FF;stroke-width:1.5;" x1="114.5" x2="215.5" y1="39" y2="39"/><text fill="#000000" font-family="sans-serif" font-size="11" lengthAdjust="spacing" textLength="73" x="119.5" y="53.2104">nome: string</text><text fill="#000000" font-family="sans-serif" font-size="11" lengthAdjust="spacing" textLength="89" x="119.5" y="66.0151">apelido1: string</text><text fill="#000000" font-family="sans-serif" font-size="11" lengthAdjust="spacing" textLength="89" x="119.5" y="78.8198">apelido2: string</text><text fill="#000000" font-family="sans-serif" font-size="11" lengthAdjust="spacing" textLength="91" x="119.5" y="91.6245">salario: number</text><line style="stroke:#0000FF;stroke-width:1.5;" x1="114.5" x2="215.5" y1="98.2188" y2="98.2188"/><text fill="#000000" font-family="sans-serif" font-size="11" lengthAdjust="spacing" textLength="44" x="119.5" y="112.4292">create()</text><text fill="#000000" font-family="sans-serif" font-size="11" lengthAdjust="spacing" textLength="47" x="119.5" y="125.2339">update()</text><text fill="#000000" font-family="sans-serif" font-size="11" lengthAdjust="spacing" textLength="43" x="119.5" y="138.0386">delete()</text><!--MD5=[74438b4bcd0b343607a1e9b7af88b110]
class Horario--><rect codeLine="16" fill="#F0F8FF" filter="url(#f16fyaruhhagdz)" height="99.2188" id="Horario" style="stroke:#0000FF;stroke-width:1.5;" width="154" x="7" y="205"/><ellipse cx="56.75" cy="221" fill="#ADD1B2" rx="11" ry="11" style="stroke:#0000FF;stroke-width:1.0;"/><path d="M59.7188,226.6406 Q59.1406,226.9375 58.5,227.0781 Q57.8594,227.2344 57.1563,227.2344 Q54.6563,227.2344 53.3281,225.5938 Q52.0156,223.9375 52.0156,220.8125 Q52.0156,217.6875 53.3281,216.0313 Q54.6563,214.375 57.1563,214.375 Q57.8594,214.375 58.5,214.5313 Q59.1563,214.6875 59.7188,214.9844 L59.7188,217.7031 Q59.0938,217.125 58.5,216.8594 Q57.9063,216.5781 57.2813,216.5781 Q55.9375,216.5781 55.25,217.6563 Q54.5625,218.7188 54.5625,220.8125 Q54.5625,222.9063 55.25,223.9844 Q55.9375,225.0469 57.2813,225.0469 Q57.9063,225.0469 58.5,224.7813 Q59.0938,224.5 59.7188,223.9219 L59.7188,226.6406 Z " fill="#000000"/><text fill="#000000" font-family="sans-serif" font-size="12" lengthAdjust="spacing" textLength="46" x="77.25" y="225.1543">Horario</text><line style="stroke:#0000FF;stroke-width:1.5;" x1="8" x2="160" y1="237" y2="237"/><text fill="#000000" font-family="sans-serif" font-size="11" lengthAdjust="spacing" textLength="142" x="13" y="251.2104">horasSemanais: number</text><text fill="#000000" font-family="sans-serif" font-size="11" lengthAdjust="spacing" textLength="133" x="13" y="264.0151">traballaFindes: boolean</text><text fill="#000000" font-family="sans-serif" font-size="11" lengthAdjust="spacing" textLength="136" x="13" y="276.8198">horarioFlexible: boolean</text><text fill="#000000" font-family="sans-serif" font-size="11" lengthAdjust="spacing" textLength="87" x="13" y="289.6245">festivos: Date[]</text><line style="stroke:#0000FF;stroke-width:1.5;" x1="8" x2="160" y1="296.2188" y2="296.2188"/><!--MD5=[01da5049b90ccc3cbf20aa1a959f5ad7]
class Contacto--><rect codeLine="24" fill="#F0F8FF" filter="url(#f16fyaruhhagdz)" height="73.6094" id="Contacto" style="stroke:#0000FF;stroke-width:1.5;" width="101" x="196.5" y="217.5"/><ellipse cx="216.9" cy="233.5" fill="#ADD1B2" rx="11" ry="11" style="stroke:#0000FF;stroke-width:1.0;"/><path d="M219.8688,239.1406 Q219.2906,239.4375 218.65,239.5781 Q218.0094,239.7344 217.3063,239.7344 Q214.8063,239.7344 213.4781,238.0938 Q212.1656,236.4375 212.1656,233.3125 Q212.1656,230.1875 213.4781,228.5313 Q214.8063,226.875 217.3063,226.875 Q218.0094,226.875 218.65,227.0313 Q219.3063,227.1875 219.8688,227.4844 L219.8688,230.2031 Q219.2438,229.625 218.65,229.3594 Q218.0563,229.0781 217.4313,229.0781 Q216.0875,229.0781 215.4,230.1563 Q214.7125,231.2188 214.7125,233.3125 Q214.7125,235.4063 215.4,236.4844 Q216.0875,237.5469 217.4313,237.5469 Q218.0563,237.5469 218.65,237.2813 Q219.2438,237 219.8688,236.4219 L219.8688,239.1406 Z " fill="#000000"/><text fill="#000000" font-family="sans-serif" font-size="12" lengthAdjust="spacing" textLength="57" x="232.1" y="237.6543">Contacto</text><line style="stroke:#0000FF;stroke-width:1.5;" x1="197.5" x2="296.5" y1="249.5" y2="249.5"/><text fill="#000000" font-family="sans-serif" font-size="11" lengthAdjust="spacing" textLength="62" x="202.5" y="263.7104">tipo: string</text><text fill="#000000" font-family="sans-serif" font-size="11" lengthAdjust="spacing" textLength="89" x="202.5" y="276.5151">contacto: string</text><line style="stroke:#0000FF;stroke-width:1.5;" x1="197.5" x2="296.5" y1="283.1094" y2="283.1094"/><!--MD5=[54736e807c59b9b647b6e830d606a429]
class Rol--><rect fill="#FEFECE" filter="url(#f16fyaruhhagdz)" height="48" id="Rol" style="stroke:#A80036;stroke-width:1.5;" width="51" x="251.5" y="52"/><ellipse cx="266.5" cy="68" fill="#ADD1B2" rx="11" ry="11" style="stroke:#A80036;stroke-width:1.0;"/><path d="M269.4688,73.6406 Q268.8906,73.9375 268.25,74.0781 Q267.6094,74.2344 266.9063,74.2344 Q264.4063,74.2344 263.0781,72.5938 Q261.7656,70.9375 261.7656,67.8125 Q261.7656,64.6875 263.0781,63.0313 Q264.4063,61.375 266.9063,61.375 Q267.6094,61.375 268.25,61.5313 Q268.9063,61.6875 269.4688,61.9844 L269.4688,64.7031 Q268.8438,64.125 268.25,63.8594 Q267.6563,63.5781 267.0313,63.5781 Q265.6875,63.5781 265,64.6563 Q264.3125,65.7188 264.3125,67.8125 Q264.3125,69.9063 265,70.9844 Q265.6875,72.0469 267.0313,72.0469 Q267.6563,72.0469 268.25,71.7813 Q268.8438,71.5 269.4688,70.9219 L269.4688,73.6406 Z " fill="#000000"/><text fill="#000000" font-family="sans-serif" font-size="12" lengthAdjust="spacing" textLength="19" x="280.5" y="72.1543">Rol</text><line style="stroke:#A80036;stroke-width:1.5;" x1="252.5" x2="301.5" y1="84" y2="84"/><line style="stroke:#A80036;stroke-width:1.5;" x1="252.5" x2="301.5" y1="92" y2="92"/><!--MD5=[c00411aac5495250ddf7679490aae39c]
link Usuario to Rol--><path codeLine="30" d="M216.62,76 C228.1,76 239.58,76 251.06,76 " fill="none" id="Usuario-Rol" style="stroke:#00008B;stroke-width:1.0;"/><text fill="#000000" font-family="sans-serif" font-size="13" lengthAdjust="spacing" textLength="23" x="220.5158" y="71.4166">1..*</text><!--MD5=[e8c49dc5190bfae832a121340dca40f6]
link Usuario to Contacto--><path codeLine="31" d="M196.7,145.24 C208.06,169.69 220.42,196.29 230.05,217.01 " fill="none" id="Usuario-Contacto" style="stroke:#0000FF;stroke-width:1.0;"/><text fill="#000000" font-family="sans-serif" font-size="13" lengthAdjust="spacing" textLength="23" x="175.6253" y="164.645">1..*</text><!--MD5=[5a42578505f82a42857b737d6038793d]
link Usuario to Horario--><path codeLine="32" d="M133.68,145.24 C124.56,165.13 114.77,186.44 106.32,204.86 " fill="none" id="Usuario-Horario" style="stroke:#0000FF;stroke-width:1.0;"/><text fill="#000000" font-family="sans-serif" font-size="13" lengthAdjust="spacing" textLength="23" x="106.5987" y="164.645">0..*</text><!--MD5=[d75e060d4484468d843a340abab513be]
@startuml Usuario

!startsub PARCIAL
    class Usuario #APPLICATION ##Blue {
        ' Propiedades
        {field} nome: string
        {field} apelido1: string
        {field} apelido2: string
        {field} salario: number

        ' Métodos
        {method} create()
        {method} update()
        {method} delete()
    }

    class Horario #AliceBlue ##Blue {
        ' Propiedades
        {field} horasSemanais: number
        {field} traballaFindes: boolean
        {field} horarioFlexible: boolean
        {field} festivos: Date[]
    }

    class Contacto #AliceBlue ##Blue {
        ' Propiedades
        {field} tipo: string
        {field} contacto: string
    }

    Usuario "1..*" - Rol #DarkBlue
    Usuario "1..*" - - Contacto #Blue
    Usuario "0..*" - - Horario #Blue
!endsub

@enduml

@startuml Usuario

    class Usuario #APPLICATION ##Blue {
        {field} nome: string
        {field} apelido1: string
        {field} apelido2: string
        {field} salario: number

        {method} create()
        {method} update()
        {method} delete()
    }

    class Horario #AliceBlue ##Blue {
        {field} horasSemanais: number
        {field} traballaFindes: boolean
        {field} horarioFlexible: boolean
        {field} festivos: Date[]
    }

    class Contacto #AliceBlue ##Blue {
        {field} tipo: string
        {field} contacto: string
    }

    Usuario "1..*" - Rol #DarkBlue
    Usuario "1..*" - - Contacto #Blue
    Usuario "0..*" - - Horario #Blue

@enduml

PlantUML version 1.2021.7(Sun May 23 14:40:07 CEST 2021)
(GPL source distribution)
Java Runtime: OpenJDK Runtime Environment
JVM: OpenJDK 64-Bit Server VM
Default Encoding: UTF-8
Language: gl
Country: ES
--></g></svg>