<?xml version="1.0" encoding="UTF-8"?>
<!DOCTYPE svg PUBLIC "-//W3C//DTD SVG 1.1//EN" "http://www.w3.org/Graphics/SVG/1.1/DTD/svg11.dtd">
<!-- Creator: CorelDRAW 2019 (64-Bit) -->
<svg xmlns="http://www.w3.org/2000/svg" xml:space="preserve" width="86.3132mm" height="18.2223mm" version="1.1" style="shape-rendering:geometricPrecision; text-rendering:geometricPrecision; image-rendering:optimizeQuality; fill-rule:evenodd; clip-rule:evenodd"
viewBox="0 0 805.71 170.1"
 xmlns:xlink="http://www.w3.org/1999/xlink">
 <defs>
  <style type="text/css">
   <![CDATA[
    .fil0 {fill:#20B2FF}
    .fil3 {fill:#B2B3B3;fill-rule:nonzero}
    .fil1 {fill:#7FD959;fill-rule:nonzero}
    .fil2 {fill:#FD7401;fill-rule:nonzero}
   ]]>
  </style>
 </defs>
 <g id="Capa_x0020_1">
  <metadata id="CorelCorpID_0Corel-Layer"/>
  <g id="_1989335278352">
   <g>
    <path class="fil0" d="M33.92 140.65l25.48 0.02 0.13 -29.9c-1.98,-8.99 0.15,-1.34 -3.4,-6.05l-1.8 -2.09c-0.19,-0.23 -2.51,-3.12 -2.57,-3.2 -12.12,0.69 -12.67,9.14 -16.34,-10.09 -8.38,-1.23 -7.13,1.75 -10.33,-3.62 -4.01,-6.72 0.65,-3.19 0.77,-12.63 -6.12,-3.81 -6.69,0.03 -6.04,-7.86 0.89,-10.82 -0.84,0.18 6.44,-8.01 -2.49,-12.36 -6.82,-13.73 9.8,-15.64 0.9,-17.19 4.63,-10.49 15.71,-9.58 9.38,-13.16 7.79,0.33 7.66,-32 -53.84,0.64 -74.94,47.83 -47.22,102.63 3.84,7.59 7.72,11.86 11.7,18.17 4.29,6.8 6.24,12.86 10.02,19.85z"/>
    <path class="fil0" d="M70.99 47.3c-9.08,3.07 -6.16,-2.62 -8.9,5.95l-0.24 25.78c5.23,10.6 5.59,-5.08 6.91,17l10.82 2.02c-4.65,10.62 -8.46,7.77 -1.8,18.21 23.26,3.88 8.41,-14.95 7.61,-23.44 -4.84,-0.9 -14.97,0.37 -11.03,-6.86 0.15,-0.28 0.57,-0.79 0.81,-1.04l8.45 -3.86c27.5,-13.57 16.36,9.3 35.85,-1.56 1.65,-23.38 -11.63,-5.36 -33.46,-8.7l0.02 -9.61 13.67 -1.56c0.74,-10.23 -0.98,-8.47 3.19,-17.02 2.43,-4.98 5.37,-9.7 -2.27,-12.94 -6.63,-2.81 -11.52,1.26 -11.28,7.4 0.41,10.28 4.83,1.03 4.74,16.88 -8.43,-0.53 -11.36,-4.15 -17.2,-8.62 0.01,-15.67 1.8,-8.83 4.3,-16.9 4.85,-15.68 -21.25,-15.2 -13.59,0.91 4.25,8.92 4.73,3.41 3.43,17.98z"/>
    <path class="fil0" d="M59.23 88.43l0.49 -33.19 -0.06 -3.97 -0.09 -8.04c-30.16,0.75 -30.97,43.99 -0.34,45.2z"/>
    <path class="fil0" d="M31.27 144.87c0.97,11.23 0.83,10.38 12.57,10.38 19.11,0 25.56,0.84 44.07,-1.58l0.02 -8.09c-10.5,-4.52 -43.59,-2.28 -56.66,-0.7z"/>
    <path class="fil0" d="M45.82 169.59c32.1,0 39.09,3.71 39.21,-9.01 -8.04,-3.76 -28.18,-2.34 -39.21,-2.34 -17.1,0 -15.61,11.36 0,11.36z"/>
   </g>
   <g>
    <g>
     <path class="fil1" d="M192.11 17.19c13.14,0 23.24,2.5 30.31,7.49 7.06,4.99 10.6,12.44 10.6,22.34 0,5.4 -0.97,10.01 -2.9,13.84 -1.94,3.82 -4.73,6.93 -8.37,9.32 -3.65,2.39 -8.08,4.12 -13.3,5.2 -5.22,1.08 -11.12,1.62 -17.69,1.62l-10.4 0 0 34.7 -13.1 0 0 -92.21c3.69,-0.9 7.81,-1.51 12.35,-1.82 4.55,-0.32 8.71,-0.47 12.49,-0.47zm1.08 11.48c-5.58,0 -9.86,0.13 -12.83,0.41l0 36.72 9.86 0c4.5,0 8.55,-0.29 12.15,-0.88 3.6,-0.58 6.64,-1.57 9.11,-2.97 2.47,-1.4 4.39,-3.31 5.74,-5.74 1.35,-2.43 2.03,-5.54 2.03,-9.32 0,-3.6 -0.7,-6.57 -2.09,-8.91 -1.39,-2.34 -3.28,-4.21 -5.67,-5.6 -2.39,-1.39 -5.15,-2.36 -8.3,-2.9 -3.15,-0.54 -6.48,-0.81 -9.99,-0.81zm81.27 11.34c1.08,0 2.32,0.07 3.71,0.2 1.4,0.14 2.77,0.32 4.12,0.54 1.35,0.22 2.59,0.45 3.71,0.67 1.12,0.22 1.96,0.43 2.5,0.61l-2.16 10.94c-0.99,-0.36 -2.63,-0.79 -4.93,-1.28 -2.3,-0.49 -5.24,-0.74 -8.84,-0.74 -2.34,0 -4.66,0.25 -6.95,0.74 -2.3,0.49 -3.8,0.83 -4.52,1.01l0 59 -12.56 0 0 -67.23c2.97,-1.08 6.66,-2.09 11.07,-3.04 4.41,-0.94 9.36,-1.42 14.85,-1.42zm88.16 36.59c0,5.58 -0.81,10.62 -2.43,15.12 -1.62,4.5 -3.89,8.37 -6.82,11.61 -2.92,3.24 -6.41,5.74 -10.46,7.49 -4.05,1.75 -8.46,2.63 -13.23,2.63 -4.77,0 -9.18,-0.88 -13.23,-2.63 -4.05,-1.75 -7.54,-4.25 -10.46,-7.49 -2.93,-3.24 -5.2,-7.11 -6.82,-11.61 -1.62,-4.5 -2.43,-9.54 -2.43,-15.12 0,-5.49 0.81,-10.51 2.43,-15.05 1.62,-4.55 3.89,-8.44 6.82,-11.68 2.93,-3.24 6.41,-5.74 10.46,-7.49 4.05,-1.76 8.46,-2.63 13.23,-2.63 4.77,0 9.18,0.88 13.23,2.63 4.05,1.75 7.54,4.25 10.46,7.49 2.93,3.24 5.2,7.13 6.82,11.68 1.62,4.55 2.43,9.56 2.43,15.05zm-13.09 0c0,-7.92 -1.78,-14.2 -5.33,-18.83 -3.56,-4.63 -8.39,-6.95 -14.51,-6.95 -6.12,0 -10.96,2.32 -14.51,6.95 -3.56,4.64 -5.33,10.91 -5.33,18.83 0,7.92 1.78,14.2 5.33,18.83 3.55,4.64 8.39,6.95 14.51,6.95 6.12,0 10.96,-2.32 14.51,-6.95 3.55,-4.63 5.33,-10.91 5.33,-18.83zm70.47 35.1c-0.99,-1.98 -2.21,-4.18 -3.65,-6.62 -1.44,-2.43 -3.02,-4.93 -4.73,-7.49 -1.71,-2.57 -3.47,-5.11 -5.27,-7.63 -1.8,-2.52 -3.55,-4.91 -5.26,-7.16 -1.71,2.25 -3.47,4.66 -5.27,7.22 -1.8,2.57 -3.53,5.13 -5.2,7.7 -1.67,2.57 -3.22,5.06 -4.66,7.49 -1.44,2.43 -2.65,4.59 -3.65,6.48l-12.96 0c3.15,-6.12 6.91,-12.35 11.27,-18.7 4.37,-6.34 8.71,-12.4 13.03,-18.16l-23.22 -33.35 14.18 0 16.74 24.57 16.88 -24.57 13.37 0 -22.68 32.54c4.32,5.85 8.75,12.04 13.3,18.56 4.55,6.52 8.39,12.89 11.54,19.1l-13.77 0zm20.25 -34.97c0,-6.21 0.9,-11.63 2.7,-16.27 1.8,-4.64 4.18,-8.48 7.16,-11.54 2.97,-3.06 6.39,-5.36 10.26,-6.89 3.87,-1.53 7.83,-2.3 11.88,-2.3 9.45,0 16.7,2.95 21.74,8.84 5.04,5.9 7.56,14.87 7.56,26.93 0,0.54 0,1.24 0,2.09 0,0.86 -0.04,1.64 -0.13,2.36l-48.06 0c0.54,7.29 2.65,12.83 6.34,16.61 3.69,3.78 9.45,5.67 17.28,5.67 4.41,0 8.12,-0.38 11.14,-1.15 3.02,-0.77 5.29,-1.51 6.82,-2.23l1.76 10.53c-1.53,0.81 -4.21,1.67 -8.03,2.57 -3.83,0.9 -8.17,1.35 -13.03,1.35 -6.12,0 -11.41,-0.92 -15.86,-2.77 -4.46,-1.85 -8.12,-4.39 -11,-7.63 -2.88,-3.24 -5.02,-7.09 -6.41,-11.54 -1.4,-4.45 -2.09,-9.34 -2.09,-14.65zm48.2 -6.89c0.09,-5.67 -1.33,-10.33 -4.25,-13.97 -2.92,-3.65 -6.95,-5.47 -12.08,-5.47 -2.88,0 -5.42,0.56 -7.63,1.69 -2.21,1.12 -4.07,2.59 -5.6,4.39 -1.53,1.8 -2.72,3.87 -3.58,6.21 -0.86,2.34 -1.42,4.73 -1.69,7.16l34.83 0zm61.7 43.47c-5.67,0 -10.64,-0.9 -14.92,-2.7 -4.28,-1.8 -7.88,-4.32 -10.8,-7.56 -2.93,-3.24 -5.11,-7.09 -6.55,-11.54 -1.44,-4.46 -2.16,-9.38 -2.16,-14.78 0,-5.4 0.79,-10.35 2.36,-14.85 1.57,-4.5 3.8,-8.39 6.68,-11.68 2.88,-3.28 6.41,-5.85 10.6,-7.7 4.19,-1.84 8.84,-2.77 13.97,-2.77 3.15,0 6.3,0.27 9.45,0.81 3.15,0.54 6.17,1.4 9.05,2.57l-2.83 10.67c-1.89,-0.9 -4.07,-1.62 -6.55,-2.16 -2.48,-0.54 -5.11,-0.81 -7.9,-0.81 -7.02,0 -12.4,2.2 -16.13,6.62 -3.73,4.41 -5.6,10.85 -5.6,19.31 0,3.78 0.43,7.25 1.28,10.4 0.86,3.15 2.2,5.85 4.05,8.1 1.84,2.25 4.21,3.98 7.09,5.2 2.88,1.21 6.39,1.82 10.53,1.82 3.33,0 6.34,-0.31 9.05,-0.94 2.7,-0.63 4.81,-1.3 6.34,-2.03l1.75 10.53c-0.72,0.45 -1.75,0.88 -3.1,1.28 -1.35,0.41 -2.88,0.77 -4.59,1.08 -1.71,0.32 -3.53,0.59 -5.47,0.81 -1.94,0.22 -3.8,0.34 -5.6,0.34zm44.01 -71.82l26.6 0 0 10.53 -26.6 0 0 32.4c0,3.51 0.27,6.41 0.81,8.71 0.54,2.29 1.35,4.1 2.43,5.4 1.08,1.3 2.43,2.23 4.05,2.77 1.62,0.54 3.51,0.81 5.67,0.81 3.78,0 6.82,-0.43 9.11,-1.28 2.29,-0.86 3.89,-1.46 4.79,-1.82l2.43 10.4c-1.26,0.63 -3.47,1.42 -6.62,2.36 -3.15,0.95 -6.75,1.42 -10.8,1.42 -4.77,0 -8.71,-0.61 -11.81,-1.82 -3.1,-1.21 -5.6,-3.04 -7.49,-5.47 -1.89,-2.43 -3.22,-5.42 -3.98,-8.98 -0.77,-3.55 -1.15,-7.67 -1.15,-12.35l0 -62.64 12.56 -2.16 0 21.74z"/>
     <path class="fil2" d="M654.37 64.84c0,4.59 0.56,8.73 1.69,12.42 1.13,3.69 2.75,6.86 4.86,9.52 2.12,2.65 4.7,4.7 7.76,6.14 3.06,1.44 6.57,2.16 10.53,2.16 3.87,0 7.36,-0.72 10.46,-2.16 3.1,-1.44 5.71,-3.49 7.83,-6.14 2.12,-2.65 3.74,-5.83 4.86,-9.52 1.12,-3.69 1.69,-7.83 1.69,-12.42 0,-4.59 -0.56,-8.75 -1.69,-12.49 -1.12,-3.73 -2.75,-6.93 -4.86,-9.59 -2.12,-2.65 -4.73,-4.7 -7.83,-6.14 -3.11,-1.44 -6.59,-2.16 -10.46,-2.16 -3.96,0 -7.47,0.74 -10.53,2.23 -3.06,1.49 -5.65,3.56 -7.76,6.21 -2.12,2.65 -3.73,5.85 -4.86,9.59 -1.12,3.73 -1.69,7.85 -1.69,12.35zm71.42 0c0,8.01 -1.19,15.05 -3.58,21.13 -2.39,6.08 -5.65,11.16 -9.79,15.26 -4.14,4.1 -9.07,7.18 -14.78,9.25 -5.72,2.07 -11.86,3.11 -18.43,3.11 -6.39,0 -12.42,-1.04 -18.09,-3.11 -5.67,-2.07 -10.62,-5.15 -14.85,-9.25 -4.23,-4.1 -7.56,-9.18 -9.99,-15.26 -2.43,-6.08 -3.65,-13.12 -3.65,-21.13 0,-8.01 1.26,-15.05 3.78,-21.13 2.52,-6.08 5.92,-11.18 10.19,-15.32 4.28,-4.14 9.23,-7.25 14.85,-9.32 5.63,-2.07 11.54,-3.1 17.75,-3.1 6.39,0 12.42,1.04 18.09,3.1 5.67,2.07 10.62,5.18 14.85,9.32 4.23,4.14 7.56,9.25 9.99,15.32 2.43,6.08 3.65,13.12 3.65,21.13zm43.07 30.78c2.97,0 5.42,-0.25 7.36,-0.74 1.94,-0.49 3.49,-1.17 4.66,-2.03 1.17,-0.86 1.98,-1.87 2.43,-3.04 0.45,-1.17 0.67,-2.47 0.67,-3.91 0,-3.06 -1.44,-5.6 -4.32,-7.63 -2.88,-2.03 -7.83,-4.21 -14.85,-6.55 -3.06,-1.08 -6.12,-2.32 -9.18,-3.71 -3.06,-1.4 -5.81,-3.15 -8.24,-5.27 -2.43,-2.11 -4.41,-4.68 -5.94,-7.69 -1.53,-3.02 -2.29,-6.68 -2.29,-11 0,-4.32 0.81,-8.21 2.43,-11.68 1.62,-3.47 3.91,-6.41 6.89,-8.84 2.97,-2.43 6.57,-4.3 10.8,-5.6 4.23,-1.3 9,-1.96 14.31,-1.96 6.3,0 11.75,0.67 16.34,2.02 4.59,1.35 8.37,2.83 11.34,4.46l-6.08 16.61c-2.61,-1.35 -5.51,-2.54 -8.71,-3.58 -3.2,-1.03 -7.04,-1.55 -11.54,-1.55 -5.04,0 -8.66,0.7 -10.87,2.09 -2.21,1.39 -3.31,3.53 -3.31,6.41 0,1.71 0.41,3.15 1.22,4.32 0.81,1.17 1.96,2.23 3.44,3.17 1.49,0.94 3.2,1.8 5.13,2.57 1.94,0.76 4.07,1.55 6.41,2.36 4.86,1.8 9.09,3.58 12.69,5.33 3.6,1.76 6.59,3.8 8.98,6.14 2.39,2.34 4.16,5.09 5.33,8.24 1.17,3.15 1.75,6.98 1.75,11.48 0,8.73 -3.06,15.5 -9.18,20.32 -6.12,4.82 -15.35,7.22 -27.68,7.22 -4.14,0 -7.88,-0.25 -11.21,-0.74 -3.33,-0.49 -6.28,-1.1 -8.84,-1.82 -2.57,-0.72 -4.77,-1.49 -6.62,-2.3 -1.85,-0.81 -3.4,-1.57 -4.66,-2.29l5.94 -16.74c2.79,1.53 6.23,2.9 10.33,4.12 4.1,1.21 9.11,1.82 15.05,1.82z"/>
    </g>
    <path class="fil3" d="M178.45 145.05l-7.04 11.98c-0.4,0.7 -1.03,1.05 -1.86,1.05 -0.64,0 -1.17,-0.22 -1.61,-0.68 -0.45,-0.46 -0.67,-0.96 -0.67,-1.5 0,-0.42 0.13,-0.85 0.39,-1.29l8.21 -13.99 -8.05 -13.8c-0.32,-0.54 -0.48,-1.04 -0.5,-1.5 0,-0.56 0.22,-1.05 0.66,-1.48 0.45,-0.43 0.96,-0.64 1.54,-0.64 0.87,0 1.51,0.34 1.92,1.03l7.04 11.95 6.98 -11.9c0.44,-0.73 1.07,-1.08 1.87,-1.08 0.61,0 1.15,0.21 1.6,0.64 0.46,0.42 0.68,0.94 0.68,1.54 0.02,0.4 -0.09,0.8 -0.31,1.18l-8.28 14.09 8.23 14.11c0.21,0.35 0.31,0.73 0.31,1.12 0,0.63 -0.21,1.15 -0.64,1.56 -0.43,0.42 -0.95,0.63 -1.56,0.63 -0.86,0 -1.5,-0.35 -1.92,-1.05l-6.99 -11.98zm43.13 -4l0 5.32c0,0.6 -0.21,1.11 -0.65,1.55 -0.44,0.44 -0.96,0.65 -1.55,0.65l-15.58 0 0 1.29c0,0.75 0.32,1.4 0.97,1.92l1.29 1.08c0.7,0.55 1.36,0.81 2,0.81l11.33 0c0.59,0 1.11,0.21 1.55,0.64 0.44,0.43 0.65,0.95 0.65,1.56 0,0.59 -0.22,1.11 -0.67,1.55 -0.45,0.44 -0.96,0.65 -1.53,0.65l-11.62 0c-0.77,0 -1.58,-0.16 -2.43,-0.48 -0.84,-0.32 -1.47,-0.66 -1.87,-1.01l-1.97 -1.73c-0.61,-0.49 -1.12,-1.17 -1.53,-2.05 -0.41,-0.87 -0.62,-1.67 -0.62,-2.41l0 -10.1c0,-0.57 0.22,-1.35 0.67,-2.33 0.45,-0.98 1.01,-1.74 1.69,-2.28l1.84 -1.44c1.2,-0.98 2.54,-1.47 4.01,-1.47l6.19 0c1.56,0 3.03,0.65 4.41,1.93l1.66 1.58c1.19,1.07 1.78,2.65 1.78,4.76zm-17.78 -0.34l0 3.4 13.43 0 0 -3.06c0,-0.81 -0.25,-1.44 -0.76,-1.88l-1.29 -1.12c-0.67,-0.55 -1.27,-0.81 -1.79,-0.81l-5.56 0c-0.68,0 -1.31,0.23 -1.87,0.71l-1.29 1.07c-0.58,0.43 -0.87,1 -0.87,1.69zm34.21 -7.93l10.1 0c1.57,0 2.96,0.47 4.16,1.4 1.21,0.94 1.81,1.85 1.81,2.74 0,0.63 -0.22,1.15 -0.67,1.55 -0.44,0.4 -0.93,0.6 -1.48,0.6 -0.7,0 -1.33,-0.31 -1.92,-0.94 -0.57,-0.63 -1.17,-0.94 -1.81,-0.94l-9.96 0c-0.98,0 -1.47,0.4 -1.47,1.2 0,0.55 0.33,0.98 1,1.27l11.69 5.26c1.19,0.52 2.17,1.37 2.93,2.53 0.76,1.16 1.14,2.44 1.14,3.86 0,1.89 -0.67,3.49 -2.01,4.8 -1.34,1.32 -2.86,1.97 -4.56,1.97l-8.92 0c-1.54,0 -2.97,-0.47 -4.3,-1.39 -1.32,-0.92 -1.98,-1.83 -1.98,-2.69 0,-0.58 0.21,-1.09 0.65,-1.53 0.43,-0.45 0.98,-0.67 1.67,-0.67 0.56,0 1.15,0.31 1.79,0.94 0.64,0.63 1.56,0.94 2.77,0.94l8.2 0c0.65,0 1.19,-0.25 1.63,-0.74 0.44,-0.5 0.65,-1.07 0.65,-1.72 0,-0.99 -0.48,-1.71 -1.44,-2.15l-11.83 -5.33c-1.14,-0.51 -2.01,-1.25 -2.62,-2.2 -0.62,-0.96 -0.92,-1.94 -0.92,-2.94 0,-1.58 0.55,-2.94 1.64,-4.09 1.09,-1.15 2.44,-1.73 4.05,-1.73zm41.75 25.3l-4.41 0c-1.82,0 -3.38,-0.65 -4.69,-1.94 -1.32,-1.29 -1.97,-2.85 -1.97,-4.67l0 -14.29 -2.26 0c-0.61,0 -1.13,-0.21 -1.56,-0.63 -0.43,-0.42 -0.65,-0.95 -0.65,-1.58 0,-0.61 0.21,-1.13 0.64,-1.56 0.42,-0.43 0.94,-0.65 1.54,-0.65l2.28 0 0 -5.42c0,-0.62 0.21,-1.14 0.65,-1.57 0.43,-0.43 0.95,-0.64 1.56,-0.64 0.57,0 1.09,0.21 1.53,0.65 0.45,0.44 0.67,0.96 0.67,1.56l0 5.42 8.91 0c0.59,0 1.11,0.21 1.55,0.65 0.44,0.44 0.66,0.96 0.66,1.55 0,0.61 -0.22,1.13 -0.65,1.56 -0.44,0.43 -0.96,0.64 -1.55,0.64l-8.92 0 0 14.29c0,0.59 0.22,1.11 0.67,1.55 0.44,0.44 0.97,0.65 1.58,0.65l4.29 0c1.17,0 1.95,-0.64 2.34,-1.91 0.38,-1.27 1.13,-1.91 2.23,-1.91 0.65,0 1.18,0.21 1.59,0.64 0.41,0.43 0.62,0.97 0.62,1.61 0,1.33 -0.63,2.66 -1.87,3.98 -1.25,1.32 -2.85,1.98 -4.79,1.98zm25.79 -36.75l2.31 0c0.61,0 1.13,0.22 1.56,0.65 0.43,0.42 0.65,0.94 0.65,1.56l0 1.88c0,0.62 -0.22,1.15 -0.65,1.59 -0.43,0.45 -0.95,0.67 -1.56,0.67l-2.36 0c-0.63,0 -1.16,-0.22 -1.59,-0.68 -0.43,-0.46 -0.64,-0.96 -0.62,-1.52l0.05 -1.93c0,-0.62 0.21,-1.14 0.64,-1.56 0.43,-0.43 0.95,-0.65 1.56,-0.65zm9.02 36.75l-13.47 0c-0.62,0 -1.14,-0.21 -1.57,-0.65 -0.43,-0.43 -0.64,-0.95 -0.64,-1.56 0,-0.59 0.21,-1.11 0.64,-1.55 0.43,-0.44 0.95,-0.65 1.56,-0.65l4.51 0 0 -16.44 -4.49 0c-0.62,0 -1.14,-0.21 -1.58,-0.65 -0.43,-0.44 -0.64,-0.96 -0.64,-1.55 0,-0.61 0.21,-1.14 0.64,-1.59 0.43,-0.45 0.96,-0.67 1.57,-0.67l6.75 0c0.61,0 1.14,0.22 1.57,0.67 0.43,0.44 0.65,0.97 0.65,1.59l0 18.64 4.44 0c0.62,0 1.16,0.21 1.6,0.64 0.45,0.43 0.67,0.95 0.67,1.56 0,0.61 -0.22,1.13 -0.65,1.56 -0.44,0.43 -0.96,0.65 -1.56,0.65zm36.81 -17.31l0 9.31c0,1.97 -0.93,3.8 -2.79,5.48 -1.86,1.67 -3.78,2.52 -5.76,2.52l-5.17 0c-2.01,0 -3.93,-0.85 -5.77,-2.56 -1.84,-1.7 -2.76,-3.51 -2.76,-5.44l0 -9.31c0,-1.93 0.9,-3.73 2.69,-5.44 1.79,-1.71 3.74,-2.56 5.84,-2.56l5.17 0c1.98,-0.04 3.9,0.79 5.76,2.46 1.86,1.68 2.79,3.53 2.79,5.53zm-17.78 0.19l0 8.91c0,0.81 0.29,1.44 0.87,1.92l1.65 1.41c0.37,0.31 0.89,0.48 1.55,0.48l5.11 0c0.75,0 1.43,-0.27 2.05,-0.81l1.33 -1.18c0.55,-0.41 0.81,-1 0.81,-1.75l0 -8.91c0,-0.88 -0.27,-1.52 -0.81,-1.94l-1.55 -1.24c-0.52,-0.44 -1.14,-0.65 -1.84,-0.65l-4.56 0c-1,0 -1.77,0.23 -2.31,0.71l-1.5 1.29c-0.55,0.45 -0.81,1.05 -0.81,1.78zm12.62 -17.54c0.31,-0.13 0.65,-0.21 0.98,-0.21 0.63,0 1.15,0.23 1.55,0.7 0.4,0.47 0.6,0.98 0.6,1.56 0,0.95 -0.41,1.61 -1.24,2l-8 3.71c-0.31,0.13 -0.64,0.21 -0.98,0.21 -0.63,0 -1.15,-0.23 -1.55,-0.7 -0.4,-0.46 -0.6,-0.98 -0.6,-1.56 0,-0.95 0.41,-1.61 1.23,-2l8 -3.71zm25.81 14.52l-6.03 3.91 0 14.03c0,0.59 -0.21,1.1 -0.65,1.54 -0.44,0.44 -0.96,0.65 -1.55,0.65 -0.59,0 -1.11,-0.21 -1.55,-0.65 -0.44,-0.44 -0.65,-0.95 -0.65,-1.55l0 -20.85c0,-0.61 0.21,-1.14 0.65,-1.58 0.43,-0.45 0.95,-0.67 1.56,-0.67 0.59,0 1.11,0.22 1.55,0.66 0.44,0.45 0.65,0.98 0.65,1.59l0 1.46 4.03 -2.43c1.35,-0.85 2.88,-1.28 4.58,-1.28l2.05 0c1.75,0 3.28,0.62 4.56,1.86 1.28,1.24 1.95,2.76 2.02,4.58l0.64 16.66c0.02,0.6 -0.19,1.11 -0.63,1.55 -0.44,0.44 -0.97,0.65 -1.58,0.65 -0.57,0 -1.08,-0.2 -1.52,-0.59 -0.44,-0.39 -0.66,-0.92 -0.68,-1.6l-0.7 -16.4c-0.05,-1.53 -0.86,-2.3 -2.43,-2.3l-2.16 0c-0.67,0 -1.39,0.25 -2.17,0.76zm72.24 -2.05l0 -10.47c0,-0.61 0.21,-1.14 0.63,-1.57 0.42,-0.43 0.93,-0.64 1.52,-0.64 0.62,0 1.15,0.21 1.59,0.64 0.45,0.43 0.67,0.95 0.67,1.56l0 30.46c0,0.61 -0.21,1.13 -0.65,1.56 -0.44,0.43 -0.96,0.65 -1.55,0.65 -0.63,0 -1.16,-0.21 -1.58,-0.65 -0.42,-0.42 -0.63,-0.94 -0.63,-1.56l0 -0.97c-2.14,2.11 -4.15,3.17 -6.02,3.17l-3.73 0c-1.5,0 -3,-0.65 -4.5,-1.93l-1.83 -1.55c-0.42,-0.4 -0.81,-1.07 -1.19,-2.01 -0.38,-0.94 -0.56,-1.82 -0.56,-2.64l0 -8.95c0,-0.99 0.21,-1.96 0.63,-2.89 0.42,-0.94 0.9,-1.64 1.47,-2.11l1.8 -1.54c1.29,-1.12 2.81,-1.67 4.55,-1.67l3.17 0c1.73,0 3.3,0.61 4.71,1.84l1.51 1.28zm-6.38 1.34l-3.05 0c-0.65,0 -1.23,0.23 -1.75,0.71l-1.41 1.23c-0.49,0.44 -0.73,0.99 -0.73,1.67l0 9.3c0,0.61 0.29,1.16 0.86,1.65l1.44 1.23c0.45,0.4 0.93,0.6 1.43,0.6l3.58 0c0.46,0 1.03,-0.27 1.67,-0.81l3.47 -2.88c0.57,-0.51 0.86,-1.14 0.86,-1.88l0 -4.75c0,-1.07 -0.3,-1.84 -0.91,-2.35l-3.58 -3.05c-0.47,-0.44 -1.09,-0.65 -1.88,-0.65zm43.28 3.81l0 5.32c0,0.6 -0.21,1.11 -0.65,1.55 -0.44,0.44 -0.96,0.65 -1.55,0.65l-15.58 0 0 1.29c0,0.75 0.32,1.4 0.97,1.92l1.29 1.08c0.7,0.55 1.36,0.81 2,0.81l11.33 0c0.59,0 1.11,0.21 1.55,0.64 0.44,0.43 0.65,0.95 0.65,1.56 0,0.59 -0.22,1.11 -0.67,1.55 -0.45,0.44 -0.96,0.65 -1.53,0.65l-11.62 0c-0.77,0 -1.58,-0.16 -2.43,-0.48 -0.84,-0.32 -1.47,-0.66 -1.87,-1.01l-1.97 -1.73c-0.61,-0.49 -1.12,-1.17 -1.53,-2.05 -0.41,-0.87 -0.62,-1.67 -0.62,-2.41l0 -10.1c0,-0.57 0.22,-1.35 0.67,-2.33 0.45,-0.98 1.01,-1.74 1.69,-2.28l1.84 -1.44c1.2,-0.98 2.54,-1.47 4.01,-1.47l6.19 0c1.56,0 3.03,0.65 4.41,1.93l1.66 1.58c1.19,1.07 1.78,2.65 1.78,4.76zm-17.78 -0.34l0 3.4 13.43 0 0 -3.06c0,-0.81 -0.25,-1.44 -0.76,-1.88l-1.29 -1.12c-0.67,-0.55 -1.27,-0.81 -1.79,-0.81l-5.56 0c-0.68,0 -1.31,0.23 -1.87,0.71l-1.29 1.07c-0.58,0.43 -0.87,1 -0.87,1.69zm60.44 15.17l0 -32.66 15.67 0c1.81,0 3.36,0.65 4.67,1.97 1.31,1.31 1.96,2.87 1.96,4.69l0 8.27c0,1.82 -0.64,3.38 -1.94,4.67 -1.3,1.3 -2.87,1.94 -4.68,1.94l-11.21 0 0 11.12c0,0.61 -0.21,1.13 -0.65,1.56 -0.43,0.43 -0.95,0.65 -1.56,0.65 -0.63,0 -1.16,-0.21 -1.6,-0.65 -0.44,-0.43 -0.65,-0.95 -0.65,-1.56zm4.46 -15.53l11.22 0c0.6,0 1.11,-0.21 1.55,-0.65 0.44,-0.43 0.66,-0.95 0.66,-1.56l0 -8.27c0,-0.61 -0.22,-1.13 -0.66,-1.56 -0.44,-0.43 -0.95,-0.64 -1.55,-0.64l-11.22 0 0 12.68zm27.99 15.53l0 -20.85c0,-0.61 0.21,-1.14 0.65,-1.58 0.43,-0.45 0.95,-0.67 1.56,-0.67 0.61,0 1.13,0.21 1.56,0.65 0.43,0.43 0.64,0.96 0.64,1.58l0 2.71 3.59 -3.06c1.49,-1.25 2.94,-1.88 4.36,-1.88l3.22 0c1.82,0 3.38,0.65 4.67,1.94 1.3,1.29 1.94,2.85 1.94,4.67l0 1.18c0,0.63 -0.21,1.16 -0.64,1.6 -0.43,0.44 -0.95,0.65 -1.56,0.65 -0.61,0 -1.13,-0.21 -1.56,-0.64 -0.43,-0.43 -0.65,-0.95 -0.65,-1.56l0 -1.24c0,-0.61 -0.21,-1.13 -0.65,-1.56 -0.43,-0.43 -0.95,-0.65 -1.56,-0.65l-2.86 0c-0.62,0 -1.3,0.32 -2.05,0.97l-6.27 5.43 0 12.3c0,0.61 -0.21,1.13 -0.65,1.56 -0.44,0.43 -0.96,0.65 -1.55,0.65 -0.61,0 -1.13,-0.21 -1.56,-0.65 -0.43,-0.42 -0.65,-0.94 -0.65,-1.56zm54.69 -15.1l0 9.31c0,1.97 -0.93,3.8 -2.79,5.48 -1.86,1.67 -3.78,2.52 -5.76,2.52l-5.17 0c-2.01,0 -3.93,-0.85 -5.77,-2.56 -1.84,-1.7 -2.76,-3.51 -2.76,-5.44l0 -9.31c0,-1.93 0.9,-3.73 2.69,-5.44 1.79,-1.71 3.74,-2.56 5.84,-2.56l5.17 0c1.98,-0.04 3.9,0.79 5.76,2.46 1.86,1.68 2.79,3.53 2.79,5.53zm-17.78 0.19l0 8.91c0,0.81 0.29,1.44 0.87,1.92l1.65 1.41c0.37,0.31 0.89,0.48 1.55,0.48l5.11 0c0.75,0 1.43,-0.27 2.05,-0.81l1.33 -1.18c0.55,-0.41 0.81,-1 0.81,-1.75l0 -8.91c0,-0.88 -0.27,-1.52 -0.81,-1.94l-1.55 -1.24c-0.52,-0.44 -1.14,-0.65 -1.84,-0.65l-4.56 0c-1,0 -1.77,0.23 -2.31,0.71l-1.5 1.29c-0.55,0.45 -0.81,1.05 -0.81,1.78zm39.51 7.58l-7.18 8.63c-0.47,0.61 -1.07,0.91 -1.76,0.91 -0.63,0 -1.16,-0.21 -1.58,-0.65 -0.42,-0.44 -0.63,-0.98 -0.63,-1.6 0,-0.56 0.14,-1 0.42,-1.33l7.89 -9.46 -7.29 -8.69c-0.32,-0.39 -0.48,-0.81 -0.48,-1.31 0,-0.58 0.21,-1.1 0.61,-1.56 0.41,-0.47 0.94,-0.7 1.59,-0.7 0.73,0 1.32,0.28 1.77,0.82l6.66 8.02 6.79 -8.12c0.42,-0.48 0.95,-0.73 1.59,-0.73 0.56,0 1.07,0.2 1.53,0.59 0.46,0.39 0.69,0.9 0.69,1.5 0,0.6 -0.09,1.01 -0.28,1.23l-7.45 8.96 7.82 9.42c0.29,0.33 0.45,0.74 0.45,1.23 0,0.67 -0.22,1.23 -0.67,1.68 -0.44,0.45 -0.96,0.67 -1.53,0.67 -0.68,0 -1.28,-0.3 -1.78,-0.92l-7.16 -8.62zm43.17 -7.49l0 5.32c0,0.6 -0.21,1.11 -0.65,1.55 -0.44,0.44 -0.96,0.65 -1.55,0.65l-15.58 0 0 1.29c0,0.75 0.32,1.4 0.97,1.92l1.29 1.08c0.7,0.55 1.36,0.81 2,0.81l11.33 0c0.59,0 1.11,0.21 1.55,0.64 0.44,0.43 0.65,0.95 0.65,1.56 0,0.59 -0.22,1.11 -0.67,1.55 -0.45,0.44 -0.96,0.65 -1.53,0.65l-11.62 0c-0.77,0 -1.58,-0.16 -2.43,-0.48 -0.84,-0.32 -1.47,-0.66 -1.87,-1.01l-1.97 -1.73c-0.61,-0.49 -1.12,-1.17 -1.53,-2.05 -0.41,-0.87 -0.62,-1.67 -0.62,-2.41l0 -10.1c0,-0.57 0.22,-1.35 0.67,-2.33 0.45,-0.98 1.01,-1.74 1.69,-2.28l1.84 -1.44c1.2,-0.98 2.54,-1.47 4.01,-1.47l6.19 0c1.56,0 3.03,0.65 4.41,1.93l1.66 1.58c1.19,1.07 1.78,2.65 1.78,4.76zm-17.78 -0.34l0 3.4 13.43 0 0 -3.06c0,-0.81 -0.25,-1.44 -0.76,-1.88l-1.29 -1.12c-0.67,-0.55 -1.27,-0.81 -1.79,-0.81l-5.56 0c-0.68,0 -1.31,0.23 -1.87,0.71l-1.29 1.07c-0.58,0.43 -0.87,1 -0.87,1.69zm48.08 17.37l-9.42 0c-1.66,0 -3.07,-0.5 -4.24,-1.5l-4.28 -3.72c-1.36,-1.14 -2.04,-2.68 -2.04,-4.61l0 -5.75c-0.07,-1.86 0.7,-3.49 2.3,-4.87l3.85 -3.33c1.24,-1.01 2.56,-1.52 3.98,-1.52l9.87 0c0.61,0 1.13,0.21 1.55,0.65 0.43,0.43 0.64,0.95 0.64,1.56 0,0.63 -0.21,1.15 -0.64,1.58 -0.42,0.42 -0.94,0.63 -1.55,0.63l-9.45 0c-0.59,0 -1.16,0.23 -1.69,0.71l-3.54 3.02c-0.57,0.48 -0.86,1.15 -0.86,1.96l0 5.38c0,0.57 0.22,1.07 0.68,1.47l3.89 3.3c0.48,0.44 1.14,0.65 1.93,0.65l9.03 0c0.59,0 1.11,0.21 1.55,0.64 0.44,0.43 0.65,0.95 0.65,1.56 0,0.61 -0.21,1.13 -0.64,1.56 -0.43,0.43 -0.95,0.65 -1.56,0.65zm27.88 0l-4.41 0c-1.82,0 -3.38,-0.65 -4.69,-1.94 -1.32,-1.29 -1.97,-2.85 -1.97,-4.67l0 -14.29 -2.26 0c-0.61,0 -1.13,-0.21 -1.56,-0.63 -0.43,-0.42 -0.65,-0.95 -0.65,-1.58 0,-0.61 0.21,-1.13 0.64,-1.56 0.42,-0.43 0.94,-0.65 1.54,-0.65l2.28 0 0 -5.42c0,-0.62 0.21,-1.14 0.65,-1.57 0.43,-0.43 0.95,-0.64 1.56,-0.64 0.57,0 1.09,0.21 1.53,0.65 0.45,0.44 0.67,0.96 0.67,1.56l0 5.42 8.91 0c0.59,0 1.11,0.21 1.55,0.65 0.44,0.44 0.66,0.96 0.66,1.55 0,0.61 -0.22,1.13 -0.65,1.56 -0.44,0.43 -0.96,0.64 -1.55,0.64l-8.92 0 0 14.29c0,0.59 0.22,1.11 0.67,1.55 0.44,0.44 0.97,0.65 1.58,0.65l4.29 0c1.17,0 1.95,-0.64 2.34,-1.91 0.38,-1.27 1.13,-1.91 2.23,-1.91 0.65,0 1.18,0.21 1.59,0.64 0.41,0.43 0.62,0.97 0.62,1.61 0,1.33 -0.63,2.66 -1.87,3.98 -1.25,1.32 -2.85,1.98 -4.79,1.98zm39.16 -17.31l0 9.31c0,1.97 -0.93,3.8 -2.79,5.48 -1.86,1.67 -3.78,2.52 -5.76,2.52l-5.17 0c-2.01,0 -3.93,-0.85 -5.77,-2.56 -1.84,-1.7 -2.76,-3.51 -2.76,-5.44l0 -9.31c0,-1.93 0.9,-3.73 2.69,-5.44 1.79,-1.71 3.74,-2.56 5.84,-2.56l5.17 0c1.98,-0.04 3.9,0.79 5.76,2.46 1.86,1.68 2.79,3.53 2.79,5.53zm-17.78 0.19l0 8.91c0,0.81 0.29,1.44 0.87,1.92l1.65 1.41c0.37,0.31 0.89,0.48 1.55,0.48l5.11 0c0.75,0 1.43,-0.27 2.05,-0.81l1.33 -1.18c0.55,-0.41 0.81,-1 0.81,-1.75l0 -8.91c0,-0.88 -0.27,-1.52 -0.81,-1.94l-1.55 -1.24c-0.52,-0.44 -1.14,-0.65 -1.84,-0.65l-4.56 0c-1,0 -1.77,0.23 -2.31,0.71l-1.5 1.29c-0.55,0.45 -0.81,1.05 -0.81,1.78zm34.21 -8.18l10.1 0c1.57,0 2.96,0.47 4.16,1.4 1.21,0.94 1.81,1.85 1.81,2.74 0,0.63 -0.22,1.15 -0.67,1.55 -0.44,0.4 -0.93,0.6 -1.48,0.6 -0.7,0 -1.33,-0.31 -1.92,-0.94 -0.57,-0.63 -1.17,-0.94 -1.81,-0.94l-9.96 0c-0.98,0 -1.47,0.4 -1.47,1.2 0,0.55 0.33,0.98 1,1.27l11.69 5.26c1.19,0.52 2.17,1.37 2.93,2.53 0.76,1.16 1.14,2.44 1.14,3.86 0,1.89 -0.67,3.49 -2.01,4.8 -1.34,1.32 -2.86,1.97 -4.56,1.97l-8.92 0c-1.54,0 -2.97,-0.47 -4.3,-1.39 -1.32,-0.92 -1.98,-1.83 -1.98,-2.69 0,-0.58 0.21,-1.09 0.65,-1.53 0.43,-0.45 0.98,-0.67 1.67,-0.67 0.56,0 1.15,0.31 1.79,0.94 0.64,0.63 1.56,0.94 2.77,0.94l8.2 0c0.65,0 1.19,-0.25 1.63,-0.74 0.44,-0.5 0.65,-1.07 0.65,-1.72 0,-0.99 -0.48,-1.71 -1.44,-2.15l-11.83 -5.33c-1.14,-0.51 -2.01,-1.25 -2.62,-2.2 -0.62,-0.96 -0.92,-1.94 -0.92,-2.94 0,-1.58 0.55,-2.94 1.64,-4.09 1.09,-1.15 2.44,-1.73 4.05,-1.73z"/>
   </g>
  </g>
 </g>
</svg>
