<?xml version="1.0" encoding="UTF-8"?>
<!DOCTYPE svg PUBLIC "-//W3C//DTD SVG 1.1//EN" "http://www.w3.org/Graphics/SVG/1.1/DTD/svg11.dtd">
<!-- Creator: CorelDRAW 2019 (64-Bit) -->
<svg xmlns="http://www.w3.org/2000/svg" xml:space="preserve" width="68.3945mm" height="15.2233mm" version="1.1" style="shape-rendering:geometricPrecision; text-rendering:geometricPrecision; image-rendering:optimizeQuality; fill-rule:evenodd; clip-rule:evenodd"
viewBox="0 0 523.11 116.43"
 xmlns:xlink="http://www.w3.org/1999/xlink">
 <defs>
  <style type="text/css">
   <![CDATA[
    .fil2 {fill:#B2B3B3;fill-rule:nonzero}
    .fil0 {fill:#7FD959;fill-rule:nonzero}
    .fil1 {fill:#FD7401;fill-rule:nonzero}
   ]]>
  </style>
 </defs>
 <g id="Capa_x0020_1">
  <metadata id="CorelCorpID_0Corel-Layer"/>
  <g id="_1989312712352">
   <g>
    <path class="fil0" d="M20.35 1c10.77,0 19.04,2.05 24.83,6.14 5.79,4.09 8.68,10.2 8.68,18.31 0,4.42 -0.79,8.2 -2.38,11.34 -1.59,3.13 -3.87,5.68 -6.86,7.63 -2.99,1.95 -6.62,3.37 -10.9,4.26 -4.28,0.88 -9.11,1.33 -14.49,1.33l-8.52 0 0 28.43 -10.73 0 0 -75.55c3.02,-0.74 6.4,-1.24 10.12,-1.49 3.72,-0.26 7.14,-0.39 10.23,-0.39zm0.88 9.4c-4.57,0 -8.08,0.11 -10.51,0.33l0 30.09 8.08 0c3.69,0 7.01,-0.24 9.96,-0.72 2.95,-0.48 5.44,-1.29 7.47,-2.43 2.03,-1.14 3.59,-2.71 4.7,-4.7 1.11,-1.99 1.66,-4.54 1.66,-7.63 0,-2.95 -0.57,-5.38 -1.71,-7.3 -1.14,-1.92 -2.69,-3.45 -4.65,-4.59 -1.95,-1.14 -4.22,-1.94 -6.8,-2.38 -2.58,-0.44 -5.31,-0.66 -8.19,-0.66zm66.59 9.29c0.88,0 1.9,0.06 3.04,0.17 1.14,0.11 2.27,0.26 3.37,0.44 1.11,0.18 2.12,0.37 3.04,0.55 0.92,0.18 1.6,0.35 2.05,0.5l-1.77 8.96c-0.81,-0.3 -2.16,-0.65 -4.04,-1.05 -1.88,-0.41 -4.3,-0.61 -7.25,-0.61 -1.92,0 -3.82,0.2 -5.7,0.61 -1.88,0.41 -3.12,0.68 -3.71,0.83l0 48.34 -10.29 0 0 -55.09c2.43,-0.88 5.46,-1.71 9.07,-2.49 3.61,-0.77 7.67,-1.16 12.17,-1.16zm72.23 29.98c0,4.57 -0.66,8.7 -1.99,12.39 -1.33,3.69 -3.19,6.86 -5.59,9.51 -2.4,2.65 -5.25,4.7 -8.57,6.14 -3.32,1.44 -6.93,2.16 -10.84,2.16 -3.91,0 -7.52,-0.72 -10.84,-2.16 -3.32,-1.44 -6.18,-3.48 -8.57,-6.14 -2.4,-2.65 -4.26,-5.83 -5.59,-9.51 -1.33,-3.69 -1.99,-7.82 -1.99,-12.39 0,-4.5 0.66,-8.61 1.99,-12.33 1.33,-3.72 3.19,-6.91 5.59,-9.57 2.4,-2.65 5.25,-4.7 8.57,-6.14 3.32,-1.44 6.93,-2.16 10.84,-2.16 3.91,0 7.52,0.72 10.84,2.16 3.32,1.44 6.18,3.48 8.57,6.14 2.4,2.65 4.26,5.84 5.59,9.57 1.33,3.72 1.99,7.84 1.99,12.33zm-10.73 0c0,-6.49 -1.46,-11.63 -4.37,-15.43 -2.91,-3.8 -6.88,-5.7 -11.89,-5.7 -5.01,0 -8.98,1.9 -11.89,5.7 -2.91,3.8 -4.37,8.94 -4.37,15.43 0,6.49 1.46,11.63 4.37,15.43 2.91,3.8 6.88,5.7 11.89,5.7 5.02,0 8.98,-1.9 11.89,-5.7 2.91,-3.8 4.37,-8.94 4.37,-15.43zm57.74 28.76c-0.81,-1.62 -1.81,-3.43 -2.99,-5.42 -1.18,-1.99 -2.47,-4.04 -3.87,-6.14 -1.4,-2.1 -2.84,-4.18 -4.31,-6.25 -1.47,-2.07 -2.91,-4.02 -4.31,-5.86 -1.4,1.84 -2.84,3.82 -4.31,5.92 -1.47,2.1 -2.89,4.2 -4.26,6.31 -1.36,2.1 -2.64,4.15 -3.82,6.14 -1.18,1.99 -2.18,3.76 -2.99,5.31l-10.62 0c2.58,-5.01 5.66,-10.12 9.24,-15.32 3.58,-5.2 7.14,-10.16 10.67,-14.88l-19.03 -27.32 11.61 0 13.72 20.13 13.83 -20.13 10.95 0 -18.58 26.66c3.54,4.79 7.17,9.86 10.9,15.21 3.72,5.35 6.88,10.56 9.46,15.65l-11.28 0zm16.59 -28.65c0,-5.09 0.74,-9.53 2.21,-13.33 1.47,-3.8 3.43,-6.95 5.86,-9.46 2.43,-2.51 5.24,-4.39 8.41,-5.64 3.17,-1.25 6.42,-1.88 9.73,-1.88 7.74,0 13.68,2.42 17.81,7.25 4.13,4.83 6.19,12.19 6.19,22.07 0,0.44 0,1.01 0,1.71 0,0.7 -0.04,1.35 -0.11,1.94l-39.38 0c0.44,5.97 2.18,10.51 5.2,13.61 3.02,3.1 7.74,4.65 14.16,4.65 3.61,0 6.66,-0.31 9.13,-0.94 2.47,-0.63 4.33,-1.24 5.59,-1.83l1.44 8.63c-1.25,0.66 -3.45,1.36 -6.58,2.1 -3.13,0.74 -6.69,1.11 -10.67,1.11 -5.02,0 -9.35,-0.76 -13,-2.27 -3.65,-1.51 -6.66,-3.6 -9.02,-6.25 -2.36,-2.65 -4.11,-5.81 -5.25,-9.46 -1.14,-3.65 -1.71,-7.65 -1.71,-12zm39.49 -5.64c0.07,-4.65 -1.09,-8.46 -3.48,-11.45 -2.4,-2.99 -5.7,-4.48 -9.9,-4.48 -2.36,0 -4.44,0.46 -6.25,1.38 -1.81,0.92 -3.34,2.12 -4.59,3.59 -1.25,1.48 -2.23,3.17 -2.93,5.09 -0.7,1.92 -1.16,3.87 -1.38,5.86l28.54 0zm50.55 35.62c-4.65,0 -8.72,-0.74 -12.22,-2.21 -3.5,-1.47 -6.45,-3.54 -8.85,-6.19 -2.4,-2.65 -4.19,-5.81 -5.37,-9.46 -1.18,-3.65 -1.77,-7.69 -1.77,-12.11 0,-4.42 0.65,-8.48 1.94,-12.17 1.29,-3.69 3.12,-6.88 5.48,-9.57 2.36,-2.69 5.25,-4.79 8.68,-6.31 3.43,-1.51 7.25,-2.27 11.45,-2.27 2.58,0 5.16,0.22 7.74,0.66 2.58,0.44 5.05,1.14 7.41,2.1l-2.32 8.74c-1.55,-0.74 -3.34,-1.33 -5.36,-1.77 -2.03,-0.44 -4.19,-0.66 -6.47,-0.66 -5.75,0 -10.16,1.81 -13.22,5.42 -3.06,3.61 -4.59,8.89 -4.59,15.82 0,3.1 0.35,5.94 1.05,8.52 0.7,2.58 1.81,4.79 3.32,6.64 1.51,1.84 3.45,3.26 5.81,4.26 2.36,1 5.24,1.49 8.63,1.49 2.73,0 5.2,-0.26 7.41,-0.77 2.21,-0.52 3.95,-1.07 5.2,-1.66l1.44 8.63c-0.59,0.37 -1.44,0.72 -2.54,1.05 -1.11,0.33 -2.36,0.63 -3.76,0.88 -1.4,0.26 -2.89,0.48 -4.48,0.66 -1.59,0.18 -3.12,0.28 -4.59,0.28zm36.06 -58.85l21.79 0 0 8.63 -21.79 0 0 26.55c0,2.88 0.22,5.25 0.66,7.14 0.44,1.88 1.11,3.36 1.99,4.42 0.88,1.07 1.99,1.82 3.32,2.27 1.33,0.44 2.88,0.66 4.65,0.66 3.1,0 5.59,-0.35 7.47,-1.05 1.88,-0.7 3.19,-1.2 3.93,-1.49l1.99 8.52c-1.03,0.52 -2.84,1.16 -5.42,1.94 -2.58,0.77 -5.53,1.16 -8.85,1.16 -3.91,0 -7.13,-0.5 -9.68,-1.49 -2.54,-1 -4.59,-2.49 -6.14,-4.48 -1.55,-1.99 -2.64,-4.44 -3.26,-7.36 -0.63,-2.91 -0.94,-6.29 -0.94,-10.12l0 -51.33 10.29 -1.77 0 17.81z"/>
    <path class="fil1" d="M399.11 40.04c0,3.76 0.46,7.15 1.38,10.18 0.92,3.02 2.25,5.62 3.98,7.8 1.73,2.18 3.85,3.85 6.36,5.03 2.51,1.18 5.38,1.77 8.63,1.77 3.17,0 6.03,-0.59 8.57,-1.77 2.54,-1.18 4.68,-2.86 6.42,-5.03 1.73,-2.18 3.06,-4.77 3.98,-7.8 0.92,-3.02 1.38,-6.42 1.38,-10.18 0,-3.76 -0.46,-7.17 -1.38,-10.23 -0.92,-3.06 -2.25,-5.68 -3.98,-7.85 -1.73,-2.18 -3.87,-3.85 -6.42,-5.03 -2.54,-1.18 -5.4,-1.77 -8.57,-1.77 -3.24,0 -6.12,0.61 -8.63,1.82 -2.51,1.22 -4.63,2.91 -6.36,5.09 -1.73,2.18 -3.06,4.79 -3.98,7.85 -0.92,3.06 -1.38,6.43 -1.38,10.12zm58.52 0c0,6.56 -0.98,12.33 -2.93,17.31 -1.95,4.98 -4.63,9.14 -8.02,12.5 -3.39,3.36 -7.43,5.88 -12.11,7.58 -4.68,1.7 -9.72,2.54 -15.1,2.54 -5.24,0 -10.18,-0.85 -14.82,-2.54 -4.65,-1.7 -8.7,-4.22 -12.17,-7.58 -3.47,-3.36 -6.19,-7.52 -8.19,-12.5 -1.99,-4.98 -2.99,-10.75 -2.99,-17.31 0,-6.56 1.03,-12.33 3.1,-17.31 2.07,-4.98 4.85,-9.16 8.35,-12.55 3.5,-3.39 7.56,-5.94 12.17,-7.63 4.61,-1.7 9.46,-2.54 14.55,-2.54 5.24,0 10.18,0.85 14.82,2.54 4.65,1.7 8.7,4.24 12.17,7.63 3.47,3.39 6.19,7.58 8.19,12.55 1.99,4.98 2.99,10.75 2.99,17.31zm35.29 25.22c2.43,0 4.44,-0.2 6.03,-0.61 1.59,-0.41 2.86,-0.96 3.82,-1.66 0.96,-0.7 1.62,-1.53 1.99,-2.49 0.37,-0.96 0.55,-2.03 0.55,-3.21 0,-2.51 -1.18,-4.59 -3.54,-6.25 -2.36,-1.66 -6.42,-3.45 -12.17,-5.37 -2.51,-0.88 -5.01,-1.9 -7.52,-3.04 -2.51,-1.14 -4.76,-2.58 -6.75,-4.31 -1.99,-1.73 -3.61,-3.83 -4.87,-6.3 -1.25,-2.47 -1.88,-5.48 -1.88,-9.02 0,-3.54 0.66,-6.73 1.99,-9.57 1.33,-2.84 3.21,-5.25 5.64,-7.25 2.43,-1.99 5.38,-3.52 8.85,-4.59 3.47,-1.07 7.37,-1.6 11.73,-1.6 5.16,0 9.62,0.55 13.38,1.66 3.76,1.11 6.86,2.32 9.29,3.65l-4.98 13.61c-2.14,-1.11 -4.52,-2.08 -7.13,-2.93 -2.62,-0.85 -5.77,-1.27 -9.46,-1.27 -4.13,0 -7.1,0.57 -8.9,1.71 -1.81,1.14 -2.71,2.89 -2.71,5.25 0,1.4 0.33,2.58 1,3.54 0.66,0.96 1.6,1.82 2.82,2.6 1.22,0.77 2.62,1.47 4.2,2.1 1.59,0.63 3.34,1.27 5.25,1.94 3.98,1.47 7.45,2.93 10.4,4.37 2.95,1.44 5.4,3.12 7.36,5.03 1.95,1.92 3.41,4.17 4.37,6.75 0.96,2.58 1.44,5.72 1.44,9.4 0,7.15 -2.51,12.7 -7.52,16.65 -5.02,3.95 -12.57,5.92 -22.68,5.92 -3.39,0 -6.45,-0.2 -9.18,-0.61 -2.73,-0.41 -5.14,-0.9 -7.25,-1.49 -2.1,-0.59 -3.91,-1.22 -5.42,-1.88 -1.51,-0.66 -2.78,-1.29 -3.82,-1.88l4.87 -13.72c2.29,1.25 5.11,2.38 8.46,3.37 3.36,1 7.47,1.49 12.33,1.49z"/>
   </g>
   <path class="fil2" d="M9.16 105.76l-5.77 9.82c-0.33,0.57 -0.84,0.86 -1.53,0.86 -0.52,0 -0.96,-0.18 -1.32,-0.56 -0.37,-0.37 -0.55,-0.78 -0.55,-1.23 0,-0.34 0.11,-0.7 0.32,-1.06l6.73 -11.46 -6.6 -11.31c-0.26,-0.44 -0.4,-0.85 -0.41,-1.23 0,-0.46 0.18,-0.86 0.54,-1.21 0.37,-0.35 0.79,-0.53 1.26,-0.53 0.71,0 1.24,0.28 1.57,0.84l5.77 9.79 5.72 -9.75c0.36,-0.59 0.87,-0.89 1.53,-0.89 0.5,0 0.94,0.18 1.31,0.52 0.37,0.34 0.56,0.77 0.56,1.26 0.01,0.33 -0.07,0.65 -0.26,0.97l-6.79 11.55 6.74 11.56c0.17,0.29 0.26,0.59 0.26,0.92 0,0.51 -0.18,0.94 -0.53,1.28 -0.35,0.34 -0.78,0.51 -1.28,0.51 -0.7,0 -1.23,-0.29 -1.57,-0.86l-5.73 -9.82zm35.34 -3.28l0 4.36c0,0.49 -0.18,0.91 -0.54,1.27 -0.36,0.36 -0.79,0.54 -1.27,0.54l-12.77 0 0 1.06c0,0.62 0.26,1.14 0.79,1.57l1.06 0.89c0.57,0.45 1.12,0.67 1.64,0.67l9.28 0c0.48,0 0.91,0.18 1.27,0.53 0.36,0.35 0.54,0.78 0.54,1.28 0,0.48 -0.18,0.91 -0.55,1.27 -0.37,0.36 -0.78,0.54 -1.25,0.54l-9.52 0c-0.63,0 -1.29,-0.13 -1.99,-0.4 -0.69,-0.26 -1.2,-0.54 -1.53,-0.83l-1.61 -1.42c-0.5,-0.4 -0.92,-0.96 -1.25,-1.68 -0.34,-0.71 -0.51,-1.37 -0.51,-1.97l0 -8.28c0,-0.47 0.18,-1.11 0.55,-1.91 0.37,-0.8 0.83,-1.42 1.39,-1.87l1.5 -1.18c0.98,-0.8 2.08,-1.2 3.29,-1.2l5.07 0c1.28,0 2.48,0.53 3.61,1.58l1.36 1.29c0.98,0.87 1.46,2.17 1.46,3.9zm-14.57 -0.28l0 2.79 11 0 0 -2.51c0,-0.67 -0.21,-1.18 -0.62,-1.54l-1.06 -0.92c-0.55,-0.45 -1.04,-0.67 -1.47,-0.67l-4.56 0c-0.56,0 -1.07,0.19 -1.53,0.58l-1.06 0.88c-0.48,0.35 -0.71,0.82 -0.71,1.39zm28.03 -6.5l8.27 0c1.28,0 2.42,0.38 3.41,1.14 0.99,0.77 1.48,1.52 1.48,2.25 0,0.51 -0.18,0.94 -0.55,1.27 -0.36,0.33 -0.76,0.49 -1.21,0.49 -0.57,0 -1.09,-0.26 -1.57,-0.77 -0.47,-0.51 -0.96,-0.77 -1.48,-0.77l-8.16 0c-0.8,0 -1.2,0.33 -1.2,0.98 0,0.45 0.27,0.81 0.82,1.04l9.58 4.31c0.98,0.43 1.78,1.12 2.4,2.08 0.62,0.95 0.93,2 0.93,3.16 0,1.55 -0.55,2.86 -1.64,3.93 -1.1,1.08 -2.34,1.61 -3.73,1.61l-7.31 0c-1.26,0 -2.44,-0.38 -3.52,-1.14 -1.08,-0.76 -1.62,-1.5 -1.62,-2.21 0,-0.48 0.18,-0.89 0.53,-1.25 0.35,-0.37 0.81,-0.55 1.36,-0.55 0.46,0 0.95,0.26 1.47,0.77 0.52,0.51 1.28,0.77 2.27,0.77l6.72 0c0.54,0 0.98,-0.21 1.33,-0.61 0.36,-0.41 0.54,-0.88 0.54,-1.41 0,-0.81 -0.4,-1.4 -1.18,-1.76l-9.69 -4.36c-0.93,-0.42 -1.65,-1.02 -2.15,-1.81 -0.51,-0.78 -0.76,-1.59 -0.76,-2.41 0,-1.29 0.45,-2.41 1.34,-3.35 0.89,-0.95 2,-1.42 3.32,-1.42zm34.21 20.73l-3.61 0c-1.49,0 -2.77,-0.53 -3.84,-1.59 -1.08,-1.06 -1.61,-2.33 -1.61,-3.82l0 -11.71 -1.85 0c-0.5,0 -0.92,-0.17 -1.28,-0.51 -0.35,-0.34 -0.53,-0.78 -0.53,-1.29 0,-0.5 0.18,-0.92 0.52,-1.28 0.34,-0.35 0.77,-0.53 1.26,-0.53l1.87 0 0 -4.44c0,-0.51 0.18,-0.93 0.53,-1.28 0.35,-0.35 0.78,-0.53 1.28,-0.53 0.47,0 0.89,0.18 1.25,0.54 0.37,0.36 0.55,0.78 0.55,1.28l0 4.44 7.3 0c0.48,0 0.91,0.18 1.27,0.54 0.36,0.36 0.54,0.79 0.54,1.27 0,0.5 -0.18,0.92 -0.54,1.28 -0.36,0.35 -0.78,0.53 -1.27,0.53l-7.31 0 0 11.71c0,0.48 0.18,0.91 0.55,1.27 0.36,0.36 0.79,0.54 1.3,0.54l3.51 0c0.96,0 1.6,-0.52 1.92,-1.56 0.32,-1.04 0.92,-1.56 1.83,-1.56 0.54,0 0.97,0.18 1.31,0.53 0.34,0.35 0.51,0.79 0.51,1.32 0,1.09 -0.51,2.18 -1.53,3.26 -1.03,1.08 -2.33,1.62 -3.92,1.62zm21.13 -30.11l1.89 0c0.5,0 0.92,0.18 1.28,0.53 0.35,0.34 0.53,0.77 0.53,1.28l0 1.54c0,0.51 -0.18,0.94 -0.53,1.3 -0.35,0.37 -0.78,0.55 -1.28,0.55l-1.94 0c-0.51,0 -0.95,-0.18 -1.3,-0.56 -0.35,-0.37 -0.52,-0.79 -0.51,-1.25l0.04 -1.58c0,-0.51 0.18,-0.93 0.53,-1.28 0.35,-0.35 0.78,-0.53 1.28,-0.53zm7.39 30.11l-11.03 0c-0.51,0 -0.93,-0.18 -1.28,-0.53 -0.35,-0.35 -0.53,-0.78 -0.53,-1.28 0,-0.48 0.18,-0.91 0.53,-1.27 0.35,-0.36 0.78,-0.54 1.28,-0.54l3.7 0 0 -13.47 -3.68 0c-0.51,0 -0.93,-0.18 -1.29,-0.54 -0.35,-0.36 -0.53,-0.79 -0.53,-1.27 0,-0.5 0.18,-0.93 0.53,-1.3 0.35,-0.37 0.79,-0.55 1.28,-0.55l5.53 0c0.5,0 0.93,0.18 1.28,0.55 0.35,0.36 0.53,0.79 0.53,1.3l0 15.27 3.64 0c0.51,0 0.95,0.18 1.31,0.53 0.37,0.35 0.55,0.78 0.55,1.28 0,0.5 -0.18,0.92 -0.54,1.28 -0.36,0.35 -0.78,0.53 -1.28,0.53zm30.16 -14.18l0 7.63c0,1.61 -0.76,3.11 -2.29,4.49 -1.53,1.37 -3.1,2.06 -4.72,2.06l-4.23 0c-1.65,0 -3.22,-0.7 -4.72,-2.1 -1.5,-1.39 -2.26,-2.88 -2.26,-4.45l0 -7.63c0,-1.58 0.73,-3.06 2.2,-4.45 1.47,-1.4 3.07,-2.1 4.78,-2.1l4.23 0c1.62,-0.03 3.19,0.65 4.72,2.02 1.53,1.38 2.29,2.89 2.29,4.53zm-14.57 0.15l0 7.3c0,0.66 0.23,1.18 0.71,1.57l1.35 1.16c0.3,0.26 0.73,0.39 1.27,0.39l4.19 0c0.62,0 1.17,-0.22 1.68,-0.67l1.09 -0.97c0.45,-0.34 0.67,-0.82 0.67,-1.44l0 -7.3c0,-0.72 -0.22,-1.25 -0.67,-1.59l-1.27 -1.01c-0.43,-0.36 -0.93,-0.54 -1.5,-0.54l-3.73 0c-0.82,0 -1.45,0.19 -1.89,0.58l-1.23 1.06c-0.45,0.37 -0.67,0.86 -0.67,1.46zm10.34 -14.37c0.26,-0.11 0.53,-0.17 0.8,-0.17 0.51,0 0.94,0.19 1.27,0.57 0.33,0.38 0.49,0.81 0.49,1.28 0,0.78 -0.34,1.32 -1.01,1.64l-6.55 3.04c-0.26,0.11 -0.53,0.17 -0.8,0.17 -0.51,0 -0.94,-0.19 -1.27,-0.57 -0.33,-0.38 -0.49,-0.81 -0.49,-1.28 0,-0.78 0.34,-1.32 1.01,-1.64l6.55 -3.04zm21.15 11.9l-4.94 3.21 0 11.5c0,0.48 -0.18,0.9 -0.54,1.26 -0.36,0.36 -0.78,0.54 -1.27,0.54 -0.48,0 -0.91,-0.18 -1.27,-0.54 -0.36,-0.36 -0.54,-0.78 -0.54,-1.27l0 -17.09c0,-0.5 0.18,-0.93 0.53,-1.29 0.35,-0.37 0.78,-0.55 1.28,-0.55 0.48,0 0.91,0.18 1.27,0.54 0.36,0.37 0.54,0.8 0.54,1.3l0 1.2 3.3 -1.99c1.11,-0.7 2.36,-1.05 3.76,-1.05l1.68 0c1.44,0 2.68,0.51 3.73,1.53 1.05,1.01 1.6,2.26 1.66,3.75l0.53 13.65c0.01,0.49 -0.15,0.91 -0.51,1.27 -0.36,0.36 -0.79,0.54 -1.29,0.54 -0.47,0 -0.89,-0.16 -1.25,-0.48 -0.36,-0.32 -0.54,-0.76 -0.56,-1.31l-0.57 -13.44c-0.04,-1.25 -0.7,-1.89 -1.99,-1.89l-1.77 0c-0.55,0 -1.14,0.21 -1.78,0.62zm59.19 -1.68l0 -8.58c0,-0.5 0.17,-0.93 0.51,-1.28 0.34,-0.35 0.76,-0.53 1.25,-0.53 0.51,0 0.94,0.18 1.3,0.53 0.37,0.35 0.55,0.78 0.55,1.28l0 24.96c0,0.5 -0.18,0.92 -0.54,1.28 -0.36,0.35 -0.78,0.53 -1.27,0.53 -0.51,0 -0.95,-0.18 -1.29,-0.53 -0.34,-0.34 -0.51,-0.77 -0.51,-1.28l0 -0.79c-1.75,1.73 -3.4,2.6 -4.93,2.6l-3.06 0c-1.23,0 -2.46,-0.53 -3.69,-1.58l-1.5 -1.27c-0.34,-0.33 -0.67,-0.88 -0.98,-1.65 -0.31,-0.77 -0.46,-1.49 -0.46,-2.16l0 -7.33c0,-0.81 0.17,-1.61 0.51,-2.37 0.34,-0.77 0.74,-1.34 1.2,-1.73l1.47 -1.26c1.06,-0.92 2.3,-1.37 3.73,-1.37l2.6 0c1.42,0 2.7,0.5 3.86,1.5l1.24 1.05zm-5.22 1.1l-2.5 0c-0.53,0 -1.01,0.19 -1.44,0.58l-1.15 1c-0.4,0.36 -0.6,0.81 -0.6,1.37l0 7.62c0,0.5 0.23,0.95 0.7,1.35l1.18 1.01c0.37,0.33 0.76,0.49 1.17,0.49l2.93 0c0.38,0 0.84,-0.22 1.37,-0.67l2.85 -2.36c0.47,-0.42 0.7,-0.93 0.7,-1.54l0 -3.9c0,-0.87 -0.25,-1.51 -0.75,-1.92l-2.93 -2.5c-0.38,-0.36 -0.89,-0.54 -1.54,-0.54zm35.46 3.13l0 4.36c0,0.49 -0.18,0.91 -0.54,1.27 -0.36,0.36 -0.79,0.54 -1.27,0.54l-12.77 0 0 1.06c0,0.62 0.26,1.14 0.79,1.57l1.06 0.89c0.57,0.45 1.12,0.67 1.64,0.67l9.28 0c0.48,0 0.91,0.18 1.27,0.53 0.36,0.35 0.54,0.78 0.54,1.28 0,0.48 -0.18,0.91 -0.55,1.27 -0.37,0.36 -0.78,0.54 -1.25,0.54l-9.52 0c-0.63,0 -1.29,-0.13 -1.99,-0.4 -0.69,-0.26 -1.2,-0.54 -1.53,-0.83l-1.61 -1.42c-0.5,-0.4 -0.92,-0.96 -1.25,-1.68 -0.34,-0.71 -0.51,-1.37 -0.51,-1.97l0 -8.28c0,-0.47 0.18,-1.11 0.55,-1.91 0.37,-0.8 0.83,-1.42 1.39,-1.87l1.5 -1.18c0.98,-0.8 2.08,-1.2 3.29,-1.2l5.07 0c1.28,0 2.48,0.53 3.61,1.58l1.36 1.29c0.98,0.87 1.46,2.17 1.46,3.9zm-14.57 -0.28l0 2.79 11 0 0 -2.51c0,-0.67 -0.21,-1.18 -0.62,-1.54l-1.06 -0.92c-0.55,-0.45 -1.04,-0.67 -1.47,-0.67l-4.56 0c-0.56,0 -1.07,0.19 -1.53,0.58l-1.06 0.88c-0.48,0.35 -0.71,0.82 -0.71,1.39zm49.52 12.43l0 -26.76 12.84 0c1.48,0 2.75,0.54 3.82,1.61 1.07,1.07 1.61,2.35 1.61,3.84l0 6.78c0,1.49 -0.53,2.77 -1.59,3.82 -1.06,1.06 -2.35,1.59 -3.84,1.59l-9.18 0 0 9.11c0,0.5 -0.18,0.92 -0.53,1.28 -0.35,0.35 -0.78,0.53 -1.28,0.53 -0.51,0 -0.95,-0.18 -1.31,-0.53 -0.36,-0.35 -0.54,-0.78 -0.54,-1.28zm3.65 -12.72l9.19 0c0.49,0 0.91,-0.18 1.27,-0.53 0.36,-0.35 0.54,-0.78 0.54,-1.28l0 -6.78c0,-0.5 -0.18,-0.92 -0.54,-1.28 -0.36,-0.35 -0.78,-0.53 -1.27,-0.53l-9.19 0 0 10.39zm22.93 12.72l0 -17.09c0,-0.5 0.18,-0.93 0.53,-1.29 0.35,-0.37 0.78,-0.55 1.28,-0.55 0.5,0 0.92,0.18 1.28,0.53 0.35,0.35 0.53,0.78 0.53,1.3l0 2.22 2.94 -2.51c1.22,-1.03 2.41,-1.54 3.57,-1.54l2.64 0c1.49,0 2.77,0.53 3.82,1.59 1.06,1.06 1.59,2.33 1.59,3.82l0 0.97c0,0.51 -0.18,0.95 -0.53,1.31 -0.35,0.36 -0.78,0.54 -1.28,0.54 -0.5,0 -0.92,-0.18 -1.28,-0.53 -0.35,-0.35 -0.53,-0.78 -0.53,-1.28l0 -1.01c0,-0.5 -0.18,-0.92 -0.53,-1.28 -0.35,-0.35 -0.78,-0.53 -1.28,-0.53l-2.34 0c-0.51,0 -1.06,0.26 -1.68,0.79l-5.14 4.45 0 10.08c0,0.5 -0.18,0.92 -0.54,1.28 -0.36,0.35 -0.78,0.53 -1.27,0.53 -0.5,0 -0.92,-0.18 -1.28,-0.53 -0.35,-0.34 -0.53,-0.77 -0.53,-1.28zm44.81 -12.38l0 7.63c0,1.61 -0.76,3.11 -2.29,4.49 -1.53,1.37 -3.1,2.06 -4.72,2.06l-4.23 0c-1.65,0 -3.22,-0.7 -4.72,-2.1 -1.5,-1.39 -2.26,-2.88 -2.26,-4.45l0 -7.63c0,-1.58 0.73,-3.06 2.2,-4.45 1.47,-1.4 3.07,-2.1 4.78,-2.1l4.23 0c1.62,-0.03 3.19,0.65 4.72,2.02 1.53,1.38 2.29,2.89 2.29,4.53zm-14.57 0.15l0 7.3c0,0.66 0.23,1.18 0.71,1.57l1.35 1.16c0.3,0.26 0.73,0.39 1.27,0.39l4.19 0c0.62,0 1.17,-0.22 1.68,-0.67l1.09 -0.97c0.45,-0.34 0.67,-0.82 0.67,-1.44l0 -7.3c0,-0.72 -0.22,-1.25 -0.67,-1.59l-1.27 -1.01c-0.43,-0.36 -0.93,-0.54 -1.5,-0.54l-3.73 0c-0.82,0 -1.45,0.19 -1.89,0.58l-1.23 1.06c-0.45,0.37 -0.67,0.86 -0.67,1.46zm32.37 6.21l-5.88 7.07c-0.39,0.5 -0.87,0.75 -1.44,0.75 -0.51,0 -0.95,-0.18 -1.29,-0.54 -0.34,-0.36 -0.51,-0.8 -0.51,-1.31 0,-0.46 0.12,-0.82 0.34,-1.09l6.46 -7.75 -5.97 -7.12c-0.26,-0.32 -0.4,-0.67 -0.4,-1.07 0,-0.48 0.17,-0.9 0.5,-1.28 0.34,-0.38 0.77,-0.57 1.3,-0.57 0.59,0 1.08,0.23 1.45,0.67l5.46 6.57 5.56 -6.65c0.34,-0.4 0.78,-0.59 1.3,-0.59 0.46,0 0.88,0.16 1.25,0.48 0.37,0.32 0.57,0.73 0.57,1.23 0,0.49 -0.07,0.83 -0.23,1.01l-6.1 7.34 6.4 7.72c0.24,0.27 0.37,0.61 0.37,1.01 0,0.55 -0.18,1 -0.55,1.38 -0.36,0.37 -0.79,0.55 -1.25,0.55 -0.56,0 -1.05,-0.25 -1.46,-0.76l-5.87 -7.06zm35.37 -6.13l0 4.36c0,0.49 -0.18,0.91 -0.54,1.27 -0.36,0.36 -0.79,0.54 -1.27,0.54l-12.77 0 0 1.06c0,0.62 0.26,1.14 0.79,1.57l1.06 0.89c0.57,0.45 1.12,0.67 1.64,0.67l9.28 0c0.48,0 0.91,0.18 1.27,0.53 0.36,0.35 0.54,0.78 0.54,1.28 0,0.48 -0.18,0.91 -0.55,1.27 -0.37,0.36 -0.78,0.54 -1.25,0.54l-9.52 0c-0.63,0 -1.29,-0.13 -1.99,-0.4 -0.69,-0.26 -1.2,-0.54 -1.53,-0.83l-1.61 -1.42c-0.5,-0.4 -0.92,-0.96 -1.25,-1.68 -0.34,-0.71 -0.51,-1.37 -0.51,-1.97l0 -8.28c0,-0.47 0.18,-1.11 0.55,-1.91 0.37,-0.8 0.83,-1.42 1.39,-1.87l1.5 -1.18c0.98,-0.8 2.08,-1.2 3.29,-1.2l5.07 0c1.28,0 2.48,0.53 3.61,1.58l1.36 1.29c0.98,0.87 1.46,2.17 1.46,3.9zm-14.57 -0.28l0 2.79 11 0 0 -2.51c0,-0.67 -0.21,-1.18 -0.62,-1.54l-1.06 -0.92c-0.55,-0.45 -1.04,-0.67 -1.47,-0.67l-4.56 0c-0.56,0 -1.07,0.19 -1.53,0.58l-1.06 0.88c-0.48,0.35 -0.71,0.82 -0.71,1.39zm39.4 14.23l-7.72 0c-1.36,0 -2.52,-0.41 -3.48,-1.23l-3.51 -3.05c-1.12,-0.93 -1.67,-2.19 -1.67,-3.78l0 -4.71c-0.06,-1.53 0.57,-2.86 1.89,-3.99l3.15 -2.73c1.01,-0.83 2.1,-1.25 3.26,-1.25l8.08 0c0.5,0 0.92,0.18 1.27,0.53 0.35,0.35 0.53,0.78 0.53,1.28 0,0.51 -0.18,0.95 -0.53,1.29 -0.34,0.34 -0.77,0.51 -1.27,0.51l-7.74 0c-0.48,0 -0.95,0.19 -1.39,0.58l-2.9 2.47c-0.47,0.4 -0.7,0.94 -0.7,1.61l0 4.41c0,0.47 0.18,0.87 0.56,1.2l3.18 2.71c0.4,0.36 0.93,0.54 1.58,0.54l7.4 0c0.48,0 0.91,0.18 1.27,0.53 0.36,0.35 0.54,0.78 0.54,1.28 0,0.5 -0.18,0.92 -0.53,1.28 -0.35,0.35 -0.78,0.53 -1.28,0.53zm22.84 0l-3.61 0c-1.49,0 -2.77,-0.53 -3.84,-1.59 -1.08,-1.06 -1.61,-2.33 -1.61,-3.82l0 -11.71 -1.85 0c-0.5,0 -0.92,-0.17 -1.28,-0.51 -0.35,-0.34 -0.53,-0.78 -0.53,-1.29 0,-0.5 0.18,-0.92 0.52,-1.28 0.34,-0.35 0.77,-0.53 1.26,-0.53l1.87 0 0 -4.44c0,-0.51 0.18,-0.93 0.53,-1.28 0.35,-0.35 0.78,-0.53 1.28,-0.53 0.47,0 0.89,0.18 1.25,0.54 0.37,0.36 0.55,0.78 0.55,1.28l0 4.44 7.3 0c0.48,0 0.91,0.18 1.27,0.54 0.36,0.36 0.54,0.79 0.54,1.27 0,0.5 -0.18,0.92 -0.54,1.28 -0.36,0.35 -0.78,0.53 -1.27,0.53l-7.31 0 0 11.71c0,0.48 0.18,0.91 0.55,1.27 0.36,0.36 0.79,0.54 1.3,0.54l3.51 0c0.96,0 1.6,-0.52 1.92,-1.56 0.32,-1.04 0.92,-1.56 1.83,-1.56 0.54,0 0.97,0.18 1.31,0.53 0.34,0.35 0.51,0.79 0.51,1.32 0,1.09 -0.51,2.18 -1.53,3.26 -1.03,1.08 -2.33,1.62 -3.92,1.62zm32.09 -14.18l0 7.63c0,1.61 -0.76,3.11 -2.29,4.49 -1.53,1.37 -3.1,2.06 -4.72,2.06l-4.23 0c-1.65,0 -3.22,-0.7 -4.72,-2.1 -1.5,-1.39 -2.26,-2.88 -2.26,-4.45l0 -7.63c0,-1.58 0.73,-3.06 2.2,-4.45 1.47,-1.4 3.07,-2.1 4.78,-2.1l4.23 0c1.62,-0.03 3.19,0.65 4.72,2.02 1.53,1.38 2.29,2.89 2.29,4.53zm-14.57 0.15l0 7.3c0,0.66 0.23,1.18 0.71,1.57l1.35 1.16c0.3,0.26 0.73,0.39 1.27,0.39l4.19 0c0.62,0 1.17,-0.22 1.68,-0.67l1.09 -0.97c0.45,-0.34 0.67,-0.82 0.67,-1.44l0 -7.3c0,-0.72 -0.22,-1.25 -0.67,-1.59l-1.27 -1.01c-0.43,-0.36 -0.93,-0.54 -1.5,-0.54l-3.73 0c-0.82,0 -1.45,0.19 -1.89,0.58l-1.23 1.06c-0.45,0.37 -0.67,0.86 -0.67,1.46zm28.03 -6.71l8.27 0c1.28,0 2.42,0.38 3.41,1.14 0.99,0.77 1.48,1.52 1.48,2.25 0,0.51 -0.18,0.94 -0.55,1.27 -0.36,0.33 -0.76,0.49 -1.21,0.49 -0.57,0 -1.09,-0.26 -1.57,-0.77 -0.47,-0.51 -0.96,-0.77 -1.48,-0.77l-8.16 0c-0.8,0 -1.2,0.33 -1.2,0.98 0,0.45 0.27,0.81 0.82,1.04l9.58 4.31c0.98,0.43 1.78,1.12 2.4,2.08 0.62,0.95 0.93,2 0.93,3.16 0,1.55 -0.55,2.86 -1.64,3.93 -1.1,1.08 -2.34,1.61 -3.73,1.61l-7.31 0c-1.26,0 -2.44,-0.38 -3.52,-1.14 -1.08,-0.76 -1.62,-1.5 -1.62,-2.21 0,-0.48 0.18,-0.89 0.53,-1.25 0.35,-0.37 0.81,-0.55 1.36,-0.55 0.46,0 0.95,0.26 1.47,0.77 0.52,0.51 1.28,0.77 2.27,0.77l6.72 0c0.54,0 0.98,-0.21 1.33,-0.61 0.36,-0.41 0.54,-0.88 0.54,-1.41 0,-0.81 -0.4,-1.4 -1.18,-1.76l-9.69 -4.36c-0.93,-0.42 -1.65,-1.02 -2.15,-1.81 -0.51,-0.78 -0.76,-1.59 -0.76,-2.41 0,-1.29 0.45,-2.41 1.34,-3.35 0.89,-0.95 2,-1.42 3.32,-1.42z"/>
  </g>
 </g>
</svg>
