<?xml version="1.0" encoding="UTF-8" standalone="no"?><svg xmlns="http://www.w3.org/2000/svg" xmlns:xlink="http://www.w3.org/1999/xlink" contentScriptType="application/ecmascript" contentStyleType="text/css" height="179px" preserveAspectRatio="none" style="width:806px;height:179px;background:#00000000;" version="1.1" viewBox="0 0 806 179" width="806px" zoomAndPan="magnify"><defs><filter height="300%" id="f1ki6nj7ubv5fb" width="300%" x="-1" y="-1"><feGaussianBlur result="blurOut" stdDeviation="2.0"/><feColorMatrix in="blurOut" result="blurOut2" type="matrix" values="0 0 0 0 0 0 0 0 0 0 0 0 0 0 0 0 0 0 .4 0"/><feOffset dx="4.0" dy="4.0" in="blurOut2" result="blurOut3"/><feBlend in="SourceGraphic" in2="blurOut3" mode="normal"/></filter></defs><g><!--MD5=[b4e09d266be9964199f2622adcc056fa]
cluster Backend--><rect filter="url(#f1ki6nj7ubv5fb)" height="160" style="stroke:#000000;stroke-width:1.5;fill:none;" width="458" x="336" y="7"/><text fill="#000000" font-family="sans-serif" font-size="14" font-weight="bold" lengthAdjust="spacing" textLength="67" x="531.5" y="21.9951">Backend</text><!--MD5=[645d8587175d8f7ad110cd370775931d]
entity API--><rect fill="#FFB6C1" filter="url(#f1ki6nj7ubv5fb)" height="36.2969" style="stroke:#000000;stroke-width:1.5;" width="97" x="352" y="70"/><text fill="#000000" font-family="sans-serif" font-size="14" lengthAdjust="spacing" textLength="77" x="362" y="92.9951">API externa</text><!--MD5=[868afc0d496c2fb2b5d8b2dd139ed944]
entity PERSIS--><rect fill="#90EE90" filter="url(#f1ki6nj7ubv5fb)" height="36.2969" style="stroke:#000000;stroke-width:1.5;" width="129" x="649" y="70"/><text fill="#000000" font-family="sans-serif" font-size="14" lengthAdjust="spacing" textLength="109" x="659" y="92.9951">API persistencia</text><!--MD5=[c42ed81cef7fdd2e33758127945b9a5b]
entity UI--><rect fill="#87CEFA" filter="url(#f1ki6nj7ubv5fb)" height="36.2969" style="stroke:#000000;stroke-width:1.5;" width="157" x="7" y="71"/><text fill="#000000" font-family="sans-serif" font-size="14" lengthAdjust="spacing" textLength="137" x="17" y="93.9951">Interface de usuario</text><!--MD5=[2a606f92fdd05c1fe5dd6caf7c834332]
link UI to API--><path d="M164.27,88.75 C221.16,88.57 296.82,88.33 346.78,88.17 " fill="none" id="UI-to-API" style="stroke:#0000FF;stroke-width:1.0;"/><polygon fill="#0000FF" points="351.83,88.15,342.8186,84.1757,346.83,88.1643,342.8415,92.1757,351.83,88.15" style="stroke:#0000FF;stroke-width:1.0;"/><text fill="#000000" font-family="sans-serif" font-size="13" lengthAdjust="spacing" textLength="115" x="199.5" y="85.0669">Solicitude Usuario</text><!--MD5=[07a64e13f2f30048ca9b50519b1190b6]
reverse link UI to API--><path d="M158.49,108.12 C170.28,110.56 182.42,112.67 194,114 C249.63,120.38 264.7,122.81 320,114 C330.76,112.29 342.03,109.34 352.6,106.04 " fill="none" id="UI-backto-API" style="stroke:#FF0000;stroke-width:1.0;"/><polygon fill="#FF0000" points="153.47,107.06,161.4529,112.8283,158.3627,108.0901,163.101,104.9999,153.47,107.06" style="stroke:#FF0000;stroke-width:1.0;"/><text fill="#000000" font-family="sans-serif" font-size="13" lengthAdjust="spacing" textLength="124" x="195" y="110.0669">Resposta 칩 Usuario</text><!--MD5=[0a116e5429878b592b3a1ba0f689eccc]
reverse link API to PERSIS--><path d="M443.26,108.06 C454.59,112.57 467.05,116.7 479,119 C540.1,130.77 557.57,128.92 619,119 C635.21,116.38 652.41,111.37 667.58,106.12 " fill="none" id="API-backto-PERSIS" style="stroke:#FF0000;stroke-width:1.0;"/><polygon fill="#FF0000" points="438.47,106.11,445.2956,113.21,443.1005,107.9965,448.314,105.8013,438.47,106.11" style="stroke:#FF0000;stroke-width:1.0;"/><text fill="#000000" font-family="sans-serif" font-size="13" lengthAdjust="spacing" textLength="138" x="480" y="115.0669">Resposta dende a BD</text><!--MD5=[888a914ff23a9f9d2e4f5878566b1350]
link API to PERSIS--><path d="M449.07,88 C500.94,88 584.41,88 643.47,88 " fill="none" id="API-to-PERSIS" style="stroke:#0000FF;stroke-width:1.0;"/><polygon fill="#0000FF" points="648.75,88,639.75,84,643.75,88,639.75,92,648.75,88" style="stroke:#0000FF;stroke-width:1.0;"/><text fill="#000000" font-family="sans-serif" font-size="13" lengthAdjust="spacing" textLength="97" x="500.5" y="84.0669">Solicitude 치 BD</text><!--MD5=[f4c72c670cb4ece42fa7db5c4023410a]
@startuml Domaino

left to right direction
skinparam BackgroundColor transparent
skinparam componentStyle rectangle

component "Interface de usuario" as UI #LightSkyBlue

component Backend {
    component "API externa" as API #LightPink
    component "API persistencia" as PERSIS #LightGreen
}

UI - -> API #Blue : Solicitude Usuario
UI <- - API #Red : Resposta 칩 Usuario

API <- - PERSIS #Red : Resposta dende a BD
API - -> PERSIS #Blue : Solicitude 치 BD

@enduml

PlantUML version 1.2021.7(Sun May 23 14:40:07 CEST 2021)
(GPL source distribution)
Java Runtime: OpenJDK Runtime Environment
JVM: OpenJDK 64-Bit Server VM
Default Encoding: UTF-8
Language: gl
Country: ES
--></g></svg>